<svg width="90" height="110" viewBox="0 0 90 110" fill="#87D385" xmlns="http://www.w3.org/2000/svg">
<path d="M4.80825e-06 110L4.37114e-06 100L10 100V110L4.80825e-06 110Z" />
<path d="M3.93403e-06 90L3.49691e-06 80L10 80V90L3.93403e-06 90Z" />
<path d="M3.0598e-06 70L2.62268e-06 60H10V70L3.0598e-06 70Z" />
<path d="M2.18557e-06 50L1.74846e-06 40H10V50H2.18557e-06Z" />
<path d="M1.31134e-06 30L8.74228e-07 20H10V30H1.31134e-06Z" />
<path d="M4.37114e-07 10L0 3.93402e-06L10 3.49691e-06V10H4.37114e-07Z" />
<path d="M20 110L20 100H30L30 110H20Z" />
<path d="M20 90V80H30V90H20Z" />
<path d="M20 70L20 60H30L30 70H20Z" />
<path d="M20 50V40H30V50H20Z" />
<path d="M20 30L20 20L30 20L30 30L20 30Z" />
<path d="M20 10V3.0598e-06L30 2.62268e-06V10H20Z" />
<path d="M40 110V100H50V110H40Z" />
<path d="M40 90V80H50V90H40Z" />
<path d="M40 70V60L50 60V70H40Z" />
<path d="M40 50L40 40L50 40L50 50L40 50Z" />
<path d="M40 30V20H50V30H40Z" />
<path d="M40 10V2.18557e-06L50 1.74845e-06V10H40Z" />
<path d="M60 110V100H70V110H60Z" />
<path d="M60 90V80H70L70 90H60Z" />
<path d="M60 70V60H70V70H60Z" />
<path d="M60 50L60 40H70V50H60Z" />
<path d="M60 30V20L70 20V30L60 30Z" />
<path d="M60 10V1.31134e-06L70 8.74227e-07V10H60Z" />
<path d="M80 110V100H90V110H80Z" />
<path d="M80 90L80 80H90L90 90H80Z" />
<path d="M80 70V60H90V70H80Z" />
<path d="M80 50V40H90V50H80Z" />
<path d="M80 30V20H90V30H80Z" />
<path d="M80 10V4.37114e-07L90 0V10H80Z" />
</svg>
