<svg width="190" height="110" viewBox="0 0 190 110" fill="#9043CA" xmlns="http://www.w3.org/2000/svg">
<path d="M0 0H10V10H0V0Z" />
<path d="M20 0H30V10H20V0Z" />
<path d="M40 0H50V10H40V0Z" />
<path d="M60 0H70V10H60V0Z" />
<path d="M80 0H90V10H80V0Z" />
<path d="M100 0H110V10H100V0Z" />
<path d="M120 0H130V10H120V0Z" />
<path d="M140 0H150V10H140V0Z" />
<path d="M160 0H170V10H160V0Z" />
<path d="M180 0H190V10H180V0Z" />
<path d="M0 20H10V30H0V20Z" />
<path d="M20 20H30V30H20V20Z" />
<path d="M40 20H50V30H40V20Z" />
<path d="M60 20H70V30H60V20Z" />
<path d="M80 20H90V30H80V20Z" />
<path d="M100 20H110V30H100V20Z" />
<path d="M120 20H130V30H120V20Z" />
<path d="M140 20H150V30H140V20Z" />
<path d="M160 20H170V30H160V20Z" />
<path d="M180 20H190V30H180V20Z" />
<path d="M0 40H10V50H0V40Z" />
<path d="M20 40H30V50H20V40Z" />
<path d="M40 40H50V50H40V40Z" />
<path d="M60 40H70V50H60V40Z" />
<path d="M80 40H90V50H80V40Z" />
<path d="M100 40H110V50H100V40Z" />
<path d="M120 40H130V50H120V40Z" />
<path d="M140 40H150V50H140V40Z" />
<path d="M160 40H170V50H160V40Z" />
<path d="M180 40H190V50H180V40Z" />
<path d="M0 60H10V70H0V60Z" />
<path d="M20 60H30V70H20V60Z" />
<path d="M40 60H50V70H40V60Z" />
<path d="M60 60H70V70H60V60Z" />
<path d="M80 60H90V70H80V60Z" />
<path d="M100 60H110V70H100V60Z" />
<path d="M120 60H130V70H120V60Z" />
<path d="M140 60H150V70H140V60Z" />
<path d="M160 60H170V70H160V60Z" />
<path d="M180 60H190V70H180V60Z" />
<path d="M0 80H10V90H0V80Z" />
<path d="M20 80H30V90H20V80Z" />
<path d="M40 80H50V90H40V80Z" />
<path d="M60 80H70V90H60V80Z" />
<path d="M80 80H90V90H80V80Z" />
<path d="M100 80H110V90H100V80Z" />
<path d="M120 80H130V90H120V80Z" />
<path d="M140 80H150V90H140V80Z" />
<path d="M160 80H170V90H160V80Z" />
<path d="M180 80H190V90H180V80Z" />
<path d="M0 100H10V110H0V100Z" />
<path d="M20 100H30V110H20V100Z" />
<path d="M40 100H50V110H40V100Z" />
<path d="M60 100H70V110H60V100Z" />
<path d="M80 100H90V110H80V100Z" />
<path d="M100 100H110V110H100V100Z" />
<path d="M120 100H130V110H120V100Z" />
<path d="M140 100H150V110H140V100Z" />
<path d="M160 100H170V110H160V100Z" />
<path d="M180 100H190V110H180V100Z" />
</svg>
