<svg width="192" height="91" viewBox="0 0 192 91" fill="red" xmlns="http://www.w3.org/2000/svg">
<path d="M93.5 31.5C141 21 187 67.5 187 84.5V85.0839C188.22 85.2902 189.356 85.8707 190.243 86.7574C191.368 87.8826 192 89.4087 192 91H189.4C189.4 90.0984 189.041 89.2337 188.404 88.5962C187.766 87.9586 186.902 87.6005 186 87.6005C185.098 87.6005 184.234 87.9586 183.596 88.5962C182.959 89.2337 182.6 90.0984 182.6 91H180C180 89.4087 180.632 87.8826 181.757 86.7574C182.883 85.6321 184.409 85 186 85V84.5C186 69 141 22 93.5 32.5C52.9708 41.4591 23.5 17 6 7.5L5.83401 7.40162C5.57767 8.46849 5.03125 9.45403 4.24264 10.2426C3.11742 11.3679 1.5913 12 0 12V9.39952C0.90161 9.39952 1.76629 9.04136 2.40383 8.40382C3.04136 7.76629 3.39952 6.90161 3.39952 6C3.39952 5.09839 3.04136 4.23371 2.40383 3.59617C1.76629 2.95864 0.901609 2.60048 0 2.60048V0C1.5913 0 3.11742 0.632141 4.24264 1.75736C5.36786 2.88258 6 4.4087 6 6C23.5 15.5 52.9708 40.4591 93.5 31.5Z" />
</svg>
