<svg width="458" height="230" viewBox="0 0 458 230" fill="none" xmlns="http://www.w3.org/2000/svg">
<rect y="73.4309" width="13.1063" height="47.7602" rx="6.55315" fill="#47D14D"/>
<rect x="5.24023" y="56.1174" width="2.62126" height="74.6254" rx="1.31063" fill="#47D14D"/>
<rect x="39.3164" y="151.639" width="13.1063" height="30.4472" rx="6.55315" transform="rotate(-180 39.3164 151.639)" fill="#EA2F2F"/>
<rect x="34.0762" y="170.743" width="2.62127" height="55.5213" rx="1.31063" transform="rotate(-180 34.0762 170.743)" fill="#EA2F2F"/>
<rect x="65.5312" y="168.355" width="13.1063" height="16.7161" rx="6.55315" transform="rotate(-180 65.5312 168.355)" fill="#EA2F2F"/>
<rect x="60.291" y="178.504" width="2.62127" height="30.4472" rx="1.31063" transform="rotate(-180 60.291 178.504)" fill="#EA2F2F"/>
<rect x="91.7422" y="206.563" width="13.1063" height="38.2082" rx="6.55315" transform="rotate(-180 91.7422 206.563)" fill="#EA2F2F"/>
<rect x="86.502" y="229.846" width="2.62127" height="69.2524" rx="1.31063" transform="rotate(-180 86.502 229.846)" fill="#EA2F2F"/>
<rect x="104.852" y="146.862" width="13.1063" height="59.7003" rx="6.55315" fill="#47D14D"/>
<rect x="110.092" y="137.907" width="2.62126" height="81.7894" rx="1.31063" fill="#47D14D"/>
<rect x="131.061" y="117.013" width="13.1063" height="29.8502" rx="6.55315" fill="#47D14D"/>
<rect x="136.301" y="96.1173" width="2.62126" height="68.6554" rx="1.31063" fill="#47D14D"/>
<rect x="157.277" y="96.1172" width="13.1063" height="20.8951" rx="6.55315" fill="#47D14D"/>
<rect x="162.518" y="90.7445" width="2.62126" height="35.8202" rx="1.31063" fill="#47D14D"/>
<rect x="183.488" y="65.6704" width="13.1063" height="30.4472" rx="6.55315" fill="#47D14D"/>
<rect x="188.729" y="44.1777" width="2.62126" height="71.6404" rx="1.31063" fill="#47D14D"/>
<rect x="209.701" y="35.8204" width="13.1063" height="29.8502" rx="6.55315" fill="#47D14D"/>
<rect x="214.941" y="14.3276" width="2.62126" height="92.5355" rx="1.31063" fill="#47D14D"/>
<rect x="235.91" y="65.6699" width="13.1063" height="42.9842" rx="6.55315" fill="#EA2F2F"/>
<rect x="241.15" y="40.5958" width="2.62126" height="92.5355" rx="1.31063" fill="#EA2F2F"/>
<rect x="262.129" y="108.655" width="13.1063" height="29.2531" rx="6.55315" fill="#EA2F2F"/>
<rect x="267.369" y="63.8787" width="2.62126" height="92.5355" rx="1.31063" fill="#EA2F2F"/>
<rect x="288.34" y="78.207" width="13.1063" height="30.4472" rx="6.55315" fill="#47D14D"/>
<rect x="293.58" y="55.5209" width="2.62126" height="65.0733" rx="1.31063" fill="#47D14D"/>
<rect x="432.506" y="90.745" width="13.1063" height="30.4472" rx="6.55315" transform="rotate(-180 432.506 90.745)" fill="#47D14D"/>
<rect x="427.266" y="112.237" width="2.62126" height="71.6404" rx="1.31063" transform="rotate(-180 427.266 112.237)" fill="#47D14D"/>
<rect x="458" y="60.8625" width="13.1063" height="30.4472" rx="6.55315" transform="rotate(-180 458 60.8625)" fill="#47D14D"/>
<rect x="452.76" y="82.3547" width="2.62126" height="71.6404" rx="1.31063" transform="rotate(-180 452.76 82.3547)" fill="#47D14D"/>
<rect x="406.297" y="120.595" width="13.1063" height="29.8502" rx="6.55315" transform="rotate(-180 406.297 120.595)" fill="#47D14D"/>
<rect x="401.057" y="142.087" width="2.62126" height="92.5355" rx="1.31063" transform="rotate(-180 401.057 142.087)" fill="#47D14D"/>
<rect x="380.082" y="90.7451" width="13.1063" height="42.9842" rx="6.55315" transform="rotate(-180 380.082 90.7451)" fill="#EA2F2F"/>
<rect x="374.842" y="115.819" width="2.62126" height="92.5355" rx="1.31063" transform="rotate(-180 374.842 115.819)" fill="#EA2F2F"/>
<rect x="353.867" y="47.7603" width="13.1063" height="29.2531" rx="6.55315" transform="rotate(-180 353.867 47.7603)" fill="#EA2F2F"/>
<rect x="348.627" y="92.5355" width="2.62126" height="92.5355" rx="1.31063" transform="rotate(-180 348.627 92.5355)" fill="#EA2F2F"/>
<rect x="327.654" y="78.2073" width="13.1063" height="30.4472" rx="6.55315" transform="rotate(-180 327.654 78.2073)" fill="#47D14D"/>
<rect x="322.414" y="100.894" width="2.62126" height="65.0733" rx="1.31063" transform="rotate(-180 322.414 100.894)" fill="#47D14D"/>
</svg>
