<svg width="405" height="337" viewBox="0 0 405 337" fill="none" xmlns="http://www.w3.org/2000/svg">
<g filter="url(#filter0_dd_465_806)">
<rect x="60" y="60" width="285" height="217" rx="20" fill="white"/>
</g>
<path d="M107.76 259C107.693 259 107.64 258.98 107.6 258.94C107.56 258.9 107.54 258.847 107.54 258.78V252.82L105.75 254.2C105.697 254.24 105.64 254.257 105.58 254.25C105.527 254.243 105.48 254.213 105.44 254.16L105.33 254.02C105.29 253.967 105.273 253.913 105.28 253.86C105.287 253.8 105.317 253.75 105.37 253.71L107.5 252.07C107.547 252.037 107.59 252.017 107.63 252.01C107.67 252.003 107.713 252 107.76 252H107.95C108.017 252 108.07 252.02 108.11 252.06C108.15 252.1 108.17 252.153 108.17 252.22V258.78C108.17 258.847 108.15 258.9 108.11 258.94C108.07 258.98 108.017 259 107.95 259H107.76ZM110.514 259C110.454 259 110.404 258.98 110.364 258.94C110.331 258.893 110.314 258.84 110.314 258.78C110.314 258.76 110.321 258.73 110.334 258.69L112.904 252.6H109.494C109.428 252.6 109.374 252.58 109.334 252.54C109.294 252.5 109.274 252.447 109.274 252.38V252.23C109.274 252.157 109.294 252.1 109.334 252.06C109.374 252.02 109.428 252 109.494 252H113.354C113.428 252 113.484 252.02 113.524 252.06C113.564 252.1 113.584 252.157 113.584 252.23V252.38C113.584 252.46 113.578 252.527 113.564 252.58C113.558 252.627 113.541 252.683 113.514 252.75L110.984 258.75C110.958 258.803 110.924 258.86 110.884 258.92C110.851 258.973 110.798 259 110.724 259H110.514ZM114.114 259C114.047 259 113.994 258.98 113.954 258.94C113.914 258.9 113.894 258.847 113.894 258.78V258.3C113.894 258.233 113.914 258.18 113.954 258.14C113.994 258.093 114.047 258.07 114.114 258.07H114.594C114.661 258.07 114.714 258.093 114.754 258.14C114.801 258.18 114.824 258.233 114.824 258.3V258.78C114.824 258.847 114.801 258.9 114.754 258.94C114.714 258.98 114.661 259 114.594 259H114.114ZM118.441 259.1C117.988 259.1 117.608 259.027 117.301 258.88C117.001 258.733 116.758 258.533 116.571 258.28C116.391 258.02 116.261 257.723 116.181 257.39C116.101 257.057 116.055 256.707 116.041 256.34C116.041 256.16 116.038 255.977 116.031 255.79C116.031 255.603 116.031 255.417 116.031 255.23C116.038 255.037 116.041 254.847 116.041 254.66C116.048 254.293 116.091 253.943 116.171 253.61C116.258 253.277 116.391 252.983 116.571 252.73C116.758 252.47 117.001 252.267 117.301 252.12C117.608 251.973 117.988 251.9 118.441 251.9C118.895 251.9 119.271 251.973 119.571 252.12C119.878 252.267 120.121 252.47 120.301 252.73C120.488 252.983 120.621 253.277 120.701 253.61C120.788 253.943 120.835 254.293 120.841 254.66C120.848 254.847 120.851 255.037 120.851 255.23C120.851 255.417 120.851 255.603 120.851 255.79C120.851 255.977 120.848 256.16 120.841 256.34C120.835 256.707 120.788 257.057 120.701 257.39C120.621 257.723 120.488 258.02 120.301 258.28C120.121 258.533 119.878 258.733 119.571 258.88C119.271 259.027 118.895 259.1 118.441 259.1ZM118.441 258.5C119.035 258.5 119.475 258.303 119.761 257.91C120.048 257.517 120.198 256.977 120.211 256.29C120.218 256.097 120.221 255.917 120.221 255.75C120.221 255.577 120.221 255.407 120.221 255.24C120.221 255.067 120.218 254.89 120.211 254.71C120.198 254.037 120.048 253.5 119.761 253.1C119.475 252.7 119.035 252.5 118.441 252.5C117.855 252.5 117.415 252.7 117.121 253.1C116.835 253.5 116.685 254.037 116.671 254.71C116.671 254.89 116.668 255.067 116.661 255.24C116.661 255.407 116.661 255.577 116.661 255.75C116.668 255.917 116.671 256.097 116.671 256.29C116.685 256.977 116.835 257.517 117.121 257.91C117.415 258.303 117.855 258.5 118.441 258.5ZM123.053 259C122.993 259 122.943 258.98 122.903 258.94C122.87 258.893 122.853 258.84 122.853 258.78C122.853 258.76 122.86 258.73 122.873 258.69L125.443 252.6H122.033C121.967 252.6 121.913 252.58 121.873 252.54C121.833 252.5 121.813 252.447 121.813 252.38V252.23C121.813 252.157 121.833 252.1 121.873 252.06C121.913 252.02 121.967 252 122.033 252H125.893C125.967 252 126.023 252.02 126.063 252.06C126.103 252.1 126.123 252.157 126.123 252.23V252.38C126.123 252.46 126.117 252.527 126.103 252.58C126.097 252.627 126.08 252.683 126.053 252.75L123.523 258.75C123.497 258.803 123.463 258.86 123.423 258.92C123.39 258.973 123.337 259 123.263 259H123.053Z" fill="#9D9D9D"/>
<path d="M146.76 259C146.693 259 146.64 258.98 146.6 258.94C146.56 258.9 146.54 258.847 146.54 258.78V252.82L144.75 254.2C144.697 254.24 144.64 254.257 144.58 254.25C144.527 254.243 144.48 254.213 144.44 254.16L144.33 254.02C144.29 253.967 144.273 253.913 144.28 253.86C144.287 253.8 144.317 253.75 144.37 253.71L146.5 252.07C146.547 252.037 146.59 252.017 146.63 252.01C146.67 252.003 146.713 252 146.76 252H146.95C147.017 252 147.07 252.02 147.11 252.06C147.15 252.1 147.17 252.153 147.17 252.22V258.78C147.17 258.847 147.15 258.9 147.11 258.94C147.07 258.98 147.017 259 146.95 259H146.76ZM151.074 259.1C150.734 259.1 150.411 259.057 150.104 258.97C149.804 258.877 149.541 258.743 149.314 258.57C149.088 258.39 148.908 258.173 148.774 257.92C148.648 257.66 148.584 257.363 148.584 257.03C148.584 256.603 148.688 256.243 148.894 255.95C149.101 255.65 149.374 255.42 149.714 255.26C149.448 255.107 149.234 254.903 149.074 254.65C148.914 254.397 148.834 254.093 148.834 253.74C148.834 253.333 148.934 252.997 149.134 252.73C149.334 252.457 149.604 252.25 149.944 252.11C150.284 251.97 150.661 251.9 151.074 251.9C151.488 251.9 151.864 251.97 152.204 252.11C152.544 252.25 152.814 252.457 153.014 252.73C153.214 252.997 153.314 253.333 153.314 253.74C153.314 254.093 153.234 254.397 153.074 254.65C152.914 254.903 152.701 255.107 152.434 255.26C152.774 255.42 153.048 255.65 153.254 255.95C153.461 256.243 153.564 256.603 153.564 257.03C153.564 257.477 153.451 257.853 153.224 258.16C153.004 258.467 152.704 258.7 152.324 258.86C151.951 259.02 151.534 259.1 151.074 259.1ZM151.074 258.5C151.421 258.5 151.734 258.44 152.014 258.32C152.294 258.2 152.518 258.03 152.684 257.81C152.851 257.59 152.934 257.33 152.934 257.03C152.934 256.723 152.851 256.463 152.684 256.25C152.518 256.03 152.294 255.863 152.014 255.75C151.734 255.63 151.421 255.57 151.074 255.57C150.734 255.57 150.421 255.63 150.134 255.75C149.854 255.863 149.631 256.03 149.464 256.25C149.298 256.463 149.214 256.723 149.214 257.03C149.214 257.33 149.298 257.59 149.464 257.81C149.631 258.03 149.854 258.2 150.134 258.32C150.421 258.44 150.734 258.5 151.074 258.5ZM151.074 254.97C151.361 254.963 151.624 254.91 151.864 254.81C152.111 254.71 152.308 254.57 152.454 254.39C152.608 254.21 152.684 253.993 152.684 253.74C152.684 253.48 152.611 253.26 152.464 253.08C152.324 252.893 152.131 252.75 151.884 252.65C151.644 252.55 151.374 252.5 151.074 252.5C150.781 252.5 150.511 252.55 150.264 252.65C150.018 252.75 149.821 252.893 149.674 253.08C149.534 253.26 149.464 253.48 149.464 253.74C149.464 254 149.534 254.223 149.674 254.41C149.821 254.59 150.018 254.73 150.264 254.83C150.511 254.923 150.781 254.97 151.074 254.97ZM154.999 259C154.932 259 154.879 258.98 154.839 258.94C154.799 258.9 154.779 258.847 154.779 258.78V258.3C154.779 258.233 154.799 258.18 154.839 258.14C154.879 258.093 154.932 258.07 154.999 258.07H155.479C155.545 258.07 155.599 258.093 155.639 258.14C155.685 258.18 155.709 258.233 155.709 258.3V258.78C155.709 258.847 155.685 258.9 155.639 258.94C155.599 258.98 155.545 259 155.479 259H154.999ZM159.326 259.1C158.873 259.1 158.493 259.027 158.186 258.88C157.886 258.733 157.643 258.533 157.456 258.28C157.276 258.02 157.146 257.723 157.066 257.39C156.986 257.057 156.939 256.707 156.926 256.34C156.926 256.16 156.923 255.977 156.916 255.79C156.916 255.603 156.916 255.417 156.916 255.23C156.923 255.037 156.926 254.847 156.926 254.66C156.933 254.293 156.976 253.943 157.056 253.61C157.143 253.277 157.276 252.983 157.456 252.73C157.643 252.47 157.886 252.267 158.186 252.12C158.493 251.973 158.873 251.9 159.326 251.9C159.779 251.9 160.156 251.973 160.456 252.12C160.763 252.267 161.006 252.47 161.186 252.73C161.373 252.983 161.506 253.277 161.586 253.61C161.673 253.943 161.719 254.293 161.726 254.66C161.733 254.847 161.736 255.037 161.736 255.23C161.736 255.417 161.736 255.603 161.736 255.79C161.736 255.977 161.733 256.16 161.726 256.34C161.719 256.707 161.673 257.057 161.586 257.39C161.506 257.723 161.373 258.02 161.186 258.28C161.006 258.533 160.763 258.733 160.456 258.88C160.156 259.027 159.779 259.1 159.326 259.1ZM159.326 258.5C159.919 258.5 160.359 258.303 160.646 257.91C160.933 257.517 161.083 256.977 161.096 256.29C161.103 256.097 161.106 255.917 161.106 255.75C161.106 255.577 161.106 255.407 161.106 255.24C161.106 255.067 161.103 254.89 161.096 254.71C161.083 254.037 160.933 253.5 160.646 253.1C160.359 252.7 159.919 252.5 159.326 252.5C158.739 252.5 158.299 252.7 158.006 253.1C157.719 253.5 157.569 254.037 157.556 254.71C157.556 254.89 157.553 255.067 157.546 255.24C157.546 255.407 157.546 255.577 157.546 255.75C157.553 255.917 157.556 256.097 157.556 256.29C157.569 256.977 157.719 257.517 158.006 257.91C158.299 258.303 158.739 258.5 159.326 258.5ZM163.938 259C163.878 259 163.828 258.98 163.788 258.94C163.755 258.893 163.738 258.84 163.738 258.78C163.738 258.76 163.745 258.73 163.758 258.69L166.328 252.6H162.918C162.852 252.6 162.798 252.58 162.758 252.54C162.718 252.5 162.698 252.447 162.698 252.38V252.23C162.698 252.157 162.718 252.1 162.758 252.06C162.798 252.02 162.852 252 162.918 252H166.778C166.852 252 166.908 252.02 166.948 252.06C166.988 252.1 167.008 252.157 167.008 252.23V252.38C167.008 252.46 167.002 252.527 166.988 252.58C166.982 252.627 166.965 252.683 166.938 252.75L164.408 258.75C164.382 258.803 164.348 258.86 164.308 258.92C164.275 258.973 164.222 259 164.148 259H163.938Z" fill="#9D9D9D"/>
<path d="M187.76 259C187.693 259 187.64 258.98 187.6 258.94C187.56 258.9 187.54 258.847 187.54 258.78V252.82L185.75 254.2C185.697 254.24 185.64 254.257 185.58 254.25C185.527 254.243 185.48 254.213 185.44 254.16L185.33 254.02C185.29 253.967 185.273 253.913 185.28 253.86C185.287 253.8 185.317 253.75 185.37 253.71L187.5 252.07C187.547 252.037 187.59 252.017 187.63 252.01C187.67 252.003 187.713 252 187.76 252H187.95C188.017 252 188.07 252.02 188.11 252.06C188.15 252.1 188.17 252.153 188.17 252.22V258.78C188.17 258.847 188.15 258.9 188.11 258.94C188.07 258.98 188.017 259 187.95 259H187.76ZM190.994 259C190.934 259 190.884 258.98 190.844 258.94C190.811 258.893 190.794 258.84 190.794 258.78C190.794 258.747 190.801 258.72 190.814 258.7C190.828 258.68 190.838 258.663 190.844 258.65L192.424 256.43C192.224 256.483 192.008 256.51 191.774 256.51C191.374 256.51 191.024 256.443 190.724 256.31C190.431 256.177 190.184 256 189.984 255.78C189.791 255.553 189.644 255.307 189.544 255.04C189.451 254.767 189.404 254.49 189.404 254.21C189.404 253.93 189.451 253.653 189.544 253.38C189.644 253.107 189.791 252.86 189.984 252.64C190.184 252.413 190.431 252.233 190.724 252.1C191.024 251.967 191.374 251.9 191.774 251.9C192.174 251.9 192.521 251.967 192.814 252.1C193.114 252.233 193.364 252.413 193.564 252.64C193.764 252.86 193.911 253.107 194.004 253.38C194.104 253.653 194.154 253.93 194.154 254.21C194.154 254.47 194.121 254.707 194.054 254.92C193.988 255.133 193.908 255.32 193.814 255.48C193.728 255.64 193.644 255.777 193.564 255.89L191.504 258.8C191.478 258.833 191.441 258.877 191.394 258.93C191.354 258.977 191.288 259 191.194 259H190.994ZM191.774 255.91C192.088 255.91 192.378 255.84 192.644 255.7C192.911 255.56 193.124 255.363 193.284 255.11C193.444 254.857 193.524 254.557 193.524 254.21C193.524 253.857 193.444 253.553 193.284 253.3C193.124 253.047 192.911 252.85 192.644 252.71C192.378 252.57 192.088 252.5 191.774 252.5C191.461 252.5 191.171 252.57 190.904 252.71C190.644 252.85 190.434 253.047 190.274 253.3C190.114 253.553 190.034 253.857 190.034 254.21C190.034 254.557 190.114 254.857 190.274 255.11C190.434 255.363 190.644 255.56 190.904 255.7C191.171 255.84 191.461 255.91 191.774 255.91ZM194.954 259C194.887 259 194.834 258.98 194.794 258.94C194.754 258.9 194.734 258.847 194.734 258.78V258.3C194.734 258.233 194.754 258.18 194.794 258.14C194.834 258.093 194.887 258.07 194.954 258.07H195.434C195.501 258.07 195.554 258.093 195.594 258.14C195.641 258.18 195.664 258.233 195.664 258.3V258.78C195.664 258.847 195.641 258.9 195.594 258.94C195.554 258.98 195.501 259 195.434 259H194.954ZM199.281 259.1C198.828 259.1 198.448 259.027 198.141 258.88C197.841 258.733 197.598 258.533 197.411 258.28C197.231 258.02 197.101 257.723 197.021 257.39C196.941 257.057 196.895 256.707 196.881 256.34C196.881 256.16 196.878 255.977 196.871 255.79C196.871 255.603 196.871 255.417 196.871 255.23C196.878 255.037 196.881 254.847 196.881 254.66C196.888 254.293 196.931 253.943 197.011 253.61C197.098 253.277 197.231 252.983 197.411 252.73C197.598 252.47 197.841 252.267 198.141 252.12C198.448 251.973 198.828 251.9 199.281 251.9C199.735 251.9 200.111 251.973 200.411 252.12C200.718 252.267 200.961 252.47 201.141 252.73C201.328 252.983 201.461 253.277 201.541 253.61C201.628 253.943 201.675 254.293 201.681 254.66C201.688 254.847 201.691 255.037 201.691 255.23C201.691 255.417 201.691 255.603 201.691 255.79C201.691 255.977 201.688 256.16 201.681 256.34C201.675 256.707 201.628 257.057 201.541 257.39C201.461 257.723 201.328 258.02 201.141 258.28C200.961 258.533 200.718 258.733 200.411 258.88C200.111 259.027 199.735 259.1 199.281 259.1ZM199.281 258.5C199.875 258.5 200.315 258.303 200.601 257.91C200.888 257.517 201.038 256.977 201.051 256.29C201.058 256.097 201.061 255.917 201.061 255.75C201.061 255.577 201.061 255.407 201.061 255.24C201.061 255.067 201.058 254.89 201.051 254.71C201.038 254.037 200.888 253.5 200.601 253.1C200.315 252.7 199.875 252.5 199.281 252.5C198.695 252.5 198.255 252.7 197.961 253.1C197.675 253.5 197.525 254.037 197.511 254.71C197.511 254.89 197.508 255.067 197.501 255.24C197.501 255.407 197.501 255.577 197.501 255.75C197.508 255.917 197.511 256.097 197.511 256.29C197.525 256.977 197.675 257.517 197.961 257.91C198.255 258.303 198.695 258.5 199.281 258.5ZM203.893 259C203.833 259 203.783 258.98 203.743 258.94C203.71 258.893 203.693 258.84 203.693 258.78C203.693 258.76 203.7 258.73 203.713 258.69L206.283 252.6H202.873C202.807 252.6 202.753 252.58 202.713 252.54C202.673 252.5 202.653 252.447 202.653 252.38V252.23C202.653 252.157 202.673 252.1 202.713 252.06C202.753 252.02 202.807 252 202.873 252H206.733C206.807 252 206.863 252.02 206.903 252.06C206.943 252.1 206.963 252.157 206.963 252.23V252.38C206.963 252.46 206.957 252.527 206.943 252.58C206.937 252.627 206.92 252.683 206.893 252.75L204.363 258.75C204.337 258.803 204.303 258.86 204.263 258.92C204.23 258.973 204.177 259 204.103 259H203.893Z" fill="#9D9D9D"/>
<path d="M225.74 259C225.673 259 225.62 258.98 225.58 258.94C225.54 258.9 225.52 258.847 225.52 258.78V258.63C225.52 258.563 225.537 258.5 225.57 258.44C225.61 258.373 225.677 258.297 225.77 258.21L228.36 255.62C228.613 255.387 228.807 255.183 228.94 255.01C229.073 254.837 229.163 254.667 229.21 254.5C229.263 254.327 229.29 254.137 229.29 253.93C229.29 253.483 229.16 253.133 228.9 252.88C228.647 252.627 228.283 252.5 227.81 252.5C227.51 252.5 227.25 252.56 227.03 252.68C226.81 252.8 226.637 252.97 226.51 253.19C226.383 253.403 226.3 253.653 226.26 253.94C226.253 254.02 226.223 254.08 226.17 254.12C226.117 254.153 226.07 254.17 226.03 254.17H225.83C225.763 254.17 225.71 254.153 225.67 254.12C225.637 254.08 225.62 254.033 225.62 253.98C225.627 253.753 225.673 253.52 225.76 253.28C225.847 253.033 225.977 252.807 226.15 252.6C226.33 252.393 226.557 252.227 226.83 252.1C227.103 251.967 227.43 251.9 227.81 251.9C228.317 251.9 228.723 251.997 229.03 252.19C229.343 252.383 229.57 252.633 229.71 252.94C229.85 253.247 229.92 253.577 229.92 253.93C229.92 254.203 229.88 254.457 229.8 254.69C229.72 254.917 229.6 255.14 229.44 255.36C229.28 255.573 229.077 255.793 228.83 256.02L226.49 258.4H229.84C229.913 258.4 229.97 258.42 230.01 258.46C230.05 258.5 230.07 258.557 230.07 258.63V258.78C230.07 258.847 230.05 258.9 230.01 258.94C229.97 258.98 229.913 259 229.84 259H225.74ZM233.676 259.1C233.222 259.1 232.842 259.027 232.536 258.88C232.236 258.733 231.992 258.533 231.806 258.28C231.626 258.02 231.496 257.723 231.416 257.39C231.336 257.057 231.289 256.707 231.276 256.34C231.276 256.16 231.272 255.977 231.266 255.79C231.266 255.603 231.266 255.417 231.266 255.23C231.272 255.037 231.276 254.847 231.276 254.66C231.282 254.293 231.326 253.943 231.406 253.61C231.492 253.277 231.626 252.983 231.806 252.73C231.992 252.47 232.236 252.267 232.536 252.12C232.842 251.973 233.222 251.9 233.676 251.9C234.129 251.9 234.506 251.973 234.806 252.12C235.112 252.267 235.356 252.47 235.536 252.73C235.722 252.983 235.856 253.277 235.936 253.61C236.022 253.943 236.069 254.293 236.076 254.66C236.082 254.847 236.086 255.037 236.086 255.23C236.086 255.417 236.086 255.603 236.086 255.79C236.086 255.977 236.082 256.16 236.076 256.34C236.069 256.707 236.022 257.057 235.936 257.39C235.856 257.723 235.722 258.02 235.536 258.28C235.356 258.533 235.112 258.733 234.806 258.88C234.506 259.027 234.129 259.1 233.676 259.1ZM233.676 258.5C234.269 258.5 234.709 258.303 234.996 257.91C235.282 257.517 235.432 256.977 235.446 256.29C235.452 256.097 235.456 255.917 235.456 255.75C235.456 255.577 235.456 255.407 235.456 255.24C235.456 255.067 235.452 254.89 235.446 254.71C235.432 254.037 235.282 253.5 234.996 253.1C234.709 252.7 234.269 252.5 233.676 252.5C233.089 252.5 232.649 252.7 232.356 253.1C232.069 253.5 231.919 254.037 231.906 254.71C231.906 254.89 231.902 255.067 231.896 255.24C231.896 255.407 231.896 255.577 231.896 255.75C231.902 255.917 231.906 256.097 231.906 256.29C231.919 256.977 232.069 257.517 232.356 257.91C232.649 258.303 233.089 258.5 233.676 258.5ZM237.522 259C237.456 259 237.402 258.98 237.362 258.94C237.322 258.9 237.302 258.847 237.302 258.78V258.3C237.302 258.233 237.322 258.18 237.362 258.14C237.402 258.093 237.456 258.07 237.522 258.07H238.002C238.069 258.07 238.122 258.093 238.162 258.14C238.209 258.18 238.232 258.233 238.232 258.3V258.78C238.232 258.847 238.209 258.9 238.162 258.94C238.122 258.98 238.069 259 238.002 259H237.522ZM241.85 259.1C241.396 259.1 241.016 259.027 240.71 258.88C240.41 258.733 240.166 258.533 239.98 258.28C239.8 258.02 239.67 257.723 239.59 257.39C239.51 257.057 239.463 256.707 239.45 256.34C239.45 256.16 239.446 255.977 239.44 255.79C239.44 255.603 239.44 255.417 239.44 255.23C239.446 255.037 239.45 254.847 239.45 254.66C239.456 254.293 239.5 253.943 239.58 253.61C239.666 253.277 239.8 252.983 239.98 252.73C240.166 252.47 240.41 252.267 240.71 252.12C241.016 251.973 241.396 251.9 241.85 251.9C242.303 251.9 242.68 251.973 242.98 252.12C243.286 252.267 243.53 252.47 243.71 252.73C243.896 252.983 244.03 253.277 244.11 253.61C244.196 253.943 244.243 254.293 244.25 254.66C244.256 254.847 244.26 255.037 244.26 255.23C244.26 255.417 244.26 255.603 244.26 255.79C244.26 255.977 244.256 256.16 244.25 256.34C244.243 256.707 244.196 257.057 244.11 257.39C244.03 257.723 243.896 258.02 243.71 258.28C243.53 258.533 243.286 258.733 242.98 258.88C242.68 259.027 242.303 259.1 241.85 259.1ZM241.85 258.5C242.443 258.5 242.883 258.303 243.17 257.91C243.456 257.517 243.606 256.977 243.62 256.29C243.626 256.097 243.63 255.917 243.63 255.75C243.63 255.577 243.63 255.407 243.63 255.24C243.63 255.067 243.626 254.89 243.62 254.71C243.606 254.037 243.456 253.5 243.17 253.1C242.883 252.7 242.443 252.5 241.85 252.5C241.263 252.5 240.823 252.7 240.53 253.1C240.243 253.5 240.093 254.037 240.08 254.71C240.08 254.89 240.076 255.067 240.07 255.24C240.07 255.407 240.07 255.577 240.07 255.75C240.076 255.917 240.08 256.097 240.08 256.29C240.093 256.977 240.243 257.517 240.53 257.91C240.823 258.303 241.263 258.5 241.85 258.5ZM246.462 259C246.402 259 246.352 258.98 246.312 258.94C246.278 258.893 246.262 258.84 246.262 258.78C246.262 258.76 246.268 258.73 246.282 258.69L248.852 252.6H245.442C245.375 252.6 245.322 252.58 245.282 252.54C245.242 252.5 245.222 252.447 245.222 252.38V252.23C245.222 252.157 245.242 252.1 245.282 252.06C245.322 252.02 245.375 252 245.442 252H249.302C249.375 252 249.432 252.02 249.472 252.06C249.512 252.1 249.532 252.157 249.532 252.23V252.38C249.532 252.46 249.525 252.527 249.512 252.58C249.505 252.627 249.488 252.683 249.462 252.75L246.932 258.75C246.905 258.803 246.872 258.86 246.832 258.92C246.798 258.973 246.745 259 246.672 259H246.462Z" fill="#9D9D9D"/>
<path d="M267.74 259C267.673 259 267.62 258.98 267.58 258.94C267.54 258.9 267.52 258.847 267.52 258.78V258.63C267.52 258.563 267.537 258.5 267.57 258.44C267.61 258.373 267.677 258.297 267.77 258.21L270.36 255.62C270.613 255.387 270.807 255.183 270.94 255.01C271.073 254.837 271.163 254.667 271.21 254.5C271.263 254.327 271.29 254.137 271.29 253.93C271.29 253.483 271.16 253.133 270.9 252.88C270.647 252.627 270.283 252.5 269.81 252.5C269.51 252.5 269.25 252.56 269.03 252.68C268.81 252.8 268.637 252.97 268.51 253.19C268.383 253.403 268.3 253.653 268.26 253.94C268.253 254.02 268.223 254.08 268.17 254.12C268.117 254.153 268.07 254.17 268.03 254.17H267.83C267.763 254.17 267.71 254.153 267.67 254.12C267.637 254.08 267.62 254.033 267.62 253.98C267.627 253.753 267.673 253.52 267.76 253.28C267.847 253.033 267.977 252.807 268.15 252.6C268.33 252.393 268.557 252.227 268.83 252.1C269.103 251.967 269.43 251.9 269.81 251.9C270.317 251.9 270.723 251.997 271.03 252.19C271.343 252.383 271.57 252.633 271.71 252.94C271.85 253.247 271.92 253.577 271.92 253.93C271.92 254.203 271.88 254.457 271.8 254.69C271.72 254.917 271.6 255.14 271.44 255.36C271.28 255.573 271.077 255.793 270.83 256.02L268.49 258.4H271.84C271.913 258.4 271.97 258.42 272.01 258.46C272.05 258.5 272.07 258.557 272.07 258.63V258.78C272.07 258.847 272.05 258.9 272.01 258.94C271.97 258.98 271.913 259 271.84 259H267.74ZM275.356 259C275.289 259 275.236 258.98 275.196 258.94C275.156 258.9 275.136 258.847 275.136 258.78V252.82L273.346 254.2C273.292 254.24 273.236 254.257 273.176 254.25C273.122 254.243 273.076 254.213 273.036 254.16L272.926 254.02C272.886 253.967 272.869 253.913 272.876 253.86C272.882 253.8 272.912 253.75 272.966 253.71L275.096 252.07C275.142 252.037 275.186 252.017 275.226 252.01C275.266 252.003 275.309 252 275.356 252H275.546C275.612 252 275.666 252.02 275.706 252.06C275.746 252.1 275.766 252.153 275.766 252.22V258.78C275.766 258.847 275.746 258.9 275.706 258.94C275.666 258.98 275.612 259 275.546 259H275.356ZM277.53 259C277.463 259 277.41 258.98 277.37 258.94C277.33 258.9 277.31 258.847 277.31 258.78V258.3C277.31 258.233 277.33 258.18 277.37 258.14C277.41 258.093 277.463 258.07 277.53 258.07H278.01C278.077 258.07 278.13 258.093 278.17 258.14C278.217 258.18 278.24 258.233 278.24 258.3V258.78C278.24 258.847 278.217 258.9 278.17 258.94C278.13 258.98 278.077 259 278.01 259H277.53ZM281.857 259.1C281.404 259.1 281.024 259.027 280.717 258.88C280.417 258.733 280.174 258.533 279.987 258.28C279.807 258.02 279.677 257.723 279.597 257.39C279.517 257.057 279.471 256.707 279.457 256.34C279.457 256.16 279.454 255.977 279.447 255.79C279.447 255.603 279.447 255.417 279.447 255.23C279.454 255.037 279.457 254.847 279.457 254.66C279.464 254.293 279.507 253.943 279.587 253.61C279.674 253.277 279.807 252.983 279.987 252.73C280.174 252.47 280.417 252.267 280.717 252.12C281.024 251.973 281.404 251.9 281.857 251.9C282.311 251.9 282.687 251.973 282.987 252.12C283.294 252.267 283.537 252.47 283.717 252.73C283.904 252.983 284.037 253.277 284.117 253.61C284.204 253.943 284.251 254.293 284.257 254.66C284.264 254.847 284.267 255.037 284.267 255.23C284.267 255.417 284.267 255.603 284.267 255.79C284.267 255.977 284.264 256.16 284.257 256.34C284.251 256.707 284.204 257.057 284.117 257.39C284.037 257.723 283.904 258.02 283.717 258.28C283.537 258.533 283.294 258.733 282.987 258.88C282.687 259.027 282.311 259.1 281.857 259.1ZM281.857 258.5C282.451 258.5 282.891 258.303 283.177 257.91C283.464 257.517 283.614 256.977 283.627 256.29C283.634 256.097 283.637 255.917 283.637 255.75C283.637 255.577 283.637 255.407 283.637 255.24C283.637 255.067 283.634 254.89 283.627 254.71C283.614 254.037 283.464 253.5 283.177 253.1C282.891 252.7 282.451 252.5 281.857 252.5C281.271 252.5 280.831 252.7 280.537 253.1C280.251 253.5 280.101 254.037 280.087 254.71C280.087 254.89 280.084 255.067 280.077 255.24C280.077 255.407 280.077 255.577 280.077 255.75C280.084 255.917 280.087 256.097 280.087 256.29C280.101 256.977 280.251 257.517 280.537 257.91C280.831 258.303 281.271 258.5 281.857 258.5ZM286.469 259C286.409 259 286.359 258.98 286.319 258.94C286.286 258.893 286.269 258.84 286.269 258.78C286.269 258.76 286.276 258.73 286.289 258.69L288.859 252.6H285.449C285.383 252.6 285.329 252.58 285.289 252.54C285.249 252.5 285.229 252.447 285.229 252.38V252.23C285.229 252.157 285.249 252.1 285.289 252.06C285.329 252.02 285.383 252 285.449 252H289.309C289.383 252 289.439 252.02 289.479 252.06C289.519 252.1 289.539 252.157 289.539 252.23V252.38C289.539 252.46 289.533 252.527 289.519 252.58C289.513 252.627 289.496 252.683 289.469 252.75L286.939 258.75C286.913 258.803 286.879 258.86 286.839 258.92C286.806 258.973 286.753 259 286.679 259H286.469Z" fill="#9D9D9D"/>
<path d="M307.74 259C307.673 259 307.62 258.98 307.58 258.94C307.54 258.9 307.52 258.847 307.52 258.78V258.63C307.52 258.563 307.537 258.5 307.57 258.44C307.61 258.373 307.677 258.297 307.77 258.21L310.36 255.62C310.613 255.387 310.807 255.183 310.94 255.01C311.073 254.837 311.163 254.667 311.21 254.5C311.263 254.327 311.29 254.137 311.29 253.93C311.29 253.483 311.16 253.133 310.9 252.88C310.647 252.627 310.283 252.5 309.81 252.5C309.51 252.5 309.25 252.56 309.03 252.68C308.81 252.8 308.637 252.97 308.51 253.19C308.383 253.403 308.3 253.653 308.26 253.94C308.253 254.02 308.223 254.08 308.17 254.12C308.117 254.153 308.07 254.17 308.03 254.17H307.83C307.763 254.17 307.71 254.153 307.67 254.12C307.637 254.08 307.62 254.033 307.62 253.98C307.627 253.753 307.673 253.52 307.76 253.28C307.847 253.033 307.977 252.807 308.15 252.6C308.33 252.393 308.557 252.227 308.83 252.1C309.103 251.967 309.43 251.9 309.81 251.9C310.317 251.9 310.723 251.997 311.03 252.19C311.343 252.383 311.57 252.633 311.71 252.94C311.85 253.247 311.92 253.577 311.92 253.93C311.92 254.203 311.88 254.457 311.8 254.69C311.72 254.917 311.6 255.14 311.44 255.36C311.28 255.573 311.077 255.793 310.83 256.02L308.49 258.4H311.84C311.913 258.4 311.97 258.42 312.01 258.46C312.05 258.5 312.07 258.557 312.07 258.63V258.78C312.07 258.847 312.05 258.9 312.01 258.94C311.97 258.98 311.913 259 311.84 259H307.74ZM313.336 259C313.269 259 313.216 258.98 313.176 258.94C313.136 258.9 313.116 258.847 313.116 258.78V258.63C313.116 258.563 313.132 258.5 313.166 258.44C313.206 258.373 313.272 258.297 313.366 258.21L315.956 255.62C316.209 255.387 316.402 255.183 316.536 255.01C316.669 254.837 316.759 254.667 316.806 254.5C316.859 254.327 316.886 254.137 316.886 253.93C316.886 253.483 316.756 253.133 316.496 252.88C316.242 252.627 315.879 252.5 315.406 252.5C315.106 252.5 314.846 252.56 314.626 252.68C314.406 252.8 314.232 252.97 314.106 253.19C313.979 253.403 313.896 253.653 313.856 253.94C313.849 254.02 313.819 254.08 313.766 254.12C313.712 254.153 313.666 254.17 313.626 254.17H313.426C313.359 254.17 313.306 254.153 313.266 254.12C313.232 254.08 313.216 254.033 313.216 253.98C313.222 253.753 313.269 253.52 313.356 253.28C313.442 253.033 313.572 252.807 313.746 252.6C313.926 252.393 314.152 252.227 314.426 252.1C314.699 251.967 315.026 251.9 315.406 251.9C315.912 251.9 316.319 251.997 316.626 252.19C316.939 252.383 317.166 252.633 317.306 252.94C317.446 253.247 317.516 253.577 317.516 253.93C317.516 254.203 317.476 254.457 317.396 254.69C317.316 254.917 317.196 255.14 317.036 255.36C316.876 255.573 316.672 255.793 316.426 256.02L314.086 258.4H317.436C317.509 258.4 317.566 258.42 317.606 258.46C317.646 258.5 317.666 258.557 317.666 258.63V258.78C317.666 258.847 317.646 258.9 317.606 258.94C317.566 258.98 317.509 259 317.436 259H313.336ZM319.141 259C319.075 259 319.021 258.98 318.981 258.94C318.941 258.9 318.921 258.847 318.921 258.78V258.3C318.921 258.233 318.941 258.18 318.981 258.14C319.021 258.093 319.075 258.07 319.141 258.07H319.621C319.688 258.07 319.741 258.093 319.781 258.14C319.828 258.18 319.851 258.233 319.851 258.3V258.78C319.851 258.847 319.828 258.9 319.781 258.94C319.741 258.98 319.688 259 319.621 259H319.141ZM323.469 259.1C323.015 259.1 322.635 259.027 322.329 258.88C322.029 258.733 321.785 258.533 321.599 258.28C321.419 258.02 321.289 257.723 321.209 257.39C321.129 257.057 321.082 256.707 321.069 256.34C321.069 256.16 321.065 255.977 321.059 255.79C321.059 255.603 321.059 255.417 321.059 255.23C321.065 255.037 321.069 254.847 321.069 254.66C321.075 254.293 321.119 253.943 321.199 253.61C321.285 253.277 321.419 252.983 321.599 252.73C321.785 252.47 322.029 252.267 322.329 252.12C322.635 251.973 323.015 251.9 323.469 251.9C323.922 251.9 324.299 251.973 324.599 252.12C324.905 252.267 325.149 252.47 325.329 252.73C325.515 252.983 325.649 253.277 325.729 253.61C325.815 253.943 325.862 254.293 325.869 254.66C325.875 254.847 325.879 255.037 325.879 255.23C325.879 255.417 325.879 255.603 325.879 255.79C325.879 255.977 325.875 256.16 325.869 256.34C325.862 256.707 325.815 257.057 325.729 257.39C325.649 257.723 325.515 258.02 325.329 258.28C325.149 258.533 324.905 258.733 324.599 258.88C324.299 259.027 323.922 259.1 323.469 259.1ZM323.469 258.5C324.062 258.5 324.502 258.303 324.789 257.91C325.075 257.517 325.225 256.977 325.239 256.29C325.245 256.097 325.249 255.917 325.249 255.75C325.249 255.577 325.249 255.407 325.249 255.24C325.249 255.067 325.245 254.89 325.239 254.71C325.225 254.037 325.075 253.5 324.789 253.1C324.502 252.7 324.062 252.5 323.469 252.5C322.882 252.5 322.442 252.7 322.149 253.1C321.862 253.5 321.712 254.037 321.699 254.71C321.699 254.89 321.695 255.067 321.689 255.24C321.689 255.407 321.689 255.577 321.689 255.75C321.695 255.917 321.699 256.097 321.699 256.29C321.712 256.977 321.862 257.517 322.149 257.91C322.442 258.303 322.882 258.5 323.469 258.5ZM328.081 259C328.021 259 327.971 258.98 327.931 258.94C327.897 258.893 327.881 258.84 327.881 258.78C327.881 258.76 327.887 258.73 327.901 258.69L330.471 252.6H327.061C326.994 252.6 326.941 252.58 326.901 252.54C326.861 252.5 326.841 252.447 326.841 252.38V252.23C326.841 252.157 326.861 252.1 326.901 252.06C326.941 252.02 326.994 252 327.061 252H330.921C330.994 252 331.051 252.02 331.091 252.06C331.131 252.1 331.151 252.157 331.151 252.23V252.38C331.151 252.46 331.144 252.527 331.131 252.58C331.124 252.627 331.107 252.683 331.081 252.75L328.551 258.75C328.524 258.803 328.491 258.86 328.451 258.92C328.417 258.973 328.364 259 328.291 259H328.081Z" fill="#9D9D9D"/>
<path fill-rule="evenodd" clip-rule="evenodd" d="M117 85C119.209 85 121 83.2091 121 81C121 78.7909 119.209 77 117 77C114.791 77 113 78.7909 113 81C113 83.2091 114.791 85 117 85ZM116.651 83.4329C116.679 83.4606 116.712 83.4745 116.752 83.4745H117.244C117.288 83.4745 117.321 83.4606 117.345 83.4329C117.373 83.4053 117.387 83.3716 117.387 83.3321V80.5321C117.387 80.4925 117.373 80.4589 117.345 80.4312C117.321 80.4036 117.288 80.3897 117.244 80.3897H116.752C116.712 80.3897 116.679 80.4036 116.651 80.4312C116.623 80.4589 116.609 80.4925 116.609 80.5321V83.3321C116.609 83.3716 116.623 83.4053 116.651 83.4329ZM116.621 79.8439C116.649 79.8677 116.685 79.8795 116.728 79.8795H117.268C117.311 79.8795 117.347 79.8677 117.375 79.8439C117.402 79.8163 117.416 79.7807 117.416 79.7372V79.3101C117.416 79.2705 117.402 79.2369 117.375 79.2092C117.347 79.1815 117.311 79.1677 117.268 79.1677H116.728C116.685 79.1677 116.649 79.1815 116.621 79.2092C116.598 79.2369 116.586 79.2705 116.586 79.3101V79.7372C116.586 79.7807 116.598 79.8163 116.621 79.8439Z" fill="#9D9D9D"/>
<path d="M81.54 88C81.4373 88 81.358 87.972 81.302 87.916C81.246 87.8507 81.218 87.7713 81.218 87.678V78.536C81.218 78.4333 81.246 78.354 81.302 78.298C81.358 78.2327 81.4373 78.2 81.54 78.2H84.956C86.0107 78.2 86.846 78.4473 87.462 78.942C88.078 79.4367 88.386 80.1693 88.386 81.14C88.386 81.8587 88.204 82.4467 87.84 82.904C87.4853 83.352 87 83.6647 86.384 83.842L88.54 87.566C88.568 87.622 88.582 87.6733 88.582 87.72C88.582 87.7947 88.5493 87.86 88.484 87.916C88.428 87.972 88.3627 88 88.288 88H87.616C87.4573 88 87.3407 87.958 87.266 87.874C87.1913 87.79 87.126 87.706 87.07 87.622L85.04 84.066H82.59V87.678C82.59 87.7713 82.5573 87.8507 82.492 87.916C82.436 87.972 82.3567 88 82.254 88H81.54ZM82.59 82.876H84.9C85.6 82.876 86.1227 82.7313 86.468 82.442C86.8133 82.1433 86.986 81.7047 86.986 81.126C86.986 80.5567 86.8133 80.1227 86.468 79.824C86.132 79.5253 85.6093 79.376 84.9 79.376H82.59V82.876ZM93.8922 88.14C93.0988 88.14 92.4175 88.0047 91.8482 87.734C91.2788 87.454 90.8402 87.0293 90.5322 86.46C90.2242 85.8813 90.0515 85.158 90.0142 84.29C90.0048 83.8793 90.0002 83.4873 90.0002 83.114C90.0002 82.7313 90.0048 82.3347 90.0142 81.924C90.0515 81.0653 90.2288 80.3513 90.5462 79.782C90.8728 79.2033 91.3208 78.774 91.8902 78.494C92.4688 78.2047 93.1362 78.06 93.8922 78.06C94.6575 78.06 95.3248 78.2047 95.8942 78.494C96.4728 78.774 96.9255 79.2033 97.2522 79.782C97.5788 80.3513 97.7562 81.0653 97.7842 81.924C97.8028 82.3347 97.8122 82.7313 97.8122 83.114C97.8122 83.4873 97.8028 83.8793 97.7842 84.29C97.7562 85.158 97.5835 85.8813 97.2662 86.46C96.9582 87.0293 96.5195 87.454 95.9502 87.734C95.3808 88.0047 94.6948 88.14 93.8922 88.14ZM93.8922 86.95C94.6108 86.95 95.1942 86.7353 95.6422 86.306C96.0995 85.8767 96.3468 85.1813 96.3842 84.22C96.4028 83.8 96.4122 83.4267 96.4122 83.1C96.4122 82.764 96.4028 82.3907 96.3842 81.98C96.3655 81.336 96.2442 80.8133 96.0202 80.412C95.8055 80.0107 95.5162 79.7167 95.1522 79.53C94.7882 79.3433 94.3682 79.25 93.8922 79.25C93.4348 79.25 93.0242 79.3433 92.6602 79.53C92.2962 79.7167 92.0022 80.0107 91.7782 80.412C91.5635 80.8133 91.4422 81.336 91.4142 81.98C91.4048 82.3907 91.4002 82.764 91.4002 83.1C91.4002 83.4267 91.4048 83.8 91.4142 84.22C91.4515 85.1813 91.6988 85.8767 92.1562 86.306C92.6135 86.7353 93.1922 86.95 93.8922 86.95ZM100.175 88C100.072 88 99.9928 87.972 99.9368 87.916C99.8808 87.8507 99.8528 87.7713 99.8528 87.678V78.536C99.8528 78.4333 99.8808 78.354 99.9368 78.298C99.9928 78.2327 100.072 78.2 100.175 78.2H105.957C106.059 78.2 106.139 78.2327 106.195 78.298C106.251 78.354 106.279 78.4333 106.279 78.536V79.068C106.279 79.1707 106.251 79.25 106.195 79.306C106.139 79.362 106.059 79.39 105.957 79.39H101.197V82.456H105.649C105.751 82.456 105.831 82.4887 105.887 82.554C105.943 82.61 105.971 82.6893 105.971 82.792V83.31C105.971 83.4033 105.943 83.4827 105.887 83.548C105.831 83.604 105.751 83.632 105.649 83.632H101.197V86.81H106.069C106.171 86.81 106.251 86.838 106.307 86.894C106.363 86.95 106.391 87.0293 106.391 87.132V87.678C106.391 87.7713 106.363 87.8507 106.307 87.916C106.251 87.972 106.171 88 106.069 88H100.175Z" fill="#9D9D9D"/>
<path d="M83.0393 111C82.9726 111 82.9193 110.98 82.8793 110.94C82.8393 110.9 82.8193 110.847 82.8193 110.78V104.82L81.0293 106.2C80.976 106.24 80.9193 106.257 80.8593 106.25C80.806 106.243 80.7593 106.213 80.7193 106.16L80.6093 106.02C80.5693 105.967 80.5526 105.913 80.5593 105.86C80.566 105.8 80.596 105.75 80.6493 105.71L82.7793 104.07C82.826 104.037 82.8693 104.017 82.9093 104.01C82.9493 104.003 82.9926 104 83.0393 104H83.2293C83.296 104 83.3493 104.02 83.3893 104.06C83.4293 104.1 83.4493 104.153 83.4493 104.22V110.78C83.4493 110.847 83.4293 110.9 83.3893 110.94C83.3493 110.98 83.296 111 83.2293 111H83.0393ZM87.3437 111.1C86.8903 111.1 86.5103 111.027 86.2037 110.88C85.9037 110.733 85.6603 110.533 85.4737 110.28C85.2937 110.02 85.1637 109.723 85.0837 109.39C85.0037 109.057 84.957 108.707 84.9437 108.34C84.9437 108.16 84.9403 107.977 84.9337 107.79C84.9337 107.603 84.9337 107.417 84.9337 107.23C84.9403 107.037 84.9437 106.847 84.9437 106.66C84.9503 106.293 84.9937 105.943 85.0737 105.61C85.1603 105.277 85.2937 104.983 85.4737 104.73C85.6603 104.47 85.9037 104.267 86.2037 104.12C86.5103 103.973 86.8903 103.9 87.3437 103.9C87.797 103.9 88.1737 103.973 88.4737 104.12C88.7803 104.267 89.0237 104.47 89.2037 104.73C89.3903 104.983 89.5237 105.277 89.6037 105.61C89.6903 105.943 89.737 106.293 89.7437 106.66C89.7503 106.847 89.7537 107.037 89.7537 107.23C89.7537 107.417 89.7537 107.603 89.7537 107.79C89.7537 107.977 89.7503 108.16 89.7437 108.34C89.737 108.707 89.6903 109.057 89.6037 109.39C89.5237 109.723 89.3903 110.02 89.2037 110.28C89.0237 110.533 88.7803 110.733 88.4737 110.88C88.1737 111.027 87.797 111.1 87.3437 111.1ZM87.3437 110.5C87.937 110.5 88.377 110.303 88.6637 109.91C88.9503 109.517 89.1003 108.977 89.1137 108.29C89.1203 108.097 89.1237 107.917 89.1237 107.75C89.1237 107.577 89.1237 107.407 89.1237 107.24C89.1237 107.067 89.1203 106.89 89.1137 106.71C89.1003 106.037 88.9503 105.5 88.6637 105.1C88.377 104.7 87.937 104.5 87.3437 104.5C86.757 104.5 86.317 104.7 86.0237 105.1C85.737 105.5 85.587 106.037 85.5737 106.71C85.5737 106.89 85.5703 107.067 85.5637 107.24C85.5637 107.407 85.5637 107.577 85.5637 107.75C85.5703 107.917 85.5737 108.097 85.5737 108.29C85.587 108.977 85.737 109.517 86.0237 109.91C86.317 110.303 86.757 110.5 87.3437 110.5ZM93.5058 111.1C93.0524 111.1 92.6724 111.027 92.3658 110.88C92.0658 110.733 91.8224 110.533 91.6358 110.28C91.4558 110.02 91.3258 109.723 91.2458 109.39C91.1658 109.057 91.1191 108.707 91.1058 108.34C91.1058 108.16 91.1024 107.977 91.0958 107.79C91.0958 107.603 91.0958 107.417 91.0958 107.23C91.1024 107.037 91.1058 106.847 91.1058 106.66C91.1124 106.293 91.1558 105.943 91.2358 105.61C91.3224 105.277 91.4558 104.983 91.6358 104.73C91.8224 104.47 92.0658 104.267 92.3658 104.12C92.6724 103.973 93.0524 103.9 93.5058 103.9C93.9591 103.9 94.3358 103.973 94.6358 104.12C94.9424 104.267 95.1858 104.47 95.3658 104.73C95.5524 104.983 95.6858 105.277 95.7658 105.61C95.8524 105.943 95.8991 106.293 95.9058 106.66C95.9124 106.847 95.9158 107.037 95.9158 107.23C95.9158 107.417 95.9158 107.603 95.9158 107.79C95.9158 107.977 95.9124 108.16 95.9058 108.34C95.8991 108.707 95.8524 109.057 95.7658 109.39C95.6858 109.723 95.5524 110.02 95.3658 110.28C95.1858 110.533 94.9424 110.733 94.6358 110.88C94.3358 111.027 93.9591 111.1 93.5058 111.1ZM93.5058 110.5C94.0991 110.5 94.5391 110.303 94.8258 109.91C95.1124 109.517 95.2624 108.977 95.2758 108.29C95.2824 108.097 95.2858 107.917 95.2858 107.75C95.2858 107.577 95.2858 107.407 95.2858 107.24C95.2858 107.067 95.2824 106.89 95.2758 106.71C95.2624 106.037 95.1124 105.5 94.8258 105.1C94.5391 104.7 94.0991 104.5 93.5058 104.5C92.9191 104.5 92.4791 104.7 92.1858 105.1C91.8991 105.5 91.7491 106.037 91.7358 106.71C91.7358 106.89 91.7324 107.067 91.7258 107.24C91.7258 107.407 91.7258 107.577 91.7258 107.75C91.7324 107.917 91.7358 108.097 91.7358 108.29C91.7491 108.977 91.8991 109.517 92.1858 109.91C92.4791 110.303 92.9191 110.5 93.5058 110.5ZM97.6679 111C97.5346 111 97.4679 110.933 97.4679 110.8C97.4679 110.76 97.4812 110.723 97.5079 110.69L102.438 104.19C102.485 104.13 102.528 104.083 102.568 104.05C102.615 104.017 102.681 104 102.768 104H102.938C103.071 104 103.138 104.067 103.138 104.2C103.138 104.24 103.125 104.277 103.098 104.31L98.1679 110.81C98.1212 110.87 98.0779 110.917 98.0379 110.95C97.9979 110.983 97.9312 111 97.8379 111H97.6679ZM102.058 111.06C101.625 111.06 101.288 110.937 101.048 110.69C100.808 110.437 100.678 110.11 100.658 109.71C100.651 109.537 100.648 109.393 100.648 109.28C100.648 109.16 100.651 109.007 100.658 108.82C100.678 108.42 100.801 108.093 101.028 107.84C101.255 107.587 101.598 107.46 102.058 107.46C102.518 107.46 102.861 107.587 103.088 107.84C103.315 108.093 103.438 108.42 103.458 108.82C103.471 109.007 103.478 109.16 103.478 109.28C103.478 109.393 103.471 109.537 103.458 109.71C103.438 110.11 103.308 110.437 103.068 110.69C102.828 110.937 102.491 111.06 102.058 111.06ZM102.058 110.5C102.258 110.5 102.415 110.46 102.528 110.38C102.648 110.293 102.735 110.187 102.788 110.06C102.841 109.933 102.871 109.807 102.878 109.68C102.891 109.493 102.898 109.353 102.898 109.26C102.898 109.16 102.891 109.023 102.878 108.85C102.871 108.65 102.805 108.463 102.678 108.29C102.558 108.11 102.351 108.02 102.058 108.02C101.765 108.02 101.558 108.11 101.438 108.29C101.318 108.463 101.251 108.65 101.238 108.85C101.231 109.023 101.228 109.16 101.228 109.26C101.228 109.353 101.231 109.493 101.238 109.68C101.251 109.807 101.281 109.933 101.328 110.06C101.381 110.187 101.465 110.293 101.578 110.38C101.698 110.46 101.858 110.5 102.058 110.5ZM98.5279 107.5C98.0946 107.5 97.7579 107.383 97.5179 107.15C97.2779 106.917 97.1479 106.6 97.1279 106.2C97.1212 106.027 97.1179 105.883 97.1179 105.77C97.1179 105.65 97.1212 105.497 97.1279 105.31C97.1479 104.91 97.2712 104.583 97.4979 104.33C97.7246 104.077 98.0679 103.95 98.5279 103.95C98.9879 103.95 99.3312 104.077 99.5579 104.33C99.7846 104.583 99.9079 104.91 99.9279 105.31C99.9412 105.497 99.9479 105.65 99.9479 105.77C99.9479 105.883 99.9412 106.027 99.9279 106.2C99.9079 106.6 99.7779 106.917 99.5379 107.15C99.2979 107.383 98.9612 107.5 98.5279 107.5ZM98.5279 106.99C98.7279 106.99 98.8846 106.95 98.9979 106.87C99.1179 106.783 99.2046 106.677 99.2579 106.55C99.3112 106.423 99.3412 106.297 99.3479 106.17C99.3612 105.983 99.3679 105.843 99.3679 105.75C99.3679 105.65 99.3612 105.513 99.3479 105.34C99.3412 105.14 99.2746 104.953 99.1479 104.78C99.0279 104.6 98.8212 104.51 98.5279 104.51C98.2346 104.51 98.0279 104.6 97.9079 104.78C97.7879 104.953 97.7212 105.14 97.7079 105.34C97.7012 105.513 97.6979 105.65 97.6979 105.75C97.6979 105.843 97.7012 105.983 97.7079 106.17C97.7212 106.297 97.7512 106.423 97.7979 106.55C97.8512 106.677 97.9346 106.783 98.0479 106.87C98.1679 106.95 98.3279 106.99 98.5279 106.99Z" fill="#9D9D9D"/>
<path d="M87.5222 141C87.4622 141 87.4122 140.98 87.3722 140.94C87.3389 140.893 87.3222 140.84 87.3222 140.78C87.3222 140.76 87.3289 140.73 87.3422 140.69L89.9122 134.6H86.5022C86.4355 134.6 86.3822 134.58 86.3422 134.54C86.3022 134.5 86.2822 134.447 86.2822 134.38V134.23C86.2822 134.157 86.3022 134.1 86.3422 134.06C86.3822 134.02 86.4355 134 86.5022 134H90.3622C90.4355 134 90.4922 134.02 90.5322 134.06C90.5722 134.1 90.5922 134.157 90.5922 134.23V134.38C90.5922 134.46 90.5855 134.527 90.5722 134.58C90.5655 134.627 90.5489 134.683 90.5222 134.75L87.9922 140.75C87.9655 140.803 87.9322 140.86 87.8922 140.92C87.8589 140.973 87.8055 141 87.7322 141H87.5222ZM93.6652 141.1C93.1786 141.1 92.7652 141.01 92.4252 140.83C92.0919 140.65 91.8352 140.42 91.6552 140.14C91.4752 139.853 91.3786 139.557 91.3652 139.25C91.3586 139.19 91.3752 139.143 91.4152 139.11C91.4552 139.077 91.5052 139.06 91.5652 139.06H91.7552C91.8086 139.06 91.8552 139.073 91.8952 139.1C91.9419 139.127 91.9786 139.19 92.0052 139.29C92.0786 139.577 92.1986 139.81 92.3652 139.99C92.5386 140.17 92.7386 140.3 92.9652 140.38C93.1919 140.46 93.4252 140.5 93.6652 140.5C93.9919 140.5 94.2886 140.433 94.5552 140.3C94.8286 140.167 95.0452 139.97 95.2052 139.71C95.3652 139.45 95.4452 139.133 95.4452 138.76C95.4452 138.413 95.3652 138.12 95.2052 137.88C95.0452 137.633 94.8286 137.447 94.5552 137.32C94.2886 137.187 93.9919 137.12 93.6652 137.12C93.4186 137.12 93.2152 137.15 93.0552 137.21C92.8952 137.27 92.7619 137.34 92.6552 137.42C92.5486 137.5 92.4519 137.57 92.3652 137.63C92.2786 137.69 92.1819 137.72 92.0752 137.72H91.8952C91.8352 137.72 91.7819 137.7 91.7352 137.66C91.6886 137.613 91.6686 137.56 91.6752 137.5L91.9752 134.23C91.9819 134.157 92.0019 134.1 92.0352 134.06C92.0752 134.02 92.1286 134 92.1952 134H95.4552C95.5219 134 95.5752 134.02 95.6152 134.06C95.6552 134.1 95.6752 134.153 95.6752 134.22V134.38C95.6752 134.447 95.6552 134.5 95.6152 134.54C95.5752 134.58 95.5219 134.6 95.4552 134.6H92.5852L92.3752 136.86C92.4486 136.813 92.5886 136.747 92.7952 136.66C93.0019 136.567 93.2919 136.52 93.6652 136.52C93.9986 136.52 94.3086 136.57 94.5952 136.67C94.8886 136.763 95.1452 136.907 95.3652 137.1C95.5919 137.287 95.7652 137.52 95.8852 137.8C96.0119 138.073 96.0752 138.393 96.0752 138.76C96.0752 139.28 95.9652 139.713 95.7452 140.06C95.5319 140.407 95.2419 140.667 94.8752 140.84C94.5152 141.013 94.1119 141.1 93.6652 141.1ZM97.6679 141C97.5346 141 97.4679 140.933 97.4679 140.8C97.4679 140.76 97.4812 140.723 97.5079 140.69L102.438 134.19C102.485 134.13 102.528 134.083 102.568 134.05C102.615 134.017 102.681 134 102.768 134H102.938C103.071 134 103.138 134.067 103.138 134.2C103.138 134.24 103.125 134.277 103.098 134.31L98.1679 140.81C98.1212 140.87 98.0779 140.917 98.0379 140.95C97.9979 140.983 97.9312 141 97.8379 141H97.6679ZM102.058 141.06C101.625 141.06 101.288 140.937 101.048 140.69C100.808 140.437 100.678 140.11 100.658 139.71C100.651 139.537 100.648 139.393 100.648 139.28C100.648 139.16 100.651 139.007 100.658 138.82C100.678 138.42 100.801 138.093 101.028 137.84C101.255 137.587 101.598 137.46 102.058 137.46C102.518 137.46 102.861 137.587 103.088 137.84C103.315 138.093 103.438 138.42 103.458 138.82C103.471 139.007 103.478 139.16 103.478 139.28C103.478 139.393 103.471 139.537 103.458 139.71C103.438 140.11 103.308 140.437 103.068 140.69C102.828 140.937 102.491 141.06 102.058 141.06ZM102.058 140.5C102.258 140.5 102.415 140.46 102.528 140.38C102.648 140.293 102.735 140.187 102.788 140.06C102.841 139.933 102.871 139.807 102.878 139.68C102.891 139.493 102.898 139.353 102.898 139.26C102.898 139.16 102.891 139.023 102.878 138.85C102.871 138.65 102.805 138.463 102.678 138.29C102.558 138.11 102.351 138.02 102.058 138.02C101.765 138.02 101.558 138.11 101.438 138.29C101.318 138.463 101.251 138.65 101.238 138.85C101.231 139.023 101.228 139.16 101.228 139.26C101.228 139.353 101.231 139.493 101.238 139.68C101.251 139.807 101.281 139.933 101.328 140.06C101.381 140.187 101.465 140.293 101.578 140.38C101.698 140.46 101.858 140.5 102.058 140.5ZM98.5279 137.5C98.0946 137.5 97.7579 137.383 97.5179 137.15C97.2779 136.917 97.1479 136.6 97.1279 136.2C97.1212 136.027 97.1179 135.883 97.1179 135.77C97.1179 135.65 97.1212 135.497 97.1279 135.31C97.1479 134.91 97.2712 134.583 97.4979 134.33C97.7246 134.077 98.0679 133.95 98.5279 133.95C98.9879 133.95 99.3312 134.077 99.5579 134.33C99.7846 134.583 99.9079 134.91 99.9279 135.31C99.9412 135.497 99.9479 135.65 99.9479 135.77C99.9479 135.883 99.9412 136.027 99.9279 136.2C99.9079 136.6 99.7779 136.917 99.5379 137.15C99.2979 137.383 98.9612 137.5 98.5279 137.5ZM98.5279 136.99C98.7279 136.99 98.8846 136.95 98.9979 136.87C99.1179 136.783 99.2046 136.677 99.2579 136.55C99.3112 136.423 99.3412 136.297 99.3479 136.17C99.3612 135.983 99.3679 135.843 99.3679 135.75C99.3679 135.65 99.3612 135.513 99.3479 135.34C99.3412 135.14 99.2746 134.953 99.1479 134.78C99.0279 134.6 98.8212 134.51 98.5279 134.51C98.2346 134.51 98.0279 134.6 97.9079 134.78C97.7879 134.953 97.7212 135.14 97.7079 135.34C97.7012 135.513 97.6979 135.65 97.6979 135.75C97.6979 135.843 97.7012 135.983 97.7079 136.17C97.7212 136.297 97.7512 136.423 97.7979 136.55C97.8512 136.677 97.9346 136.783 98.0479 136.87C98.1679 136.95 98.3279 136.99 98.5279 136.99Z" fill="#9D9D9D"/>
<path d="M87.5031 171.1C87.0165 171.1 86.6031 171.01 86.2631 170.83C85.9298 170.65 85.6731 170.42 85.4931 170.14C85.3131 169.853 85.2165 169.557 85.2031 169.25C85.1965 169.19 85.2131 169.143 85.2531 169.11C85.2931 169.077 85.3431 169.06 85.4031 169.06H85.5931C85.6465 169.06 85.6931 169.073 85.7331 169.1C85.7798 169.127 85.8165 169.19 85.8431 169.29C85.9165 169.577 86.0365 169.81 86.2031 169.99C86.3765 170.17 86.5765 170.3 86.8031 170.38C87.0298 170.46 87.2631 170.5 87.5031 170.5C87.8298 170.5 88.1265 170.433 88.3931 170.3C88.6665 170.167 88.8831 169.97 89.0431 169.71C89.2031 169.45 89.2831 169.133 89.2831 168.76C89.2831 168.413 89.2031 168.12 89.0431 167.88C88.8831 167.633 88.6665 167.447 88.3931 167.32C88.1265 167.187 87.8298 167.12 87.5031 167.12C87.2565 167.12 87.0531 167.15 86.8931 167.21C86.7331 167.27 86.5998 167.34 86.4931 167.42C86.3865 167.5 86.2898 167.57 86.2031 167.63C86.1165 167.69 86.0198 167.72 85.9131 167.72H85.7331C85.6731 167.72 85.6198 167.7 85.5731 167.66C85.5265 167.613 85.5065 167.56 85.5131 167.5L85.8131 164.23C85.8198 164.157 85.8398 164.1 85.8731 164.06C85.9131 164.02 85.9665 164 86.0331 164H89.2931C89.3598 164 89.4131 164.02 89.4531 164.06C89.4931 164.1 89.5131 164.153 89.5131 164.22V164.38C89.5131 164.447 89.4931 164.5 89.4531 164.54C89.4131 164.58 89.3598 164.6 89.2931 164.6H86.4231L86.2131 166.86C86.2865 166.813 86.4265 166.747 86.6331 166.66C86.8398 166.567 87.1298 166.52 87.5031 166.52C87.8365 166.52 88.1465 166.57 88.4331 166.67C88.7265 166.763 88.9831 166.907 89.2031 167.1C89.4298 167.287 89.6031 167.52 89.7231 167.8C89.8498 168.073 89.9131 168.393 89.9131 168.76C89.9131 169.28 89.8031 169.713 89.5831 170.06C89.3698 170.407 89.0798 170.667 88.7131 170.84C88.3531 171.013 87.9498 171.1 87.5031 171.1ZM93.5058 171.1C93.0524 171.1 92.6724 171.027 92.3658 170.88C92.0658 170.733 91.8224 170.533 91.6358 170.28C91.4558 170.02 91.3258 169.723 91.2458 169.39C91.1658 169.057 91.1191 168.707 91.1058 168.34C91.1058 168.16 91.1024 167.977 91.0958 167.79C91.0958 167.603 91.0958 167.417 91.0958 167.23C91.1024 167.037 91.1058 166.847 91.1058 166.66C91.1124 166.293 91.1558 165.943 91.2358 165.61C91.3224 165.277 91.4558 164.983 91.6358 164.73C91.8224 164.47 92.0658 164.267 92.3658 164.12C92.6724 163.973 93.0524 163.9 93.5058 163.9C93.9591 163.9 94.3358 163.973 94.6358 164.12C94.9424 164.267 95.1858 164.47 95.3658 164.73C95.5524 164.983 95.6858 165.277 95.7658 165.61C95.8524 165.943 95.8991 166.293 95.9058 166.66C95.9124 166.847 95.9158 167.037 95.9158 167.23C95.9158 167.417 95.9158 167.603 95.9158 167.79C95.9158 167.977 95.9124 168.16 95.9058 168.34C95.8991 168.707 95.8524 169.057 95.7658 169.39C95.6858 169.723 95.5524 170.02 95.3658 170.28C95.1858 170.533 94.9424 170.733 94.6358 170.88C94.3358 171.027 93.9591 171.1 93.5058 171.1ZM93.5058 170.5C94.0991 170.5 94.5391 170.303 94.8258 169.91C95.1124 169.517 95.2624 168.977 95.2758 168.29C95.2824 168.097 95.2858 167.917 95.2858 167.75C95.2858 167.577 95.2858 167.407 95.2858 167.24C95.2858 167.067 95.2824 166.89 95.2758 166.71C95.2624 166.037 95.1124 165.5 94.8258 165.1C94.5391 164.7 94.0991 164.5 93.5058 164.5C92.9191 164.5 92.4791 164.7 92.1858 165.1C91.8991 165.5 91.7491 166.037 91.7358 166.71C91.7358 166.89 91.7324 167.067 91.7258 167.24C91.7258 167.407 91.7258 167.577 91.7258 167.75C91.7324 167.917 91.7358 168.097 91.7358 168.29C91.7491 168.977 91.8991 169.517 92.1858 169.91C92.4791 170.303 92.9191 170.5 93.5058 170.5ZM97.6679 171C97.5346 171 97.4679 170.933 97.4679 170.8C97.4679 170.76 97.4812 170.723 97.5079 170.69L102.438 164.19C102.485 164.13 102.528 164.083 102.568 164.05C102.615 164.017 102.681 164 102.768 164H102.938C103.071 164 103.138 164.067 103.138 164.2C103.138 164.24 103.125 164.277 103.098 164.31L98.1679 170.81C98.1212 170.87 98.0779 170.917 98.0379 170.95C97.9979 170.983 97.9312 171 97.8379 171H97.6679ZM102.058 171.06C101.625 171.06 101.288 170.937 101.048 170.69C100.808 170.437 100.678 170.11 100.658 169.71C100.651 169.537 100.648 169.393 100.648 169.28C100.648 169.16 100.651 169.007 100.658 168.82C100.678 168.42 100.801 168.093 101.028 167.84C101.255 167.587 101.598 167.46 102.058 167.46C102.518 167.46 102.861 167.587 103.088 167.84C103.315 168.093 103.438 168.42 103.458 168.82C103.471 169.007 103.478 169.16 103.478 169.28C103.478 169.393 103.471 169.537 103.458 169.71C103.438 170.11 103.308 170.437 103.068 170.69C102.828 170.937 102.491 171.06 102.058 171.06ZM102.058 170.5C102.258 170.5 102.415 170.46 102.528 170.38C102.648 170.293 102.735 170.187 102.788 170.06C102.841 169.933 102.871 169.807 102.878 169.68C102.891 169.493 102.898 169.353 102.898 169.26C102.898 169.16 102.891 169.023 102.878 168.85C102.871 168.65 102.805 168.463 102.678 168.29C102.558 168.11 102.351 168.02 102.058 168.02C101.765 168.02 101.558 168.11 101.438 168.29C101.318 168.463 101.251 168.65 101.238 168.85C101.231 169.023 101.228 169.16 101.228 169.26C101.228 169.353 101.231 169.493 101.238 169.68C101.251 169.807 101.281 169.933 101.328 170.06C101.381 170.187 101.465 170.293 101.578 170.38C101.698 170.46 101.858 170.5 102.058 170.5ZM98.5279 167.5C98.0946 167.5 97.7579 167.383 97.5179 167.15C97.2779 166.917 97.1479 166.6 97.1279 166.2C97.1212 166.027 97.1179 165.883 97.1179 165.77C97.1179 165.65 97.1212 165.497 97.1279 165.31C97.1479 164.91 97.2712 164.583 97.4979 164.33C97.7246 164.077 98.0679 163.95 98.5279 163.95C98.9879 163.95 99.3312 164.077 99.5579 164.33C99.7846 164.583 99.9079 164.91 99.9279 165.31C99.9412 165.497 99.9479 165.65 99.9479 165.77C99.9479 165.883 99.9412 166.027 99.9279 166.2C99.9079 166.6 99.7779 166.917 99.5379 167.15C99.2979 167.383 98.9612 167.5 98.5279 167.5ZM98.5279 166.99C98.7279 166.99 98.8846 166.95 98.9979 166.87C99.1179 166.783 99.2046 166.677 99.2579 166.55C99.3112 166.423 99.3412 166.297 99.3479 166.17C99.3612 165.983 99.3679 165.843 99.3679 165.75C99.3679 165.65 99.3612 165.513 99.3479 165.34C99.3412 165.14 99.2746 164.953 99.1479 164.78C99.0279 164.6 98.8212 164.51 98.5279 164.51C98.2346 164.51 98.0279 164.6 97.9079 164.78C97.7879 164.953 97.7212 165.14 97.7079 165.34C97.7012 165.513 97.6979 165.65 97.6979 165.75C97.6979 165.843 97.7012 165.983 97.7079 166.17C97.7212 166.297 97.7512 166.423 97.7979 166.55C97.8512 166.677 97.9346 166.783 98.0479 166.87C98.1679 166.95 98.3279 166.99 98.5279 166.99Z" fill="#9D9D9D"/>
<path d="M86.0095 201C85.9429 201 85.8895 200.98 85.8495 200.94C85.8095 200.9 85.7895 200.847 85.7895 200.78V200.63C85.7895 200.563 85.8062 200.5 85.8395 200.44C85.8795 200.373 85.9462 200.297 86.0395 200.21L88.6295 197.62C88.8829 197.387 89.0762 197.183 89.2095 197.01C89.3429 196.837 89.4329 196.667 89.4795 196.5C89.5329 196.327 89.5595 196.137 89.5595 195.93C89.5595 195.483 89.4295 195.133 89.1695 194.88C88.9162 194.627 88.5529 194.5 88.0795 194.5C87.7795 194.5 87.5195 194.56 87.2995 194.68C87.0795 194.8 86.9062 194.97 86.7795 195.19C86.6529 195.403 86.5695 195.653 86.5295 195.94C86.5229 196.02 86.4929 196.08 86.4395 196.12C86.3862 196.153 86.3395 196.17 86.2995 196.17H86.0995C86.0329 196.17 85.9795 196.153 85.9395 196.12C85.9062 196.08 85.8895 196.033 85.8895 195.98C85.8962 195.753 85.9429 195.52 86.0295 195.28C86.1162 195.033 86.2462 194.807 86.4195 194.6C86.5995 194.393 86.8262 194.227 87.0995 194.1C87.3729 193.967 87.6995 193.9 88.0795 193.9C88.5862 193.9 88.9929 193.997 89.2995 194.19C89.6129 194.383 89.8395 194.633 89.9795 194.94C90.1195 195.247 90.1895 195.577 90.1895 195.93C90.1895 196.203 90.1495 196.457 90.0695 196.69C89.9895 196.917 89.8695 197.14 89.7095 197.36C89.5495 197.573 89.3462 197.793 89.0995 198.02L86.7595 200.4H90.1095C90.1829 200.4 90.2395 200.42 90.2795 200.46C90.3195 200.5 90.3395 200.557 90.3395 200.63V200.78C90.3395 200.847 90.3195 200.9 90.2795 200.94C90.2395 200.98 90.1829 201 90.1095 201H86.0095ZM93.6652 201.1C93.1786 201.1 92.7652 201.01 92.4252 200.83C92.0919 200.65 91.8352 200.42 91.6552 200.14C91.4752 199.853 91.3786 199.557 91.3652 199.25C91.3586 199.19 91.3752 199.143 91.4152 199.11C91.4552 199.077 91.5052 199.06 91.5652 199.06H91.7552C91.8086 199.06 91.8552 199.073 91.8952 199.1C91.9419 199.127 91.9786 199.19 92.0052 199.29C92.0786 199.577 92.1986 199.81 92.3652 199.99C92.5386 200.17 92.7386 200.3 92.9652 200.38C93.1919 200.46 93.4252 200.5 93.6652 200.5C93.9919 200.5 94.2886 200.433 94.5552 200.3C94.8286 200.167 95.0452 199.97 95.2052 199.71C95.3652 199.45 95.4452 199.133 95.4452 198.76C95.4452 198.413 95.3652 198.12 95.2052 197.88C95.0452 197.633 94.8286 197.447 94.5552 197.32C94.2886 197.187 93.9919 197.12 93.6652 197.12C93.4186 197.12 93.2152 197.15 93.0552 197.21C92.8952 197.27 92.7619 197.34 92.6552 197.42C92.5486 197.5 92.4519 197.57 92.3652 197.63C92.2786 197.69 92.1819 197.72 92.0752 197.72H91.8952C91.8352 197.72 91.7819 197.7 91.7352 197.66C91.6886 197.613 91.6686 197.56 91.6752 197.5L91.9752 194.23C91.9819 194.157 92.0019 194.1 92.0352 194.06C92.0752 194.02 92.1286 194 92.1952 194H95.4552C95.5219 194 95.5752 194.02 95.6152 194.06C95.6552 194.1 95.6752 194.153 95.6752 194.22V194.38C95.6752 194.447 95.6552 194.5 95.6152 194.54C95.5752 194.58 95.5219 194.6 95.4552 194.6H92.5852L92.3752 196.86C92.4486 196.813 92.5886 196.747 92.7952 196.66C93.0019 196.567 93.2919 196.52 93.6652 196.52C93.9986 196.52 94.3086 196.57 94.5952 196.67C94.8886 196.763 95.1452 196.907 95.3652 197.1C95.5919 197.287 95.7652 197.52 95.8852 197.8C96.0119 198.073 96.0752 198.393 96.0752 198.76C96.0752 199.28 95.9652 199.713 95.7452 200.06C95.5319 200.407 95.2419 200.667 94.8752 200.84C94.5152 201.013 94.1119 201.1 93.6652 201.1ZM97.6679 201C97.5346 201 97.4679 200.933 97.4679 200.8C97.4679 200.76 97.4812 200.723 97.5079 200.69L102.438 194.19C102.485 194.13 102.528 194.083 102.568 194.05C102.615 194.017 102.681 194 102.768 194H102.938C103.071 194 103.138 194.067 103.138 194.2C103.138 194.24 103.125 194.277 103.098 194.31L98.1679 200.81C98.1212 200.87 98.0779 200.917 98.0379 200.95C97.9979 200.983 97.9312 201 97.8379 201H97.6679ZM102.058 201.06C101.625 201.06 101.288 200.937 101.048 200.69C100.808 200.437 100.678 200.11 100.658 199.71C100.651 199.537 100.648 199.393 100.648 199.28C100.648 199.16 100.651 199.007 100.658 198.82C100.678 198.42 100.801 198.093 101.028 197.84C101.255 197.587 101.598 197.46 102.058 197.46C102.518 197.46 102.861 197.587 103.088 197.84C103.315 198.093 103.438 198.42 103.458 198.82C103.471 199.007 103.478 199.16 103.478 199.28C103.478 199.393 103.471 199.537 103.458 199.71C103.438 200.11 103.308 200.437 103.068 200.69C102.828 200.937 102.491 201.06 102.058 201.06ZM102.058 200.5C102.258 200.5 102.415 200.46 102.528 200.38C102.648 200.293 102.735 200.187 102.788 200.06C102.841 199.933 102.871 199.807 102.878 199.68C102.891 199.493 102.898 199.353 102.898 199.26C102.898 199.16 102.891 199.023 102.878 198.85C102.871 198.65 102.805 198.463 102.678 198.29C102.558 198.11 102.351 198.02 102.058 198.02C101.765 198.02 101.558 198.11 101.438 198.29C101.318 198.463 101.251 198.65 101.238 198.85C101.231 199.023 101.228 199.16 101.228 199.26C101.228 199.353 101.231 199.493 101.238 199.68C101.251 199.807 101.281 199.933 101.328 200.06C101.381 200.187 101.465 200.293 101.578 200.38C101.698 200.46 101.858 200.5 102.058 200.5ZM98.5279 197.5C98.0946 197.5 97.7579 197.383 97.5179 197.15C97.2779 196.917 97.1479 196.6 97.1279 196.2C97.1212 196.027 97.1179 195.883 97.1179 195.77C97.1179 195.65 97.1212 195.497 97.1279 195.31C97.1479 194.91 97.2712 194.583 97.4979 194.33C97.7246 194.077 98.0679 193.95 98.5279 193.95C98.9879 193.95 99.3312 194.077 99.5579 194.33C99.7846 194.583 99.9079 194.91 99.9279 195.31C99.9412 195.497 99.9479 195.65 99.9479 195.77C99.9479 195.883 99.9412 196.027 99.9279 196.2C99.9079 196.6 99.7779 196.917 99.5379 197.15C99.2979 197.383 98.9612 197.5 98.5279 197.5ZM98.5279 196.99C98.7279 196.99 98.8846 196.95 98.9979 196.87C99.1179 196.783 99.2046 196.677 99.2579 196.55C99.3112 196.423 99.3412 196.297 99.3479 196.17C99.3612 195.983 99.3679 195.843 99.3679 195.75C99.3679 195.65 99.3612 195.513 99.3479 195.34C99.3412 195.14 99.2746 194.953 99.1479 194.78C99.0279 194.6 98.8212 194.51 98.5279 194.51C98.2346 194.51 98.0279 194.6 97.9079 194.78C97.7879 194.953 97.7212 195.14 97.7079 195.34C97.7012 195.513 97.6979 195.65 97.6979 195.75C97.6979 195.843 97.7012 195.983 97.7079 196.17C97.7212 196.297 97.7512 196.423 97.7979 196.55C97.8512 196.677 97.9346 196.783 98.0479 196.87C98.1679 196.95 98.3279 196.99 98.5279 196.99Z" fill="#9D9D9D"/>
<path d="M93.5058 231.1C93.0524 231.1 92.6724 231.027 92.3658 230.88C92.0658 230.733 91.8224 230.533 91.6358 230.28C91.4558 230.02 91.3258 229.723 91.2458 229.39C91.1658 229.057 91.1191 228.707 91.1058 228.34C91.1058 228.16 91.1024 227.977 91.0958 227.79C91.0958 227.603 91.0958 227.417 91.0958 227.23C91.1024 227.037 91.1058 226.847 91.1058 226.66C91.1124 226.293 91.1558 225.943 91.2358 225.61C91.3224 225.277 91.4558 224.983 91.6358 224.73C91.8224 224.47 92.0658 224.267 92.3658 224.12C92.6724 223.973 93.0524 223.9 93.5058 223.9C93.9591 223.9 94.3358 223.973 94.6358 224.12C94.9424 224.267 95.1858 224.47 95.3658 224.73C95.5524 224.983 95.6858 225.277 95.7658 225.61C95.8524 225.943 95.8991 226.293 95.9058 226.66C95.9124 226.847 95.9158 227.037 95.9158 227.23C95.9158 227.417 95.9158 227.603 95.9158 227.79C95.9158 227.977 95.9124 228.16 95.9058 228.34C95.8991 228.707 95.8524 229.057 95.7658 229.39C95.6858 229.723 95.5524 230.02 95.3658 230.28C95.1858 230.533 94.9424 230.733 94.6358 230.88C94.3358 231.027 93.9591 231.1 93.5058 231.1ZM93.5058 230.5C94.0991 230.5 94.5391 230.303 94.8258 229.91C95.1124 229.517 95.2624 228.977 95.2758 228.29C95.2824 228.097 95.2858 227.917 95.2858 227.75C95.2858 227.577 95.2858 227.407 95.2858 227.24C95.2858 227.067 95.2824 226.89 95.2758 226.71C95.2624 226.037 95.1124 225.5 94.8258 225.1C94.5391 224.7 94.0991 224.5 93.5058 224.5C92.9191 224.5 92.4791 224.7 92.1858 225.1C91.8991 225.5 91.7491 226.037 91.7358 226.71C91.7358 226.89 91.7324 227.067 91.7258 227.24C91.7258 227.407 91.7258 227.577 91.7258 227.75C91.7324 227.917 91.7358 228.097 91.7358 228.29C91.7491 228.977 91.8991 229.517 92.1858 229.91C92.4791 230.303 92.9191 230.5 93.5058 230.5ZM97.6679 231C97.5346 231 97.4679 230.933 97.4679 230.8C97.4679 230.76 97.4812 230.723 97.5079 230.69L102.438 224.19C102.485 224.13 102.528 224.083 102.568 224.05C102.615 224.017 102.681 224 102.768 224H102.938C103.071 224 103.138 224.067 103.138 224.2C103.138 224.24 103.125 224.277 103.098 224.31L98.1679 230.81C98.1212 230.87 98.0779 230.917 98.0379 230.95C97.9979 230.983 97.9312 231 97.8379 231H97.6679ZM102.058 231.06C101.625 231.06 101.288 230.937 101.048 230.69C100.808 230.437 100.678 230.11 100.658 229.71C100.651 229.537 100.648 229.393 100.648 229.28C100.648 229.16 100.651 229.007 100.658 228.82C100.678 228.42 100.801 228.093 101.028 227.84C101.255 227.587 101.598 227.46 102.058 227.46C102.518 227.46 102.861 227.587 103.088 227.84C103.315 228.093 103.438 228.42 103.458 228.82C103.471 229.007 103.478 229.16 103.478 229.28C103.478 229.393 103.471 229.537 103.458 229.71C103.438 230.11 103.308 230.437 103.068 230.69C102.828 230.937 102.491 231.06 102.058 231.06ZM102.058 230.5C102.258 230.5 102.415 230.46 102.528 230.38C102.648 230.293 102.735 230.187 102.788 230.06C102.841 229.933 102.871 229.807 102.878 229.68C102.891 229.493 102.898 229.353 102.898 229.26C102.898 229.16 102.891 229.023 102.878 228.85C102.871 228.65 102.805 228.463 102.678 228.29C102.558 228.11 102.351 228.02 102.058 228.02C101.765 228.02 101.558 228.11 101.438 228.29C101.318 228.463 101.251 228.65 101.238 228.85C101.231 229.023 101.228 229.16 101.228 229.26C101.228 229.353 101.231 229.493 101.238 229.68C101.251 229.807 101.281 229.933 101.328 230.06C101.381 230.187 101.465 230.293 101.578 230.38C101.698 230.46 101.858 230.5 102.058 230.5ZM98.5279 227.5C98.0946 227.5 97.7579 227.383 97.5179 227.15C97.2779 226.917 97.1479 226.6 97.1279 226.2C97.1212 226.027 97.1179 225.883 97.1179 225.77C97.1179 225.65 97.1212 225.497 97.1279 225.31C97.1479 224.91 97.2712 224.583 97.4979 224.33C97.7246 224.077 98.0679 223.95 98.5279 223.95C98.9879 223.95 99.3312 224.077 99.5579 224.33C99.7846 224.583 99.9079 224.91 99.9279 225.31C99.9412 225.497 99.9479 225.65 99.9479 225.77C99.9479 225.883 99.9412 226.027 99.9279 226.2C99.9079 226.6 99.7779 226.917 99.5379 227.15C99.2979 227.383 98.9612 227.5 98.5279 227.5ZM98.5279 226.99C98.7279 226.99 98.8846 226.95 98.9979 226.87C99.1179 226.783 99.2046 226.677 99.2579 226.55C99.3112 226.423 99.3412 226.297 99.3479 226.17C99.3612 225.983 99.3679 225.843 99.3679 225.75C99.3679 225.65 99.3612 225.513 99.3479 225.34C99.3412 225.14 99.2746 224.953 99.1479 224.78C99.0279 224.6 98.8212 224.51 98.5279 224.51C98.2346 224.51 98.0279 224.6 97.9079 224.78C97.7879 224.953 97.7212 225.14 97.7079 225.34C97.7012 225.513 97.6979 225.65 97.6979 225.75C97.6979 225.843 97.7012 225.983 97.7079 226.17C97.7212 226.297 97.7512 226.423 97.7979 226.55C97.8512 226.677 97.9346 226.783 98.0479 226.87C98.1679 226.95 98.3279 226.99 98.5279 226.99Z" fill="#9D9D9D"/>
<path d="M243.899 87.538C243.806 87.538 243.726 87.51 243.661 87.454C243.605 87.3887 243.577 87.3093 243.577 87.216V84.304H240.707C240.614 84.304 240.534 84.276 240.469 84.22C240.413 84.1547 240.385 84.0753 240.385 83.982V83.534C240.385 83.4407 240.413 83.366 240.469 83.31C240.534 83.2447 240.614 83.212 240.707 83.212H243.577V80.384C243.577 80.2907 243.605 80.216 243.661 80.16C243.726 80.0947 243.806 80.062 243.899 80.062H244.389C244.482 80.062 244.557 80.0947 244.613 80.16C244.678 80.216 244.711 80.2907 244.711 80.384V83.212H247.595C247.688 83.212 247.763 83.2447 247.819 83.31C247.884 83.366 247.917 83.4407 247.917 83.534V83.982C247.917 84.0753 247.884 84.1547 247.819 84.22C247.763 84.276 247.688 84.304 247.595 84.304H244.711V87.216C244.711 87.3093 244.678 87.3887 244.613 87.454C244.557 87.51 244.482 87.538 244.389 87.538H243.899ZM249.158 88C249.065 88 248.986 87.972 248.92 87.916C248.864 87.8507 248.836 87.7713 248.836 87.678V87.23C248.836 87.146 248.86 87.0527 248.906 86.95C248.953 86.8473 249.046 86.7353 249.186 86.614L252.154 83.646C252.63 83.2447 253.004 82.904 253.274 82.624C253.554 82.3347 253.75 82.0593 253.862 81.798C253.984 81.5367 254.044 81.266 254.044 80.986C254.044 80.454 253.895 80.034 253.596 79.726C253.298 79.4087 252.854 79.25 252.266 79.25C251.893 79.25 251.571 79.3293 251.3 79.488C251.03 79.6373 250.815 79.8473 250.656 80.118C250.507 80.3793 250.409 80.678 250.362 81.014C250.344 81.1353 250.292 81.2193 250.208 81.266C250.134 81.3127 250.064 81.336 249.998 81.336H249.27C249.186 81.336 249.116 81.3127 249.06 81.266C249.004 81.21 248.976 81.1447 248.976 81.07C248.986 80.7153 249.06 80.3607 249.2 80.006C249.34 79.642 249.546 79.3153 249.816 79.026C250.096 78.7367 250.437 78.5033 250.838 78.326C251.249 78.1393 251.725 78.046 252.266 78.046C253.004 78.046 253.606 78.1813 254.072 78.452C254.548 78.7133 254.898 79.0633 255.122 79.502C255.346 79.9407 255.458 80.4213 255.458 80.944C255.458 81.3547 255.388 81.7327 255.248 82.078C255.108 82.414 254.903 82.7453 254.632 83.072C254.371 83.3893 254.044 83.716 253.652 84.052L250.964 86.782H255.332C255.435 86.782 255.514 86.81 255.57 86.866C255.636 86.922 255.668 87.0013 255.668 87.104V87.678C255.668 87.7713 255.636 87.8507 255.57 87.916C255.514 87.972 255.435 88 255.332 88H249.158ZM260.539 88.14C259.951 88.14 259.438 88.07 258.999 87.93C258.561 87.7807 258.192 87.5847 257.893 87.342C257.595 87.0993 257.366 86.8333 257.207 86.544C257.058 86.2547 256.979 85.956 256.969 85.648C256.969 85.564 256.997 85.4987 257.053 85.452C257.109 85.4053 257.179 85.382 257.263 85.382H257.949C258.033 85.382 258.108 85.4007 258.173 85.438C258.239 85.4753 258.295 85.5547 258.341 85.676C258.435 86.012 258.593 86.2733 258.817 86.46C259.051 86.6467 259.317 86.7773 259.615 86.852C259.923 86.9173 260.231 86.95 260.539 86.95C261.183 86.95 261.706 86.796 262.107 86.488C262.509 86.18 262.709 85.7273 262.709 85.13C262.709 84.5233 262.527 84.0893 262.163 83.828C261.799 83.5667 261.295 83.436 260.651 83.436H259.321C259.228 83.436 259.149 83.408 259.083 83.352C259.027 83.296 258.999 83.2167 258.999 83.114V82.736C258.999 82.652 259.013 82.582 259.041 82.526C259.079 82.4607 259.116 82.4047 259.153 82.358L261.869 79.39H257.739C257.646 79.39 257.567 79.362 257.501 79.306C257.445 79.25 257.417 79.1707 257.417 79.068V78.536C257.417 78.4333 257.445 78.354 257.501 78.298C257.567 78.2327 257.646 78.2 257.739 78.2H263.325C263.428 78.2 263.507 78.2327 263.563 78.298C263.629 78.354 263.661 78.4333 263.661 78.536V79.04C263.661 79.1053 263.643 79.166 263.605 79.222C263.577 79.2687 263.545 79.3153 263.507 79.362L260.805 82.372L261.029 82.386C261.645 82.4047 262.182 82.5167 262.639 82.722C263.106 82.9273 263.465 83.2353 263.717 83.646C263.979 84.0473 264.109 84.556 264.109 85.172C264.109 85.7973 263.955 86.334 263.647 86.782C263.339 87.2207 262.915 87.5567 262.373 87.79C261.832 88.0233 261.221 88.14 260.539 88.14ZM266.035 88C265.942 88 265.863 87.972 265.797 87.916C265.741 87.8507 265.713 87.7713 265.713 87.678V86.67C265.713 86.5767 265.741 86.502 265.797 86.446C265.863 86.3807 265.942 86.348 266.035 86.348H267.043C267.137 86.348 267.211 86.3807 267.267 86.446C267.333 86.502 267.365 86.5767 267.365 86.67V87.678C267.365 87.7713 267.333 87.8507 267.267 87.916C267.211 87.972 267.137 88 267.043 88H266.035ZM273.712 88C273.618 88 273.539 87.972 273.474 87.916C273.418 87.8507 273.39 87.7713 273.39 87.678V85.662H268.854C268.76 85.662 268.681 85.634 268.616 85.578C268.56 85.5127 268.532 85.4333 268.532 85.34V84.78C268.532 84.7427 268.541 84.6867 268.56 84.612C268.588 84.528 268.63 84.444 268.686 84.36L272.886 78.438C272.998 78.2793 273.17 78.2 273.404 78.2H274.412C274.505 78.2 274.58 78.2327 274.636 78.298C274.701 78.354 274.734 78.4287 274.734 78.522V84.444H275.994C276.096 84.444 276.176 84.4767 276.232 84.542C276.297 84.598 276.33 84.6727 276.33 84.766V85.34C276.33 85.4333 276.297 85.5127 276.232 85.578C276.176 85.634 276.101 85.662 276.008 85.662H274.734V87.678C274.734 87.7713 274.701 87.8507 274.636 87.916C274.58 87.972 274.505 88 274.412 88H273.712ZM270.03 84.472H273.404V79.67L270.03 84.472ZM280.384 88C280.29 88 280.211 87.972 280.146 87.916C280.09 87.8507 280.062 87.7713 280.062 87.678V79.838L277.738 81.63C277.663 81.686 277.584 81.7093 277.5 81.7C277.416 81.6907 277.346 81.6487 277.29 81.574L276.926 81.112C276.87 81.028 276.846 80.944 276.856 80.86C276.874 80.776 276.921 80.706 276.996 80.65L280.048 78.298C280.113 78.2513 280.174 78.2233 280.23 78.214C280.286 78.2047 280.346 78.2 280.412 78.2H281.126C281.219 78.2 281.294 78.2327 281.35 78.298C281.406 78.354 281.434 78.4287 281.434 78.522V87.678C281.434 87.7713 281.406 87.8507 281.35 87.916C281.294 87.972 281.219 88 281.126 88H280.384ZM284.034 88C283.838 88 283.74 87.9067 283.74 87.72C283.74 87.664 283.758 87.6127 283.796 87.566L290.712 78.466C290.777 78.382 290.838 78.3167 290.894 78.27C290.959 78.2233 291.052 78.2 291.174 78.2H291.636C291.832 78.2 291.93 78.2933 291.93 78.48C291.93 78.536 291.911 78.5873 291.874 78.634L284.972 87.734C284.906 87.818 284.841 87.8833 284.776 87.93C284.72 87.9767 284.626 88 284.496 88H284.034ZM290.446 88.084C289.83 88.084 289.349 87.9113 289.004 87.566C288.658 87.2207 288.467 86.768 288.43 86.208C288.42 85.9653 288.416 85.76 288.416 85.592C288.416 85.4147 288.42 85.1953 288.43 84.934C288.458 84.374 288.64 83.9213 288.976 83.576C289.312 83.2213 289.802 83.044 290.446 83.044C291.099 83.044 291.589 83.2213 291.916 83.576C292.252 83.9213 292.438 84.374 292.476 84.934C292.494 85.1953 292.504 85.4147 292.504 85.592C292.504 85.76 292.494 85.9653 292.476 86.208C292.438 86.768 292.242 87.2207 291.888 87.566C291.542 87.9113 291.062 88.084 290.446 88.084ZM290.446 87.16C290.688 87.16 290.88 87.1087 291.02 87.006C291.169 86.9033 291.276 86.7773 291.342 86.628C291.407 86.4693 291.444 86.3107 291.454 86.152C291.472 85.9 291.482 85.704 291.482 85.564C291.482 85.4147 291.472 85.2233 291.454 84.99C291.444 84.738 291.365 84.5047 291.216 84.29C291.066 84.0753 290.81 83.968 290.446 83.968C290.091 83.968 289.839 84.0753 289.69 84.29C289.55 84.5047 289.47 84.738 289.452 84.99C289.442 85.2233 289.438 85.4147 289.438 85.564C289.438 85.704 289.442 85.9 289.452 86.152C289.47 86.3107 289.508 86.4693 289.564 86.628C289.629 86.7773 289.732 86.9033 289.872 87.006C290.021 87.1087 290.212 87.16 290.446 87.16ZM285.21 83.114C284.594 83.114 284.113 82.9507 283.768 82.624C283.422 82.2973 283.231 81.854 283.194 81.294C283.184 81.0513 283.18 80.846 283.18 80.678C283.18 80.5007 283.184 80.2813 283.194 80.02C283.222 79.46 283.404 79.0073 283.74 78.662C284.076 78.3073 284.566 78.13 285.21 78.13C285.863 78.13 286.353 78.3073 286.68 78.662C287.016 79.0073 287.198 79.46 287.226 80.02C287.244 80.2813 287.254 80.5007 287.254 80.678C287.254 80.846 287.244 81.0513 287.226 81.294C287.198 81.854 287.006 82.2973 286.652 82.624C286.306 82.9507 285.826 83.114 285.21 83.114ZM285.21 82.246C285.452 82.246 285.644 82.1947 285.784 82.092C285.933 81.9893 286.04 81.8633 286.106 81.714C286.171 81.5553 286.208 81.3967 286.218 81.238C286.236 80.986 286.246 80.79 286.246 80.65C286.246 80.5007 286.236 80.3093 286.218 80.076C286.208 79.824 286.124 79.5907 285.966 79.376C285.816 79.1613 285.564 79.054 285.21 79.054C284.855 79.054 284.603 79.1613 284.454 79.376C284.314 79.5907 284.234 79.824 284.216 80.076C284.206 80.3093 284.202 80.5007 284.202 80.65C284.202 80.79 284.206 80.986 284.216 81.238C284.234 81.3967 284.272 81.5553 284.328 81.714C284.393 81.8633 284.496 81.9893 284.636 82.092C284.776 82.1947 284.967 82.246 285.21 82.246ZM293.802 89.176C293.728 89.176 293.662 89.148 293.606 89.092C293.55 89.036 293.522 88.9707 293.522 88.896C293.522 88.8493 293.536 88.7933 293.564 88.728L298.352 77.248C298.38 77.192 298.418 77.136 298.464 77.08C298.52 77.024 298.604 76.996 298.716 76.996H299.262C299.337 76.996 299.402 77.024 299.458 77.08C299.514 77.136 299.542 77.2013 299.542 77.276C299.542 77.3133 299.533 77.3693 299.514 77.444L294.712 88.924C294.694 88.9707 294.652 89.022 294.586 89.078C294.53 89.1433 294.451 89.176 294.348 89.176H293.802ZM301.242 88C301.149 88 301.074 87.972 301.018 87.916C300.962 87.86 300.934 87.7853 300.934 87.692V80.986C300.934 80.9113 300.962 80.8507 301.018 80.804C301.084 80.748 301.149 80.72 301.214 80.72H301.928C302.078 80.72 302.194 80.7947 302.278 80.944L304.658 85.396L307.052 80.944C307.136 80.7947 307.253 80.72 307.402 80.72H308.102C308.177 80.72 308.242 80.748 308.298 80.804C308.354 80.8507 308.382 80.9113 308.382 80.986V87.692C308.382 87.7853 308.354 87.86 308.298 87.916C308.242 87.972 308.172 88 308.088 88H307.402C307.309 88 307.234 87.972 307.178 87.916C307.122 87.86 307.094 87.7853 307.094 87.692V82.106L307.584 82.162L305.302 86.474C305.256 86.5673 305.2 86.6513 305.134 86.726C305.069 86.8007 304.971 86.838 304.84 86.838H304.476C304.355 86.838 304.262 86.8007 304.196 86.726C304.131 86.6513 304.07 86.5673 304.014 86.474L301.802 82.372L302.236 82.33V87.692C302.236 87.7853 302.208 87.86 302.152 87.916C302.096 87.972 302.022 88 301.928 88H301.242ZM313.375 88.14C312.414 88.14 311.649 87.846 311.079 87.258C310.51 86.6607 310.197 85.8487 310.141 84.822C310.132 84.7007 310.127 84.5467 310.127 84.36C310.127 84.164 310.132 84.0053 310.141 83.884C310.179 83.2213 310.333 82.6427 310.603 82.148C310.874 81.644 311.243 81.2567 311.709 80.986C312.185 80.7153 312.741 80.58 313.375 80.58C314.085 80.58 314.677 80.7293 315.153 81.028C315.639 81.3267 316.007 81.7513 316.259 82.302C316.511 82.8527 316.637 83.4967 316.637 84.234V84.472C316.637 84.5747 316.605 84.654 316.539 84.71C316.483 84.766 316.409 84.794 316.315 84.794H311.471C311.471 84.8033 311.471 84.822 311.471 84.85C311.471 84.878 311.471 84.9013 311.471 84.92C311.49 85.3027 311.574 85.662 311.723 85.998C311.873 86.3247 312.087 86.5907 312.367 86.796C312.647 87.0013 312.983 87.104 313.375 87.104C313.711 87.104 313.991 87.0527 314.215 86.95C314.439 86.8473 314.621 86.7353 314.761 86.614C314.901 86.4833 314.995 86.3853 315.041 86.32C315.125 86.1987 315.191 86.1287 315.237 86.11C315.284 86.082 315.359 86.068 315.461 86.068H316.133C316.227 86.068 316.301 86.096 316.357 86.152C316.423 86.1987 316.451 86.2687 316.441 86.362C316.432 86.502 316.357 86.6747 316.217 86.88C316.077 87.076 315.877 87.272 315.615 87.468C315.354 87.664 315.037 87.8273 314.663 87.958C314.29 88.0793 313.861 88.14 313.375 88.14ZM311.471 83.828H315.307V83.786C315.307 83.366 315.228 82.9927 315.069 82.666C314.92 82.3393 314.701 82.0827 314.411 81.896C314.122 81.7 313.777 81.602 313.375 81.602C312.974 81.602 312.629 81.7 312.339 81.896C312.059 82.0827 311.845 82.3393 311.695 82.666C311.546 82.9927 311.471 83.366 311.471 83.786V83.828ZM321.251 88.14C320.589 88.14 320.015 88.014 319.529 87.762C319.053 87.5007 318.685 87.132 318.423 86.656C318.162 86.1707 318.022 85.592 318.003 84.92C317.994 84.78 317.989 84.5933 317.989 84.36C317.989 84.1267 317.994 83.94 318.003 83.8C318.022 83.128 318.162 82.554 318.423 82.078C318.685 81.5927 319.053 81.224 319.529 80.972C320.015 80.7107 320.589 80.58 321.251 80.58C321.793 80.58 322.255 80.6547 322.637 80.804C323.029 80.9533 323.351 81.1447 323.603 81.378C323.855 81.6113 324.042 81.8633 324.163 82.134C324.294 82.4047 324.364 82.6613 324.373 82.904C324.383 82.9973 324.355 83.072 324.289 83.128C324.224 83.184 324.145 83.212 324.051 83.212H323.379C323.286 83.212 323.216 83.1933 323.169 83.156C323.123 83.1093 323.076 83.0347 323.029 82.932C322.861 82.4747 322.633 82.1527 322.343 81.966C322.054 81.7793 321.695 81.686 321.265 81.686C320.705 81.686 320.248 81.8587 319.893 82.204C319.548 82.5493 319.361 83.1047 319.333 83.87C319.324 84.206 319.324 84.5327 319.333 84.85C319.361 85.6247 319.548 86.1847 319.893 86.53C320.248 86.866 320.705 87.034 321.265 87.034C321.695 87.034 322.054 86.9407 322.343 86.754C322.633 86.5673 322.861 86.2453 323.029 85.788C323.076 85.6853 323.123 85.6153 323.169 85.578C323.216 85.5313 323.286 85.508 323.379 85.508H324.051C324.145 85.508 324.224 85.536 324.289 85.592C324.355 85.648 324.383 85.7227 324.373 85.816C324.364 86.012 324.322 86.2127 324.247 86.418C324.173 86.6233 324.051 86.8333 323.883 87.048C323.725 87.2533 323.524 87.44 323.281 87.608C323.039 87.7667 322.745 87.8973 322.399 88C322.063 88.0933 321.681 88.14 321.251 88.14Z" fill="#87D385"/>
<g clip-path="url(#clip0_465_806)">
<path d="M117 210C123.667 201.5 132.6 126.1 143 128.5C153.4 130.9 155.11 165.527 169 169C183 172.5 179.1 194.6 185.5 191C191.9 187.4 191.5 194.5 199 188.5C206.5 182 211.705 205.006 213.5 207C218 212 221 190 225 191C229.947 192.237 232.47 193.434 233.5 193C243 189 243 178 256.5 185.5C260.881 187.934 261 178 269 149.5C273 138.5 277.1 155.2 281.5 160C287 166 296.5 167.5 299 175C301.535 182.604 308.486 181.906 309.5 188.5C310.5 195 317.5 191.5 320.5 197C322.453 200.581 324 204 324.5 205" stroke="#9043CA" stroke-linecap="round"/>
<path fill-rule="evenodd" clip-rule="evenodd" d="M325 234V205C324.77 204.539 324.21 203.564 323.483 202.296C322.633 200.813 321.553 198.93 320.5 197C319.107 194.445 316.85 193.832 314.733 193.257C312.292 192.594 310.036 191.981 309.5 188.5C308.991 185.188 306.984 183.716 304.791 182.107C302.617 180.513 300.262 178.785 299 175C297.51 170.529 293.531 168.19 289.396 165.759C286.594 164.112 283.721 162.423 281.5 160C280.126 158.501 278.78 155.84 277.458 153.225C274.548 147.47 271.751 141.936 269 149.5C266.471 158.51 264.729 165.664 263.392 171.159C260.499 183.045 259.496 187.165 256.5 185.5C247.602 180.557 244.569 183.65 240.815 187.479C238.873 189.459 236.738 191.636 233.5 193C232.85 193.274 231.607 192.899 229.536 192.274C228.323 191.908 226.827 191.457 225 191C223.188 190.547 221.581 194.813 219.948 199.151C217.974 204.391 215.962 209.735 213.5 207C213.057 206.508 212.406 204.734 211.563 202.44C208.995 195.443 204.648 183.605 199 188.5C194.89 191.788 193.152 191.142 191.368 190.479C189.896 189.932 188.393 189.373 185.5 191C182.756 192.544 181.905 189.362 180.725 184.948C179.153 179.067 176.997 170.999 169 169C161.567 167.142 157.622 156.361 153.966 146.372C150.791 137.695 147.834 129.616 143 128.5C137.286 127.181 132.015 149.347 127.319 171C126.884 173.004 126.455 175.005 126.03 176.981C122.692 192.516 119.665 206.602 117 210V234H325Z" fill="url(#paint0_linear_465_806)"/>
</g>
<defs>
<filter id="filter0_dd_465_806" x="0" y="0" width="405" height="337" filterUnits="userSpaceOnUse" color-interpolation-filters="sRGB">
<feFlood flood-opacity="0" result="BackgroundImageFix"/>
<feColorMatrix in="SourceAlpha" type="matrix" values="0 0 0 0 0 0 0 0 0 0 0 0 0 0 0 0 0 0 127 0" result="hardAlpha"/>
<feOffset/>
<feGaussianBlur stdDeviation="10"/>
<feComposite in2="hardAlpha" operator="out"/>
<feColorMatrix type="matrix" values="0 0 0 0 0.631373 0 0 0 0 0.462745 0 0 0 0 0.756863 0 0 0 0.03 0"/>
<feBlend mode="normal" in2="BackgroundImageFix" result="effect1_dropShadow_465_806"/>
<feColorMatrix in="SourceAlpha" type="matrix" values="0 0 0 0 0 0 0 0 0 0 0 0 0 0 0 0 0 0 127 0" result="hardAlpha"/>
<feOffset/>
<feGaussianBlur stdDeviation="30"/>
<feComposite in2="hardAlpha" operator="out"/>
<feColorMatrix type="matrix" values="0 0 0 0 0.631373 0 0 0 0 0.462745 0 0 0 0 0.756863 0 0 0 0.03 0"/>
<feBlend mode="normal" in2="effect1_dropShadow_465_806" result="effect2_dropShadow_465_806"/>
<feBlend mode="normal" in="SourceGraphic" in2="effect2_dropShadow_465_806" result="shape"/>
</filter>
<linearGradient id="paint0_linear_465_806" x1="221" y1="128.444" x2="221" y2="234" gradientUnits="userSpaceOnUse">
<stop stop-color="#F1DEFF"/>
<stop offset="1" stop-color="#F9F1FF" stop-opacity="0"/>
</linearGradient>
<clipPath id="clip0_465_806">
<rect width="208" height="136" fill="white" transform="translate(117 104)"/>
</clipPath>
</defs>
</svg>
