<svg width="405" height="337" viewBox="0 0 405 337" fill="none" xmlns="http://www.w3.org/2000/svg">
<g filter="url(#filter0_dd_504_490)">
<rect x="60" y="60" width="285" height="217" rx="20" fill="white"/>
</g>
<path d="M107.76 259C107.693 259 107.64 258.98 107.6 258.94C107.56 258.9 107.54 258.847 107.54 258.78V252.82L105.75 254.2C105.697 254.24 105.64 254.257 105.58 254.25C105.527 254.243 105.48 254.213 105.44 254.16L105.33 254.02C105.29 253.967 105.273 253.913 105.28 253.86C105.287 253.8 105.317 253.75 105.37 253.71L107.5 252.07C107.547 252.037 107.59 252.017 107.63 252.01C107.67 252.003 107.713 252 107.76 252H107.95C108.017 252 108.07 252.02 108.11 252.06C108.15 252.1 108.17 252.153 108.17 252.22V258.78C108.17 258.847 108.15 258.9 108.11 258.94C108.07 258.98 108.017 259 107.95 259H107.76ZM110.514 259C110.454 259 110.404 258.98 110.364 258.94C110.331 258.893 110.314 258.84 110.314 258.78C110.314 258.76 110.321 258.73 110.334 258.69L112.904 252.6H109.494C109.428 252.6 109.374 252.58 109.334 252.54C109.294 252.5 109.274 252.447 109.274 252.38V252.23C109.274 252.157 109.294 252.1 109.334 252.06C109.374 252.02 109.428 252 109.494 252H113.354C113.428 252 113.484 252.02 113.524 252.06C113.564 252.1 113.584 252.157 113.584 252.23V252.38C113.584 252.46 113.578 252.527 113.564 252.58C113.558 252.627 113.541 252.683 113.514 252.75L110.984 258.75C110.958 258.803 110.924 258.86 110.884 258.92C110.851 258.973 110.798 259 110.724 259H110.514ZM114.114 259C114.047 259 113.994 258.98 113.954 258.94C113.914 258.9 113.894 258.847 113.894 258.78V258.3C113.894 258.233 113.914 258.18 113.954 258.14C113.994 258.093 114.047 258.07 114.114 258.07H114.594C114.661 258.07 114.714 258.093 114.754 258.14C114.801 258.18 114.824 258.233 114.824 258.3V258.78C114.824 258.847 114.801 258.9 114.754 258.94C114.714 258.98 114.661 259 114.594 259H114.114ZM118.441 259.1C117.988 259.1 117.608 259.027 117.301 258.88C117.001 258.733 116.758 258.533 116.571 258.28C116.391 258.02 116.261 257.723 116.181 257.39C116.101 257.057 116.055 256.707 116.041 256.34C116.041 256.16 116.038 255.977 116.031 255.79C116.031 255.603 116.031 255.417 116.031 255.23C116.038 255.037 116.041 254.847 116.041 254.66C116.048 254.293 116.091 253.943 116.171 253.61C116.258 253.277 116.391 252.983 116.571 252.73C116.758 252.47 117.001 252.267 117.301 252.12C117.608 251.973 117.988 251.9 118.441 251.9C118.895 251.9 119.271 251.973 119.571 252.12C119.878 252.267 120.121 252.47 120.301 252.73C120.488 252.983 120.621 253.277 120.701 253.61C120.788 253.943 120.835 254.293 120.841 254.66C120.848 254.847 120.851 255.037 120.851 255.23C120.851 255.417 120.851 255.603 120.851 255.79C120.851 255.977 120.848 256.16 120.841 256.34C120.835 256.707 120.788 257.057 120.701 257.39C120.621 257.723 120.488 258.02 120.301 258.28C120.121 258.533 119.878 258.733 119.571 258.88C119.271 259.027 118.895 259.1 118.441 259.1ZM118.441 258.5C119.035 258.5 119.475 258.303 119.761 257.91C120.048 257.517 120.198 256.977 120.211 256.29C120.218 256.097 120.221 255.917 120.221 255.75C120.221 255.577 120.221 255.407 120.221 255.24C120.221 255.067 120.218 254.89 120.211 254.71C120.198 254.037 120.048 253.5 119.761 253.1C119.475 252.7 119.035 252.5 118.441 252.5C117.855 252.5 117.415 252.7 117.121 253.1C116.835 253.5 116.685 254.037 116.671 254.71C116.671 254.89 116.668 255.067 116.661 255.24C116.661 255.407 116.661 255.577 116.661 255.75C116.668 255.917 116.671 256.097 116.671 256.29C116.685 256.977 116.835 257.517 117.121 257.91C117.415 258.303 117.855 258.5 118.441 258.5ZM123.053 259C122.993 259 122.943 258.98 122.903 258.94C122.87 258.893 122.853 258.84 122.853 258.78C122.853 258.76 122.86 258.73 122.873 258.69L125.443 252.6H122.033C121.967 252.6 121.913 252.58 121.873 252.54C121.833 252.5 121.813 252.447 121.813 252.38V252.23C121.813 252.157 121.833 252.1 121.873 252.06C121.913 252.02 121.967 252 122.033 252H125.893C125.967 252 126.023 252.02 126.063 252.06C126.103 252.1 126.123 252.157 126.123 252.23V252.38C126.123 252.46 126.117 252.527 126.103 252.58C126.097 252.627 126.08 252.683 126.053 252.75L123.523 258.75C123.497 258.803 123.463 258.86 123.423 258.92C123.39 258.973 123.337 259 123.263 259H123.053Z" fill="#9D9D9D"/>
<path d="M146.76 259C146.693 259 146.64 258.98 146.6 258.94C146.56 258.9 146.54 258.847 146.54 258.78V252.82L144.75 254.2C144.697 254.24 144.64 254.257 144.58 254.25C144.527 254.243 144.48 254.213 144.44 254.16L144.33 254.02C144.29 253.967 144.273 253.913 144.28 253.86C144.287 253.8 144.317 253.75 144.37 253.71L146.5 252.07C146.547 252.037 146.59 252.017 146.63 252.01C146.67 252.003 146.713 252 146.76 252H146.95C147.017 252 147.07 252.02 147.11 252.06C147.15 252.1 147.17 252.153 147.17 252.22V258.78C147.17 258.847 147.15 258.9 147.11 258.94C147.07 258.98 147.017 259 146.95 259H146.76ZM151.074 259.1C150.734 259.1 150.411 259.057 150.104 258.97C149.804 258.877 149.541 258.743 149.314 258.57C149.088 258.39 148.908 258.173 148.774 257.92C148.648 257.66 148.584 257.363 148.584 257.03C148.584 256.603 148.688 256.243 148.894 255.95C149.101 255.65 149.374 255.42 149.714 255.26C149.448 255.107 149.234 254.903 149.074 254.65C148.914 254.397 148.834 254.093 148.834 253.74C148.834 253.333 148.934 252.997 149.134 252.73C149.334 252.457 149.604 252.25 149.944 252.11C150.284 251.97 150.661 251.9 151.074 251.9C151.488 251.9 151.864 251.97 152.204 252.11C152.544 252.25 152.814 252.457 153.014 252.73C153.214 252.997 153.314 253.333 153.314 253.74C153.314 254.093 153.234 254.397 153.074 254.65C152.914 254.903 152.701 255.107 152.434 255.26C152.774 255.42 153.048 255.65 153.254 255.95C153.461 256.243 153.564 256.603 153.564 257.03C153.564 257.477 153.451 257.853 153.224 258.16C153.004 258.467 152.704 258.7 152.324 258.86C151.951 259.02 151.534 259.1 151.074 259.1ZM151.074 258.5C151.421 258.5 151.734 258.44 152.014 258.32C152.294 258.2 152.518 258.03 152.684 257.81C152.851 257.59 152.934 257.33 152.934 257.03C152.934 256.723 152.851 256.463 152.684 256.25C152.518 256.03 152.294 255.863 152.014 255.75C151.734 255.63 151.421 255.57 151.074 255.57C150.734 255.57 150.421 255.63 150.134 255.75C149.854 255.863 149.631 256.03 149.464 256.25C149.298 256.463 149.214 256.723 149.214 257.03C149.214 257.33 149.298 257.59 149.464 257.81C149.631 258.03 149.854 258.2 150.134 258.32C150.421 258.44 150.734 258.5 151.074 258.5ZM151.074 254.97C151.361 254.963 151.624 254.91 151.864 254.81C152.111 254.71 152.308 254.57 152.454 254.39C152.608 254.21 152.684 253.993 152.684 253.74C152.684 253.48 152.611 253.26 152.464 253.08C152.324 252.893 152.131 252.75 151.884 252.65C151.644 252.55 151.374 252.5 151.074 252.5C150.781 252.5 150.511 252.55 150.264 252.65C150.018 252.75 149.821 252.893 149.674 253.08C149.534 253.26 149.464 253.48 149.464 253.74C149.464 254 149.534 254.223 149.674 254.41C149.821 254.59 150.018 254.73 150.264 254.83C150.511 254.923 150.781 254.97 151.074 254.97ZM154.999 259C154.932 259 154.879 258.98 154.839 258.94C154.799 258.9 154.779 258.847 154.779 258.78V258.3C154.779 258.233 154.799 258.18 154.839 258.14C154.879 258.093 154.932 258.07 154.999 258.07H155.479C155.545 258.07 155.599 258.093 155.639 258.14C155.685 258.18 155.709 258.233 155.709 258.3V258.78C155.709 258.847 155.685 258.9 155.639 258.94C155.599 258.98 155.545 259 155.479 259H154.999ZM159.326 259.1C158.873 259.1 158.493 259.027 158.186 258.88C157.886 258.733 157.643 258.533 157.456 258.28C157.276 258.02 157.146 257.723 157.066 257.39C156.986 257.057 156.939 256.707 156.926 256.34C156.926 256.16 156.923 255.977 156.916 255.79C156.916 255.603 156.916 255.417 156.916 255.23C156.923 255.037 156.926 254.847 156.926 254.66C156.933 254.293 156.976 253.943 157.056 253.61C157.143 253.277 157.276 252.983 157.456 252.73C157.643 252.47 157.886 252.267 158.186 252.12C158.493 251.973 158.873 251.9 159.326 251.9C159.779 251.9 160.156 251.973 160.456 252.12C160.763 252.267 161.006 252.47 161.186 252.73C161.373 252.983 161.506 253.277 161.586 253.61C161.673 253.943 161.719 254.293 161.726 254.66C161.733 254.847 161.736 255.037 161.736 255.23C161.736 255.417 161.736 255.603 161.736 255.79C161.736 255.977 161.733 256.16 161.726 256.34C161.719 256.707 161.673 257.057 161.586 257.39C161.506 257.723 161.373 258.02 161.186 258.28C161.006 258.533 160.763 258.733 160.456 258.88C160.156 259.027 159.779 259.1 159.326 259.1ZM159.326 258.5C159.919 258.5 160.359 258.303 160.646 257.91C160.933 257.517 161.083 256.977 161.096 256.29C161.103 256.097 161.106 255.917 161.106 255.75C161.106 255.577 161.106 255.407 161.106 255.24C161.106 255.067 161.103 254.89 161.096 254.71C161.083 254.037 160.933 253.5 160.646 253.1C160.359 252.7 159.919 252.5 159.326 252.5C158.739 252.5 158.299 252.7 158.006 253.1C157.719 253.5 157.569 254.037 157.556 254.71C157.556 254.89 157.553 255.067 157.546 255.24C157.546 255.407 157.546 255.577 157.546 255.75C157.553 255.917 157.556 256.097 157.556 256.29C157.569 256.977 157.719 257.517 158.006 257.91C158.299 258.303 158.739 258.5 159.326 258.5ZM163.938 259C163.878 259 163.828 258.98 163.788 258.94C163.755 258.893 163.738 258.84 163.738 258.78C163.738 258.76 163.745 258.73 163.758 258.69L166.328 252.6H162.918C162.852 252.6 162.798 252.58 162.758 252.54C162.718 252.5 162.698 252.447 162.698 252.38V252.23C162.698 252.157 162.718 252.1 162.758 252.06C162.798 252.02 162.852 252 162.918 252H166.778C166.852 252 166.908 252.02 166.948 252.06C166.988 252.1 167.008 252.157 167.008 252.23V252.38C167.008 252.46 167.002 252.527 166.988 252.58C166.982 252.627 166.965 252.683 166.938 252.75L164.408 258.75C164.382 258.803 164.348 258.86 164.308 258.92C164.275 258.973 164.222 259 164.148 259H163.938Z" fill="#9D9D9D"/>
<path d="M187.76 259C187.693 259 187.64 258.98 187.6 258.94C187.56 258.9 187.54 258.847 187.54 258.78V252.82L185.75 254.2C185.697 254.24 185.64 254.257 185.58 254.25C185.527 254.243 185.48 254.213 185.44 254.16L185.33 254.02C185.29 253.967 185.273 253.913 185.28 253.86C185.287 253.8 185.317 253.75 185.37 253.71L187.5 252.07C187.547 252.037 187.59 252.017 187.63 252.01C187.67 252.003 187.713 252 187.76 252H187.95C188.017 252 188.07 252.02 188.11 252.06C188.15 252.1 188.17 252.153 188.17 252.22V258.78C188.17 258.847 188.15 258.9 188.11 258.94C188.07 258.98 188.017 259 187.95 259H187.76ZM190.994 259C190.934 259 190.884 258.98 190.844 258.94C190.811 258.893 190.794 258.84 190.794 258.78C190.794 258.747 190.801 258.72 190.814 258.7C190.828 258.68 190.838 258.663 190.844 258.65L192.424 256.43C192.224 256.483 192.008 256.51 191.774 256.51C191.374 256.51 191.024 256.443 190.724 256.31C190.431 256.177 190.184 256 189.984 255.78C189.791 255.553 189.644 255.307 189.544 255.04C189.451 254.767 189.404 254.49 189.404 254.21C189.404 253.93 189.451 253.653 189.544 253.38C189.644 253.107 189.791 252.86 189.984 252.64C190.184 252.413 190.431 252.233 190.724 252.1C191.024 251.967 191.374 251.9 191.774 251.9C192.174 251.9 192.521 251.967 192.814 252.1C193.114 252.233 193.364 252.413 193.564 252.64C193.764 252.86 193.911 253.107 194.004 253.38C194.104 253.653 194.154 253.93 194.154 254.21C194.154 254.47 194.121 254.707 194.054 254.92C193.988 255.133 193.908 255.32 193.814 255.48C193.728 255.64 193.644 255.777 193.564 255.89L191.504 258.8C191.478 258.833 191.441 258.877 191.394 258.93C191.354 258.977 191.288 259 191.194 259H190.994ZM191.774 255.91C192.088 255.91 192.378 255.84 192.644 255.7C192.911 255.56 193.124 255.363 193.284 255.11C193.444 254.857 193.524 254.557 193.524 254.21C193.524 253.857 193.444 253.553 193.284 253.3C193.124 253.047 192.911 252.85 192.644 252.71C192.378 252.57 192.088 252.5 191.774 252.5C191.461 252.5 191.171 252.57 190.904 252.71C190.644 252.85 190.434 253.047 190.274 253.3C190.114 253.553 190.034 253.857 190.034 254.21C190.034 254.557 190.114 254.857 190.274 255.11C190.434 255.363 190.644 255.56 190.904 255.7C191.171 255.84 191.461 255.91 191.774 255.91ZM194.954 259C194.887 259 194.834 258.98 194.794 258.94C194.754 258.9 194.734 258.847 194.734 258.78V258.3C194.734 258.233 194.754 258.18 194.794 258.14C194.834 258.093 194.887 258.07 194.954 258.07H195.434C195.501 258.07 195.554 258.093 195.594 258.14C195.641 258.18 195.664 258.233 195.664 258.3V258.78C195.664 258.847 195.641 258.9 195.594 258.94C195.554 258.98 195.501 259 195.434 259H194.954ZM199.281 259.1C198.828 259.1 198.448 259.027 198.141 258.88C197.841 258.733 197.598 258.533 197.411 258.28C197.231 258.02 197.101 257.723 197.021 257.39C196.941 257.057 196.895 256.707 196.881 256.34C196.881 256.16 196.878 255.977 196.871 255.79C196.871 255.603 196.871 255.417 196.871 255.23C196.878 255.037 196.881 254.847 196.881 254.66C196.888 254.293 196.931 253.943 197.011 253.61C197.098 253.277 197.231 252.983 197.411 252.73C197.598 252.47 197.841 252.267 198.141 252.12C198.448 251.973 198.828 251.9 199.281 251.9C199.735 251.9 200.111 251.973 200.411 252.12C200.718 252.267 200.961 252.47 201.141 252.73C201.328 252.983 201.461 253.277 201.541 253.61C201.628 253.943 201.675 254.293 201.681 254.66C201.688 254.847 201.691 255.037 201.691 255.23C201.691 255.417 201.691 255.603 201.691 255.79C201.691 255.977 201.688 256.16 201.681 256.34C201.675 256.707 201.628 257.057 201.541 257.39C201.461 257.723 201.328 258.02 201.141 258.28C200.961 258.533 200.718 258.733 200.411 258.88C200.111 259.027 199.735 259.1 199.281 259.1ZM199.281 258.5C199.875 258.5 200.315 258.303 200.601 257.91C200.888 257.517 201.038 256.977 201.051 256.29C201.058 256.097 201.061 255.917 201.061 255.75C201.061 255.577 201.061 255.407 201.061 255.24C201.061 255.067 201.058 254.89 201.051 254.71C201.038 254.037 200.888 253.5 200.601 253.1C200.315 252.7 199.875 252.5 199.281 252.5C198.695 252.5 198.255 252.7 197.961 253.1C197.675 253.5 197.525 254.037 197.511 254.71C197.511 254.89 197.508 255.067 197.501 255.24C197.501 255.407 197.501 255.577 197.501 255.75C197.508 255.917 197.511 256.097 197.511 256.29C197.525 256.977 197.675 257.517 197.961 257.91C198.255 258.303 198.695 258.5 199.281 258.5ZM203.893 259C203.833 259 203.783 258.98 203.743 258.94C203.71 258.893 203.693 258.84 203.693 258.78C203.693 258.76 203.7 258.73 203.713 258.69L206.283 252.6H202.873C202.807 252.6 202.753 252.58 202.713 252.54C202.673 252.5 202.653 252.447 202.653 252.38V252.23C202.653 252.157 202.673 252.1 202.713 252.06C202.753 252.02 202.807 252 202.873 252H206.733C206.807 252 206.863 252.02 206.903 252.06C206.943 252.1 206.963 252.157 206.963 252.23V252.38C206.963 252.46 206.957 252.527 206.943 252.58C206.937 252.627 206.92 252.683 206.893 252.75L204.363 258.75C204.337 258.803 204.303 258.86 204.263 258.92C204.23 258.973 204.177 259 204.103 259H203.893Z" fill="#9D9D9D"/>
<path d="M225.74 259C225.673 259 225.62 258.98 225.58 258.94C225.54 258.9 225.52 258.847 225.52 258.78V258.63C225.52 258.563 225.537 258.5 225.57 258.44C225.61 258.373 225.677 258.297 225.77 258.21L228.36 255.62C228.613 255.387 228.807 255.183 228.94 255.01C229.073 254.837 229.163 254.667 229.21 254.5C229.263 254.327 229.29 254.137 229.29 253.93C229.29 253.483 229.16 253.133 228.9 252.88C228.647 252.627 228.283 252.5 227.81 252.5C227.51 252.5 227.25 252.56 227.03 252.68C226.81 252.8 226.637 252.97 226.51 253.19C226.383 253.403 226.3 253.653 226.26 253.94C226.253 254.02 226.223 254.08 226.17 254.12C226.117 254.153 226.07 254.17 226.03 254.17H225.83C225.763 254.17 225.71 254.153 225.67 254.12C225.637 254.08 225.62 254.033 225.62 253.98C225.627 253.753 225.673 253.52 225.76 253.28C225.847 253.033 225.977 252.807 226.15 252.6C226.33 252.393 226.557 252.227 226.83 252.1C227.103 251.967 227.43 251.9 227.81 251.9C228.317 251.9 228.723 251.997 229.03 252.19C229.343 252.383 229.57 252.633 229.71 252.94C229.85 253.247 229.92 253.577 229.92 253.93C229.92 254.203 229.88 254.457 229.8 254.69C229.72 254.917 229.6 255.14 229.44 255.36C229.28 255.573 229.077 255.793 228.83 256.02L226.49 258.4H229.84C229.913 258.4 229.97 258.42 230.01 258.46C230.05 258.5 230.07 258.557 230.07 258.63V258.78C230.07 258.847 230.05 258.9 230.01 258.94C229.97 258.98 229.913 259 229.84 259H225.74ZM233.676 259.1C233.222 259.1 232.842 259.027 232.536 258.88C232.236 258.733 231.992 258.533 231.806 258.28C231.626 258.02 231.496 257.723 231.416 257.39C231.336 257.057 231.289 256.707 231.276 256.34C231.276 256.16 231.272 255.977 231.266 255.79C231.266 255.603 231.266 255.417 231.266 255.23C231.272 255.037 231.276 254.847 231.276 254.66C231.282 254.293 231.326 253.943 231.406 253.61C231.492 253.277 231.626 252.983 231.806 252.73C231.992 252.47 232.236 252.267 232.536 252.12C232.842 251.973 233.222 251.9 233.676 251.9C234.129 251.9 234.506 251.973 234.806 252.12C235.112 252.267 235.356 252.47 235.536 252.73C235.722 252.983 235.856 253.277 235.936 253.61C236.022 253.943 236.069 254.293 236.076 254.66C236.082 254.847 236.086 255.037 236.086 255.23C236.086 255.417 236.086 255.603 236.086 255.79C236.086 255.977 236.082 256.16 236.076 256.34C236.069 256.707 236.022 257.057 235.936 257.39C235.856 257.723 235.722 258.02 235.536 258.28C235.356 258.533 235.112 258.733 234.806 258.88C234.506 259.027 234.129 259.1 233.676 259.1ZM233.676 258.5C234.269 258.5 234.709 258.303 234.996 257.91C235.282 257.517 235.432 256.977 235.446 256.29C235.452 256.097 235.456 255.917 235.456 255.75C235.456 255.577 235.456 255.407 235.456 255.24C235.456 255.067 235.452 254.89 235.446 254.71C235.432 254.037 235.282 253.5 234.996 253.1C234.709 252.7 234.269 252.5 233.676 252.5C233.089 252.5 232.649 252.7 232.356 253.1C232.069 253.5 231.919 254.037 231.906 254.71C231.906 254.89 231.902 255.067 231.896 255.24C231.896 255.407 231.896 255.577 231.896 255.75C231.902 255.917 231.906 256.097 231.906 256.29C231.919 256.977 232.069 257.517 232.356 257.91C232.649 258.303 233.089 258.5 233.676 258.5ZM237.522 259C237.456 259 237.402 258.98 237.362 258.94C237.322 258.9 237.302 258.847 237.302 258.78V258.3C237.302 258.233 237.322 258.18 237.362 258.14C237.402 258.093 237.456 258.07 237.522 258.07H238.002C238.069 258.07 238.122 258.093 238.162 258.14C238.209 258.18 238.232 258.233 238.232 258.3V258.78C238.232 258.847 238.209 258.9 238.162 258.94C238.122 258.98 238.069 259 238.002 259H237.522ZM241.85 259.1C241.396 259.1 241.016 259.027 240.71 258.88C240.41 258.733 240.166 258.533 239.98 258.28C239.8 258.02 239.67 257.723 239.59 257.39C239.51 257.057 239.463 256.707 239.45 256.34C239.45 256.16 239.446 255.977 239.44 255.79C239.44 255.603 239.44 255.417 239.44 255.23C239.446 255.037 239.45 254.847 239.45 254.66C239.456 254.293 239.5 253.943 239.58 253.61C239.666 253.277 239.8 252.983 239.98 252.73C240.166 252.47 240.41 252.267 240.71 252.12C241.016 251.973 241.396 251.9 241.85 251.9C242.303 251.9 242.68 251.973 242.98 252.12C243.286 252.267 243.53 252.47 243.71 252.73C243.896 252.983 244.03 253.277 244.11 253.61C244.196 253.943 244.243 254.293 244.25 254.66C244.256 254.847 244.26 255.037 244.26 255.23C244.26 255.417 244.26 255.603 244.26 255.79C244.26 255.977 244.256 256.16 244.25 256.34C244.243 256.707 244.196 257.057 244.11 257.39C244.03 257.723 243.896 258.02 243.71 258.28C243.53 258.533 243.286 258.733 242.98 258.88C242.68 259.027 242.303 259.1 241.85 259.1ZM241.85 258.5C242.443 258.5 242.883 258.303 243.17 257.91C243.456 257.517 243.606 256.977 243.62 256.29C243.626 256.097 243.63 255.917 243.63 255.75C243.63 255.577 243.63 255.407 243.63 255.24C243.63 255.067 243.626 254.89 243.62 254.71C243.606 254.037 243.456 253.5 243.17 253.1C242.883 252.7 242.443 252.5 241.85 252.5C241.263 252.5 240.823 252.7 240.53 253.1C240.243 253.5 240.093 254.037 240.08 254.71C240.08 254.89 240.076 255.067 240.07 255.24C240.07 255.407 240.07 255.577 240.07 255.75C240.076 255.917 240.08 256.097 240.08 256.29C240.093 256.977 240.243 257.517 240.53 257.91C240.823 258.303 241.263 258.5 241.85 258.5ZM246.462 259C246.402 259 246.352 258.98 246.312 258.94C246.278 258.893 246.262 258.84 246.262 258.78C246.262 258.76 246.268 258.73 246.282 258.69L248.852 252.6H245.442C245.375 252.6 245.322 252.58 245.282 252.54C245.242 252.5 245.222 252.447 245.222 252.38V252.23C245.222 252.157 245.242 252.1 245.282 252.06C245.322 252.02 245.375 252 245.442 252H249.302C249.375 252 249.432 252.02 249.472 252.06C249.512 252.1 249.532 252.157 249.532 252.23V252.38C249.532 252.46 249.525 252.527 249.512 252.58C249.505 252.627 249.488 252.683 249.462 252.75L246.932 258.75C246.905 258.803 246.872 258.86 246.832 258.92C246.798 258.973 246.745 259 246.672 259H246.462Z" fill="#9D9D9D"/>
<path d="M267.74 259C267.673 259 267.62 258.98 267.58 258.94C267.54 258.9 267.52 258.847 267.52 258.78V258.63C267.52 258.563 267.537 258.5 267.57 258.44C267.61 258.373 267.677 258.297 267.77 258.21L270.36 255.62C270.613 255.387 270.807 255.183 270.94 255.01C271.073 254.837 271.163 254.667 271.21 254.5C271.263 254.327 271.29 254.137 271.29 253.93C271.29 253.483 271.16 253.133 270.9 252.88C270.647 252.627 270.283 252.5 269.81 252.5C269.51 252.5 269.25 252.56 269.03 252.68C268.81 252.8 268.637 252.97 268.51 253.19C268.383 253.403 268.3 253.653 268.26 253.94C268.253 254.02 268.223 254.08 268.17 254.12C268.117 254.153 268.07 254.17 268.03 254.17H267.83C267.763 254.17 267.71 254.153 267.67 254.12C267.637 254.08 267.62 254.033 267.62 253.98C267.627 253.753 267.673 253.52 267.76 253.28C267.847 253.033 267.977 252.807 268.15 252.6C268.33 252.393 268.557 252.227 268.83 252.1C269.103 251.967 269.43 251.9 269.81 251.9C270.317 251.9 270.723 251.997 271.03 252.19C271.343 252.383 271.57 252.633 271.71 252.94C271.85 253.247 271.92 253.577 271.92 253.93C271.92 254.203 271.88 254.457 271.8 254.69C271.72 254.917 271.6 255.14 271.44 255.36C271.28 255.573 271.077 255.793 270.83 256.02L268.49 258.4H271.84C271.913 258.4 271.97 258.42 272.01 258.46C272.05 258.5 272.07 258.557 272.07 258.63V258.78C272.07 258.847 272.05 258.9 272.01 258.94C271.97 258.98 271.913 259 271.84 259H267.74ZM275.356 259C275.289 259 275.236 258.98 275.196 258.94C275.156 258.9 275.136 258.847 275.136 258.78V252.82L273.346 254.2C273.292 254.24 273.236 254.257 273.176 254.25C273.122 254.243 273.076 254.213 273.036 254.16L272.926 254.02C272.886 253.967 272.869 253.913 272.876 253.86C272.882 253.8 272.912 253.75 272.966 253.71L275.096 252.07C275.142 252.037 275.186 252.017 275.226 252.01C275.266 252.003 275.309 252 275.356 252H275.546C275.612 252 275.666 252.02 275.706 252.06C275.746 252.1 275.766 252.153 275.766 252.22V258.78C275.766 258.847 275.746 258.9 275.706 258.94C275.666 258.98 275.612 259 275.546 259H275.356ZM277.53 259C277.463 259 277.41 258.98 277.37 258.94C277.33 258.9 277.31 258.847 277.31 258.78V258.3C277.31 258.233 277.33 258.18 277.37 258.14C277.41 258.093 277.463 258.07 277.53 258.07H278.01C278.077 258.07 278.13 258.093 278.17 258.14C278.217 258.18 278.24 258.233 278.24 258.3V258.78C278.24 258.847 278.217 258.9 278.17 258.94C278.13 258.98 278.077 259 278.01 259H277.53ZM281.857 259.1C281.404 259.1 281.024 259.027 280.717 258.88C280.417 258.733 280.174 258.533 279.987 258.28C279.807 258.02 279.677 257.723 279.597 257.39C279.517 257.057 279.471 256.707 279.457 256.34C279.457 256.16 279.454 255.977 279.447 255.79C279.447 255.603 279.447 255.417 279.447 255.23C279.454 255.037 279.457 254.847 279.457 254.66C279.464 254.293 279.507 253.943 279.587 253.61C279.674 253.277 279.807 252.983 279.987 252.73C280.174 252.47 280.417 252.267 280.717 252.12C281.024 251.973 281.404 251.9 281.857 251.9C282.311 251.9 282.687 251.973 282.987 252.12C283.294 252.267 283.537 252.47 283.717 252.73C283.904 252.983 284.037 253.277 284.117 253.61C284.204 253.943 284.251 254.293 284.257 254.66C284.264 254.847 284.267 255.037 284.267 255.23C284.267 255.417 284.267 255.603 284.267 255.79C284.267 255.977 284.264 256.16 284.257 256.34C284.251 256.707 284.204 257.057 284.117 257.39C284.037 257.723 283.904 258.02 283.717 258.28C283.537 258.533 283.294 258.733 282.987 258.88C282.687 259.027 282.311 259.1 281.857 259.1ZM281.857 258.5C282.451 258.5 282.891 258.303 283.177 257.91C283.464 257.517 283.614 256.977 283.627 256.29C283.634 256.097 283.637 255.917 283.637 255.75C283.637 255.577 283.637 255.407 283.637 255.24C283.637 255.067 283.634 254.89 283.627 254.71C283.614 254.037 283.464 253.5 283.177 253.1C282.891 252.7 282.451 252.5 281.857 252.5C281.271 252.5 280.831 252.7 280.537 253.1C280.251 253.5 280.101 254.037 280.087 254.71C280.087 254.89 280.084 255.067 280.077 255.24C280.077 255.407 280.077 255.577 280.077 255.75C280.084 255.917 280.087 256.097 280.087 256.29C280.101 256.977 280.251 257.517 280.537 257.91C280.831 258.303 281.271 258.5 281.857 258.5ZM286.469 259C286.409 259 286.359 258.98 286.319 258.94C286.286 258.893 286.269 258.84 286.269 258.78C286.269 258.76 286.276 258.73 286.289 258.69L288.859 252.6H285.449C285.383 252.6 285.329 252.58 285.289 252.54C285.249 252.5 285.229 252.447 285.229 252.38V252.23C285.229 252.157 285.249 252.1 285.289 252.06C285.329 252.02 285.383 252 285.449 252H289.309C289.383 252 289.439 252.02 289.479 252.06C289.519 252.1 289.539 252.157 289.539 252.23V252.38C289.539 252.46 289.533 252.527 289.519 252.58C289.513 252.627 289.496 252.683 289.469 252.75L286.939 258.75C286.913 258.803 286.879 258.86 286.839 258.92C286.806 258.973 286.753 259 286.679 259H286.469Z" fill="#9D9D9D"/>
<path d="M307.74 259C307.673 259 307.62 258.98 307.58 258.94C307.54 258.9 307.52 258.847 307.52 258.78V258.63C307.52 258.563 307.537 258.5 307.57 258.44C307.61 258.373 307.677 258.297 307.77 258.21L310.36 255.62C310.613 255.387 310.807 255.183 310.94 255.01C311.073 254.837 311.163 254.667 311.21 254.5C311.263 254.327 311.29 254.137 311.29 253.93C311.29 253.483 311.16 253.133 310.9 252.88C310.647 252.627 310.283 252.5 309.81 252.5C309.51 252.5 309.25 252.56 309.03 252.68C308.81 252.8 308.637 252.97 308.51 253.19C308.383 253.403 308.3 253.653 308.26 253.94C308.253 254.02 308.223 254.08 308.17 254.12C308.117 254.153 308.07 254.17 308.03 254.17H307.83C307.763 254.17 307.71 254.153 307.67 254.12C307.637 254.08 307.62 254.033 307.62 253.98C307.627 253.753 307.673 253.52 307.76 253.28C307.847 253.033 307.977 252.807 308.15 252.6C308.33 252.393 308.557 252.227 308.83 252.1C309.103 251.967 309.43 251.9 309.81 251.9C310.317 251.9 310.723 251.997 311.03 252.19C311.343 252.383 311.57 252.633 311.71 252.94C311.85 253.247 311.92 253.577 311.92 253.93C311.92 254.203 311.88 254.457 311.8 254.69C311.72 254.917 311.6 255.14 311.44 255.36C311.28 255.573 311.077 255.793 310.83 256.02L308.49 258.4H311.84C311.913 258.4 311.97 258.42 312.01 258.46C312.05 258.5 312.07 258.557 312.07 258.63V258.78C312.07 258.847 312.05 258.9 312.01 258.94C311.97 258.98 311.913 259 311.84 259H307.74ZM313.336 259C313.269 259 313.216 258.98 313.176 258.94C313.136 258.9 313.116 258.847 313.116 258.78V258.63C313.116 258.563 313.132 258.5 313.166 258.44C313.206 258.373 313.272 258.297 313.366 258.21L315.956 255.62C316.209 255.387 316.402 255.183 316.536 255.01C316.669 254.837 316.759 254.667 316.806 254.5C316.859 254.327 316.886 254.137 316.886 253.93C316.886 253.483 316.756 253.133 316.496 252.88C316.242 252.627 315.879 252.5 315.406 252.5C315.106 252.5 314.846 252.56 314.626 252.68C314.406 252.8 314.232 252.97 314.106 253.19C313.979 253.403 313.896 253.653 313.856 253.94C313.849 254.02 313.819 254.08 313.766 254.12C313.712 254.153 313.666 254.17 313.626 254.17H313.426C313.359 254.17 313.306 254.153 313.266 254.12C313.232 254.08 313.216 254.033 313.216 253.98C313.222 253.753 313.269 253.52 313.356 253.28C313.442 253.033 313.572 252.807 313.746 252.6C313.926 252.393 314.152 252.227 314.426 252.1C314.699 251.967 315.026 251.9 315.406 251.9C315.912 251.9 316.319 251.997 316.626 252.19C316.939 252.383 317.166 252.633 317.306 252.94C317.446 253.247 317.516 253.577 317.516 253.93C317.516 254.203 317.476 254.457 317.396 254.69C317.316 254.917 317.196 255.14 317.036 255.36C316.876 255.573 316.672 255.793 316.426 256.02L314.086 258.4H317.436C317.509 258.4 317.566 258.42 317.606 258.46C317.646 258.5 317.666 258.557 317.666 258.63V258.78C317.666 258.847 317.646 258.9 317.606 258.94C317.566 258.98 317.509 259 317.436 259H313.336ZM319.141 259C319.075 259 319.021 258.98 318.981 258.94C318.941 258.9 318.921 258.847 318.921 258.78V258.3C318.921 258.233 318.941 258.18 318.981 258.14C319.021 258.093 319.075 258.07 319.141 258.07H319.621C319.688 258.07 319.741 258.093 319.781 258.14C319.828 258.18 319.851 258.233 319.851 258.3V258.78C319.851 258.847 319.828 258.9 319.781 258.94C319.741 258.98 319.688 259 319.621 259H319.141ZM323.469 259.1C323.015 259.1 322.635 259.027 322.329 258.88C322.029 258.733 321.785 258.533 321.599 258.28C321.419 258.02 321.289 257.723 321.209 257.39C321.129 257.057 321.082 256.707 321.069 256.34C321.069 256.16 321.065 255.977 321.059 255.79C321.059 255.603 321.059 255.417 321.059 255.23C321.065 255.037 321.069 254.847 321.069 254.66C321.075 254.293 321.119 253.943 321.199 253.61C321.285 253.277 321.419 252.983 321.599 252.73C321.785 252.47 322.029 252.267 322.329 252.12C322.635 251.973 323.015 251.9 323.469 251.9C323.922 251.9 324.299 251.973 324.599 252.12C324.905 252.267 325.149 252.47 325.329 252.73C325.515 252.983 325.649 253.277 325.729 253.61C325.815 253.943 325.862 254.293 325.869 254.66C325.875 254.847 325.879 255.037 325.879 255.23C325.879 255.417 325.879 255.603 325.879 255.79C325.879 255.977 325.875 256.16 325.869 256.34C325.862 256.707 325.815 257.057 325.729 257.39C325.649 257.723 325.515 258.02 325.329 258.28C325.149 258.533 324.905 258.733 324.599 258.88C324.299 259.027 323.922 259.1 323.469 259.1ZM323.469 258.5C324.062 258.5 324.502 258.303 324.789 257.91C325.075 257.517 325.225 256.977 325.239 256.29C325.245 256.097 325.249 255.917 325.249 255.75C325.249 255.577 325.249 255.407 325.249 255.24C325.249 255.067 325.245 254.89 325.239 254.71C325.225 254.037 325.075 253.5 324.789 253.1C324.502 252.7 324.062 252.5 323.469 252.5C322.882 252.5 322.442 252.7 322.149 253.1C321.862 253.5 321.712 254.037 321.699 254.71C321.699 254.89 321.695 255.067 321.689 255.24C321.689 255.407 321.689 255.577 321.689 255.75C321.695 255.917 321.699 256.097 321.699 256.29C321.712 256.977 321.862 257.517 322.149 257.91C322.442 258.303 322.882 258.5 323.469 258.5ZM328.081 259C328.021 259 327.971 258.98 327.931 258.94C327.897 258.893 327.881 258.84 327.881 258.78C327.881 258.76 327.887 258.73 327.901 258.69L330.471 252.6H327.061C326.994 252.6 326.941 252.58 326.901 252.54C326.861 252.5 326.841 252.447 326.841 252.38V252.23C326.841 252.157 326.861 252.1 326.901 252.06C326.941 252.02 326.994 252 327.061 252H330.921C330.994 252 331.051 252.02 331.091 252.06C331.131 252.1 331.151 252.157 331.151 252.23V252.38C331.151 252.46 331.144 252.527 331.131 252.58C331.124 252.627 331.107 252.683 331.081 252.75L328.551 258.75C328.524 258.803 328.491 258.86 328.451 258.92C328.417 258.973 328.364 259 328.291 259H328.081Z" fill="#9D9D9D"/>
<path fill-rule="evenodd" clip-rule="evenodd" d="M165 85C167.209 85 169 83.2091 169 81C169 78.7909 167.209 77 165 77C162.791 77 161 78.7909 161 81C161 83.2091 162.791 85 165 85ZM164.651 83.4329C164.679 83.4606 164.712 83.4745 164.752 83.4745H165.244C165.288 83.4745 165.321 83.4606 165.345 83.4329C165.373 83.4053 165.387 83.3716 165.387 83.3321V80.5321C165.387 80.4925 165.373 80.4589 165.345 80.4312C165.321 80.4036 165.288 80.3897 165.244 80.3897H164.752C164.712 80.3897 164.679 80.4036 164.651 80.4312C164.623 80.4589 164.609 80.4925 164.609 80.5321V83.3321C164.609 83.3716 164.623 83.4053 164.651 83.4329ZM164.621 79.8439C164.649 79.8677 164.685 79.8795 164.728 79.8795H165.268C165.311 79.8795 165.347 79.8677 165.375 79.8439C165.402 79.8163 165.416 79.7807 165.416 79.7372V79.3101C165.416 79.2705 165.402 79.2369 165.375 79.2092C165.347 79.1815 165.311 79.1677 165.268 79.1677H164.728C164.685 79.1677 164.649 79.1815 164.621 79.2092C164.598 79.2369 164.586 79.2705 164.586 79.3101V79.7372C164.586 79.7807 164.598 79.8163 164.621 79.8439Z" fill="#9D9D9D"/>
<path d="M81.54 88C81.4373 88 81.358 87.972 81.302 87.916C81.246 87.8507 81.218 87.7713 81.218 87.678V78.536C81.218 78.4333 81.246 78.354 81.302 78.298C81.358 78.2327 81.4373 78.2 81.54 78.2H85.096C85.7867 78.2 86.384 78.312 86.888 78.536C87.4013 78.76 87.798 79.096 88.078 79.544C88.358 79.9827 88.498 80.5333 88.498 81.196C88.498 81.8587 88.358 82.4093 88.078 82.848C87.798 83.2867 87.4013 83.618 86.888 83.842C86.384 84.066 85.7867 84.178 85.096 84.178H82.618V87.678C82.618 87.7713 82.5853 87.8507 82.52 87.916C82.464 87.972 82.3847 88 82.282 88H81.54ZM82.604 83.002H85.026C85.7167 83.002 86.2347 82.848 86.58 82.54C86.9253 82.232 87.098 81.784 87.098 81.196C87.098 80.6173 86.93 80.1693 86.594 79.852C86.258 79.5347 85.7353 79.376 85.026 79.376H82.604V83.002ZM90.5224 88C90.4198 88 90.3404 87.972 90.2844 87.916C90.2284 87.8507 90.2004 87.7713 90.2004 87.678V78.536C90.2004 78.4333 90.2284 78.354 90.2844 78.298C90.3404 78.2327 90.4198 78.2 90.5224 78.2H91.1664C91.2784 78.2 91.3624 78.228 91.4184 78.284C91.4744 78.3307 91.5071 78.368 91.5164 78.396L96.1644 85.536V78.536C96.1644 78.4333 96.1924 78.354 96.2484 78.298C96.3044 78.2327 96.3838 78.2 96.4864 78.2H97.1584C97.2611 78.2 97.3404 78.2327 97.3964 78.298C97.4618 78.354 97.4944 78.4333 97.4944 78.536V87.664C97.4944 87.7573 97.4618 87.8367 97.3964 87.902C97.3404 87.9673 97.2658 88 97.1724 88H96.5004C96.3978 88 96.3184 87.972 96.2624 87.916C96.2158 87.86 96.1831 87.8227 96.1644 87.804L91.5304 80.734V87.678C91.5304 87.7713 91.4978 87.8507 91.4324 87.916C91.3764 87.972 91.2971 88 91.1944 88H90.5224ZM100.243 88C100.14 88 100.061 87.972 100.005 87.916C99.9491 87.8507 99.9211 87.7713 99.9211 87.678V78.522C99.9211 78.4287 99.9491 78.354 100.005 78.298C100.061 78.2327 100.14 78.2 100.243 78.2H100.985C101.078 78.2 101.153 78.2327 101.209 78.298C101.265 78.354 101.293 78.4287 101.293 78.522V86.782H105.955C106.058 86.782 106.137 86.8147 106.193 86.88C106.249 86.936 106.277 87.0153 106.277 87.118V87.678C106.277 87.7713 106.249 87.8507 106.193 87.916C106.137 87.972 106.058 88 105.955 88H100.243ZM113.728 90.226C113.122 90.226 112.608 90.0953 112.188 89.834C111.768 89.582 111.432 89.19 111.18 88.658C110.928 88.126 110.742 87.4493 110.62 86.628C110.508 85.7973 110.452 84.8127 110.452 83.674C110.452 82.5353 110.508 81.5553 110.62 80.734C110.742 79.9033 110.928 79.222 111.18 78.69C111.432 78.158 111.768 77.766 112.188 77.514C112.608 77.262 113.122 77.136 113.728 77.136C113.812 77.136 113.887 77.1687 113.952 77.234C114.018 77.2993 114.05 77.374 114.05 77.458V77.948C114.05 78.032 114.018 78.1067 113.952 78.172C113.896 78.2373 113.836 78.27 113.77 78.27C113.378 78.2793 113.047 78.382 112.776 78.578C112.515 78.7647 112.3 79.068 112.132 79.488C111.974 79.908 111.857 80.4633 111.782 81.154C111.717 81.8353 111.684 82.6753 111.684 83.674C111.684 84.6727 111.717 85.5173 111.782 86.208C111.857 86.8893 111.974 87.4447 112.132 87.874C112.3 88.294 112.515 88.5973 112.776 88.784C113.047 88.98 113.378 89.0827 113.77 89.092C113.836 89.092 113.896 89.1247 113.952 89.19C114.018 89.2553 114.05 89.33 114.05 89.414V89.904C114.05 89.988 114.018 90.0627 113.952 90.128C113.887 90.1933 113.812 90.226 113.728 90.226ZM119.162 88.14C118.378 88.14 117.701 88 117.132 87.72C116.572 87.44 116.138 87.0153 115.83 86.446C115.531 85.8673 115.382 85.1253 115.382 84.22V78.536C115.382 78.4333 115.41 78.354 115.466 78.298C115.522 78.2327 115.601 78.2 115.704 78.2H116.418C116.521 78.2 116.6 78.2327 116.656 78.298C116.721 78.354 116.754 78.4333 116.754 78.536V84.248C116.754 85.1627 116.969 85.8393 117.398 86.278C117.827 86.7167 118.415 86.936 119.162 86.936C119.899 86.936 120.483 86.7167 120.912 86.278C121.351 85.8393 121.57 85.1627 121.57 84.248V78.536C121.57 78.4333 121.598 78.354 121.654 78.298C121.719 78.2327 121.799 78.2 121.892 78.2H122.62C122.713 78.2 122.788 78.2327 122.844 78.298C122.909 78.354 122.942 78.4333 122.942 78.536V84.22C122.942 85.1253 122.788 85.8673 122.48 86.446C122.181 87.0153 121.752 87.44 121.192 87.72C120.632 88 119.955 88.14 119.162 88.14ZM128.432 88.14C127.62 88.14 126.939 88.0187 126.388 87.776C125.838 87.524 125.413 87.202 125.114 86.81C124.825 86.4087 124.671 85.984 124.652 85.536C124.652 85.4613 124.68 85.396 124.736 85.34C124.802 85.2747 124.876 85.242 124.96 85.242H125.674C125.786 85.242 125.87 85.27 125.926 85.326C125.982 85.382 126.02 85.4473 126.038 85.522C126.085 85.746 126.197 85.97 126.374 86.194C126.561 86.4087 126.818 86.5907 127.144 86.74C127.48 86.88 127.91 86.95 128.432 86.95C129.235 86.95 129.823 86.81 130.196 86.53C130.579 86.2407 130.77 85.858 130.77 85.382C130.77 85.0553 130.668 84.794 130.462 84.598C130.266 84.3927 129.963 84.2107 129.552 84.052C129.142 83.8933 128.61 83.7207 127.956 83.534C127.275 83.338 126.71 83.1233 126.262 82.89C125.814 82.6567 125.478 82.3673 125.254 82.022C125.04 81.6767 124.932 81.238 124.932 80.706C124.932 80.202 125.068 79.754 125.338 79.362C125.609 78.9607 125.996 78.6433 126.5 78.41C127.014 78.1767 127.634 78.06 128.362 78.06C128.941 78.06 129.445 78.1393 129.874 78.298C130.313 78.4473 130.677 78.6527 130.966 78.914C131.256 79.166 131.475 79.4413 131.624 79.74C131.774 80.0293 131.853 80.314 131.862 80.594C131.862 80.6593 131.839 80.7247 131.792 80.79C131.746 80.846 131.671 80.874 131.568 80.874H130.826C130.761 80.874 130.691 80.8553 130.616 80.818C130.551 80.7807 130.5 80.7107 130.462 80.608C130.406 80.2253 130.192 79.9033 129.818 79.642C129.445 79.3807 128.96 79.25 128.362 79.25C127.756 79.25 127.261 79.3667 126.878 79.6C126.505 79.8333 126.318 80.1973 126.318 80.692C126.318 81.0093 126.407 81.2753 126.584 81.49C126.762 81.6953 127.042 81.8773 127.424 82.036C127.807 82.1947 128.306 82.3627 128.922 82.54C129.669 82.7453 130.28 82.9647 130.756 83.198C131.232 83.422 131.582 83.7067 131.806 84.052C132.04 84.388 132.156 84.822 132.156 85.354C132.156 85.942 132.002 86.446 131.694 86.866C131.386 87.2767 130.952 87.594 130.392 87.818C129.842 88.0327 129.188 88.14 128.432 88.14ZM134.313 88C134.211 88 134.131 87.972 134.075 87.916C134.019 87.8507 133.991 87.7713 133.991 87.678V78.536C133.991 78.4333 134.019 78.354 134.075 78.298C134.131 78.2327 134.211 78.2 134.313 78.2H137.491C138.453 78.2 139.227 78.3447 139.815 78.634C140.403 78.9233 140.833 79.3527 141.103 79.922C141.374 80.482 141.514 81.1727 141.523 81.994C141.533 82.414 141.537 82.7827 141.537 83.1C141.537 83.4173 141.533 83.7813 141.523 84.192C141.505 85.0507 141.36 85.7647 141.089 86.334C140.828 86.894 140.408 87.314 139.829 87.594C139.26 87.8647 138.504 88 137.561 88H134.313ZM135.363 86.81H137.491C138.135 86.81 138.649 86.7213 139.031 86.544C139.414 86.3667 139.689 86.082 139.857 85.69C140.035 85.298 140.128 84.78 140.137 84.136C140.156 83.856 140.165 83.6133 140.165 83.408C140.165 83.1933 140.165 82.9833 140.165 82.778C140.165 82.5633 140.156 82.3207 140.137 82.05C140.119 81.1447 139.904 80.4773 139.493 80.048C139.083 79.6093 138.392 79.39 137.421 79.39H135.363V86.81ZM145.916 88C145.823 88 145.744 87.972 145.678 87.916C145.622 87.8507 145.594 87.7713 145.594 87.678V79.446H142.906C142.813 79.446 142.734 79.418 142.668 79.362C142.612 79.2967 142.584 79.2173 142.584 79.124V78.536C142.584 78.4333 142.612 78.354 142.668 78.298C142.734 78.2327 142.813 78.2 142.906 78.2H149.654C149.757 78.2 149.836 78.2327 149.892 78.298C149.958 78.354 149.99 78.4333 149.99 78.536V79.124C149.99 79.2173 149.958 79.2967 149.892 79.362C149.836 79.418 149.757 79.446 149.654 79.446H146.98V87.678C146.98 87.7713 146.948 87.8507 146.882 87.916C146.826 87.972 146.747 88 146.644 88H145.916ZM151 90.226C150.916 90.226 150.841 90.1933 150.776 90.128C150.71 90.0627 150.678 89.988 150.678 89.904V89.414C150.678 89.33 150.706 89.2553 150.762 89.19C150.827 89.1247 150.897 89.092 150.972 89.092C151.364 89.0827 151.69 88.98 151.952 88.784C152.222 88.5973 152.437 88.294 152.596 87.874C152.754 87.4447 152.871 86.8893 152.946 86.208C153.02 85.5173 153.058 84.6727 153.058 83.674C153.058 82.6753 153.02 81.8353 152.946 81.154C152.871 80.4633 152.754 79.908 152.596 79.488C152.437 79.068 152.222 78.7647 151.952 78.578C151.69 78.382 151.364 78.2793 150.972 78.27C150.897 78.27 150.827 78.2373 150.762 78.172C150.706 78.1067 150.678 78.032 150.678 77.948V77.458C150.678 77.374 150.71 77.2993 150.776 77.234C150.841 77.1687 150.916 77.136 151 77.136C151.606 77.136 152.12 77.262 152.54 77.514C152.96 77.766 153.296 78.158 153.548 78.69C153.8 79.222 153.982 79.9033 154.094 80.734C154.215 81.5553 154.276 82.5353 154.276 83.674C154.276 84.8127 154.215 85.7973 154.094 86.628C153.982 87.4493 153.8 88.126 153.548 88.658C153.296 89.19 152.96 89.582 152.54 89.834C152.12 90.0953 151.606 90.226 151 90.226Z" fill="#9D9D9D"/>
<path d="M91.8577 111C91.791 111 91.7377 110.98 91.6977 110.94C91.6577 110.9 91.6377 110.847 91.6377 110.78V104.82L89.8477 106.2C89.7943 106.24 89.7377 106.257 89.6777 106.25C89.6243 106.243 89.5777 106.213 89.5377 106.16L89.4277 106.02C89.3877 105.967 89.371 105.913 89.3777 105.86C89.3843 105.8 89.4143 105.75 89.4677 105.71L91.5977 104.07C91.6443 104.037 91.6877 104.017 91.7277 104.01C91.7677 104.003 91.811 104 91.8577 104H92.0477C92.1143 104 92.1677 104.02 92.2077 104.06C92.2477 104.1 92.2677 104.153 92.2677 104.22V110.78C92.2677 110.847 92.2477 110.9 92.2077 110.94C92.1677 110.98 92.1143 111 92.0477 111H91.8577ZM96.162 111.1C95.7087 111.1 95.3287 111.027 95.022 110.88C94.722 110.733 94.4787 110.533 94.292 110.28C94.112 110.02 93.982 109.723 93.902 109.39C93.822 109.057 93.7754 108.707 93.762 108.34C93.762 108.16 93.7587 107.977 93.752 107.79C93.752 107.603 93.752 107.417 93.752 107.23C93.7587 107.037 93.762 106.847 93.762 106.66C93.7687 106.293 93.812 105.943 93.892 105.61C93.9787 105.277 94.112 104.983 94.292 104.73C94.4787 104.47 94.722 104.267 95.022 104.12C95.3287 103.973 95.7087 103.9 96.162 103.9C96.6154 103.9 96.992 103.973 97.292 104.12C97.5987 104.267 97.842 104.47 98.022 104.73C98.2087 104.983 98.342 105.277 98.422 105.61C98.5087 105.943 98.5554 106.293 98.562 106.66C98.5687 106.847 98.572 107.037 98.572 107.23C98.572 107.417 98.572 107.603 98.572 107.79C98.572 107.977 98.5687 108.16 98.562 108.34C98.5554 108.707 98.5087 109.057 98.422 109.39C98.342 109.723 98.2087 110.02 98.022 110.28C97.842 110.533 97.5987 110.733 97.292 110.88C96.992 111.027 96.6154 111.1 96.162 111.1ZM96.162 110.5C96.7554 110.5 97.1954 110.303 97.482 109.91C97.7687 109.517 97.9187 108.977 97.932 108.29C97.9387 108.097 97.942 107.917 97.942 107.75C97.942 107.577 97.942 107.407 97.942 107.24C97.942 107.067 97.9387 106.89 97.932 106.71C97.9187 106.037 97.7687 105.5 97.482 105.1C97.1954 104.7 96.7554 104.5 96.162 104.5C95.5754 104.5 95.1354 104.7 94.842 105.1C94.5554 105.5 94.4054 106.037 94.392 106.71C94.392 106.89 94.3887 107.067 94.382 107.24C94.382 107.407 94.382 107.577 94.382 107.75C94.3887 107.917 94.392 108.097 94.392 108.29C94.4054 108.977 94.5554 109.517 94.842 109.91C95.1354 110.303 95.5754 110.5 96.162 110.5ZM100.284 111C100.217 111 100.164 110.98 100.124 110.94C100.084 110.9 100.064 110.847 100.064 110.78V104.12C100.064 104.053 100.084 104 100.124 103.96C100.164 103.92 100.217 103.9 100.284 103.9H100.454C100.521 103.9 100.574 103.92 100.614 103.96C100.654 104 100.674 104.053 100.674 104.12V107.66L102.904 105.97C102.997 105.897 103.064 105.85 103.104 105.83C103.151 105.81 103.224 105.8 103.324 105.8H103.514C103.574 105.8 103.621 105.82 103.654 105.86C103.694 105.893 103.714 105.94 103.714 106C103.714 106.027 103.704 106.06 103.684 106.1C103.671 106.133 103.637 106.167 103.584 106.2L101.054 108.12L103.834 110.6C103.921 110.68 103.964 110.747 103.964 110.8C103.964 110.86 103.944 110.91 103.904 110.95C103.871 110.983 103.824 111 103.764 111H103.604C103.504 111 103.431 110.993 103.384 110.98C103.344 110.96 103.277 110.91 103.184 110.83L100.674 108.6V110.78C100.674 110.847 100.654 110.9 100.614 110.94C100.574 110.98 100.521 111 100.454 111H100.284Z" fill="#9D9D9D"/>
<path d="M88.3718 141C88.3118 141 88.2618 140.98 88.2218 140.94C88.1885 140.893 88.1718 140.84 88.1718 140.78C88.1718 140.76 88.1785 140.73 88.1918 140.69L90.7618 134.6H87.3518C87.2851 134.6 87.2318 134.58 87.1918 134.54C87.1518 134.5 87.1318 134.447 87.1318 134.38V134.23C87.1318 134.157 87.1518 134.1 87.1918 134.06C87.2318 134.02 87.2851 134 87.3518 134H91.2118C91.2851 134 91.3418 134.02 91.3818 134.06C91.4218 134.1 91.4418 134.157 91.4418 134.23V134.38C91.4418 134.46 91.4351 134.527 91.4218 134.58C91.4151 134.627 91.3985 134.683 91.3718 134.75L88.8418 140.75C88.8151 140.803 88.7818 140.86 88.7418 140.92C88.7085 140.973 88.6551 141 88.5818 141H88.3718ZM91.9715 141C91.9048 141 91.8515 140.98 91.8115 140.94C91.7715 140.9 91.7515 140.847 91.7515 140.78V140.3C91.7515 140.233 91.7715 140.18 91.8115 140.14C91.8515 140.093 91.9048 140.07 91.9715 140.07H92.4515C92.5182 140.07 92.5715 140.093 92.6115 140.14C92.6582 140.18 92.6815 140.233 92.6815 140.3V140.78C92.6815 140.847 92.6582 140.9 92.6115 140.94C92.5715 140.98 92.5182 141 92.4515 141H91.9715ZM96.2043 141.1C95.7176 141.1 95.3043 141.01 94.9643 140.83C94.631 140.65 94.3743 140.42 94.1943 140.14C94.0143 139.853 93.9176 139.557 93.9043 139.25C93.8976 139.19 93.9143 139.143 93.9543 139.11C93.9943 139.077 94.0443 139.06 94.1043 139.06H94.2943C94.3476 139.06 94.3943 139.073 94.4343 139.1C94.481 139.127 94.5176 139.19 94.5443 139.29C94.6176 139.577 94.7376 139.81 94.9043 139.99C95.0776 140.17 95.2776 140.3 95.5043 140.38C95.731 140.46 95.9643 140.5 96.2043 140.5C96.531 140.5 96.8276 140.433 97.0943 140.3C97.3676 140.167 97.5843 139.97 97.7443 139.71C97.9043 139.45 97.9843 139.133 97.9843 138.76C97.9843 138.413 97.9043 138.12 97.7443 137.88C97.5843 137.633 97.3676 137.447 97.0943 137.32C96.8276 137.187 96.531 137.12 96.2043 137.12C95.9576 137.12 95.7543 137.15 95.5943 137.21C95.4343 137.27 95.301 137.34 95.1943 137.42C95.0876 137.5 94.991 137.57 94.9043 137.63C94.8176 137.69 94.721 137.72 94.6143 137.72H94.4343C94.3743 137.72 94.321 137.7 94.2743 137.66C94.2276 137.613 94.2076 137.56 94.2143 137.5L94.5143 134.23C94.521 134.157 94.541 134.1 94.5743 134.06C94.6143 134.02 94.6676 134 94.7343 134H97.9943C98.061 134 98.1143 134.02 98.1543 134.06C98.1943 134.1 98.2143 134.153 98.2143 134.22V134.38C98.2143 134.447 98.1943 134.5 98.1543 134.54C98.1143 134.58 98.061 134.6 97.9943 134.6H95.1243L94.9143 136.86C94.9876 136.813 95.1276 136.747 95.3343 136.66C95.541 136.567 95.831 136.52 96.2043 136.52C96.5376 136.52 96.8476 136.57 97.1343 136.67C97.4276 136.763 97.6843 136.907 97.9043 137.1C98.131 137.287 98.3043 137.52 98.4243 137.8C98.551 138.073 98.6143 138.393 98.6143 138.76C98.6143 139.28 98.5043 139.713 98.2843 140.06C98.071 140.407 97.781 140.667 97.4143 140.84C97.0543 141.013 96.651 141.1 96.2043 141.1ZM100.167 141C100.1 141 100.047 140.98 100.007 140.94C99.967 140.9 99.947 140.847 99.947 140.78V134.12C99.947 134.053 99.967 134 100.007 133.96C100.047 133.92 100.1 133.9 100.167 133.9H100.337C100.404 133.9 100.457 133.92 100.497 133.96C100.537 134 100.557 134.053 100.557 134.12V137.66L102.787 135.97C102.88 135.897 102.947 135.85 102.987 135.83C103.034 135.81 103.107 135.8 103.207 135.8H103.397C103.457 135.8 103.504 135.82 103.537 135.86C103.577 135.893 103.597 135.94 103.597 136C103.597 136.027 103.587 136.06 103.567 136.1C103.554 136.133 103.52 136.167 103.467 136.2L100.937 138.12L103.717 140.6C103.804 140.68 103.847 140.747 103.847 140.8C103.847 140.86 103.827 140.91 103.787 140.95C103.754 140.983 103.707 141 103.647 141H103.487C103.387 141 103.314 140.993 103.267 140.98C103.227 140.96 103.16 140.91 103.067 140.83L100.557 138.6V140.78C100.557 140.847 100.537 140.9 100.497 140.94C100.457 140.98 100.404 141 100.337 141H100.167Z" fill="#9D9D9D"/>
<path d="M96.3215 171.1C95.8348 171.1 95.4215 171.01 95.0815 170.83C94.7482 170.65 94.4915 170.42 94.3115 170.14C94.1315 169.853 94.0348 169.557 94.0215 169.25C94.0148 169.19 94.0315 169.143 94.0715 169.11C94.1115 169.077 94.1615 169.06 94.2215 169.06H94.4115C94.4648 169.06 94.5115 169.073 94.5515 169.1C94.5982 169.127 94.6348 169.19 94.6615 169.29C94.7348 169.577 94.8548 169.81 95.0215 169.99C95.1948 170.17 95.3948 170.3 95.6215 170.38C95.8482 170.46 96.0815 170.5 96.3215 170.5C96.6482 170.5 96.9448 170.433 97.2115 170.3C97.4848 170.167 97.7015 169.97 97.8615 169.71C98.0215 169.45 98.1015 169.133 98.1015 168.76C98.1015 168.413 98.0215 168.12 97.8615 167.88C97.7015 167.633 97.4848 167.447 97.2115 167.32C96.9448 167.187 96.6482 167.12 96.3215 167.12C96.0748 167.12 95.8715 167.15 95.7115 167.21C95.5515 167.27 95.4182 167.34 95.3115 167.42C95.2048 167.5 95.1082 167.57 95.0215 167.63C94.9348 167.69 94.8382 167.72 94.7315 167.72H94.5515C94.4915 167.72 94.4382 167.7 94.3915 167.66C94.3448 167.613 94.3248 167.56 94.3315 167.5L94.6315 164.23C94.6382 164.157 94.6582 164.1 94.6915 164.06C94.7315 164.02 94.7848 164 94.8515 164H98.1115C98.1782 164 98.2315 164.02 98.2715 164.06C98.3115 164.1 98.3315 164.153 98.3315 164.22V164.38C98.3315 164.447 98.3115 164.5 98.2715 164.54C98.2315 164.58 98.1782 164.6 98.1115 164.6H95.2415L95.0315 166.86C95.1048 166.813 95.2448 166.747 95.4515 166.66C95.6582 166.567 95.9482 166.52 96.3215 166.52C96.6548 166.52 96.9648 166.57 97.2515 166.67C97.5448 166.763 97.8015 166.907 98.0215 167.1C98.2482 167.287 98.4215 167.52 98.5415 167.8C98.6682 168.073 98.7315 168.393 98.7315 168.76C98.7315 169.28 98.6215 169.713 98.4015 170.06C98.1882 170.407 97.8982 170.667 97.5315 170.84C97.1715 171.013 96.7682 171.1 96.3215 171.1ZM100.284 171C100.217 171 100.164 170.98 100.124 170.94C100.084 170.9 100.064 170.847 100.064 170.78V164.12C100.064 164.053 100.084 164 100.124 163.96C100.164 163.92 100.217 163.9 100.284 163.9H100.454C100.521 163.9 100.574 163.92 100.614 163.96C100.654 164 100.674 164.053 100.674 164.12V167.66L102.904 165.97C102.997 165.897 103.064 165.85 103.104 165.83C103.151 165.81 103.224 165.8 103.324 165.8H103.514C103.574 165.8 103.621 165.82 103.654 165.86C103.694 165.893 103.714 165.94 103.714 166C103.714 166.027 103.704 166.06 103.684 166.1C103.671 166.133 103.637 166.167 103.584 166.2L101.054 168.12L103.834 170.6C103.921 170.68 103.964 170.747 103.964 170.8C103.964 170.86 103.944 170.91 103.904 170.95C103.871 170.983 103.824 171 103.764 171H103.604C103.504 171 103.431 170.993 103.384 170.98C103.344 170.96 103.277 170.91 103.184 170.83L100.674 168.6V170.78C100.674 170.847 100.654 170.9 100.614 170.94C100.574 170.98 100.521 171 100.454 171H100.284Z" fill="#9D9D9D"/>
<path d="M86.283 201C86.2163 201 86.163 200.98 86.123 200.94C86.083 200.9 86.063 200.847 86.063 200.78V200.63C86.063 200.563 86.0796 200.5 86.113 200.44C86.153 200.373 86.2196 200.297 86.313 200.21L88.903 197.62C89.1563 197.387 89.3496 197.183 89.483 197.01C89.6163 196.837 89.7063 196.667 89.753 196.5C89.8063 196.327 89.833 196.137 89.833 195.93C89.833 195.483 89.703 195.133 89.443 194.88C89.1896 194.627 88.8263 194.5 88.353 194.5C88.053 194.5 87.793 194.56 87.573 194.68C87.353 194.8 87.1796 194.97 87.053 195.19C86.9263 195.403 86.843 195.653 86.803 195.94C86.7963 196.02 86.7663 196.08 86.713 196.12C86.6596 196.153 86.613 196.17 86.573 196.17H86.373C86.3063 196.17 86.253 196.153 86.213 196.12C86.1796 196.08 86.163 196.033 86.163 195.98C86.1696 195.753 86.2163 195.52 86.303 195.28C86.3896 195.033 86.5196 194.807 86.693 194.6C86.873 194.393 87.0996 194.227 87.373 194.1C87.6463 193.967 87.973 193.9 88.353 193.9C88.8596 193.9 89.2663 193.997 89.573 194.19C89.8863 194.383 90.113 194.633 90.253 194.94C90.393 195.247 90.463 195.577 90.463 195.93C90.463 196.203 90.423 196.457 90.343 196.69C90.263 196.917 90.143 197.14 89.983 197.36C89.823 197.573 89.6196 197.793 89.373 198.02L87.033 200.4H90.383C90.4563 200.4 90.513 200.42 90.553 200.46C90.593 200.5 90.613 200.557 90.613 200.63V200.78C90.613 200.847 90.593 200.9 90.553 200.94C90.513 200.98 90.4563 201 90.383 201H86.283ZM92.0887 201C92.022 201 91.9687 200.98 91.9287 200.94C91.8887 200.9 91.8687 200.847 91.8687 200.78V200.3C91.8687 200.233 91.8887 200.18 91.9287 200.14C91.9687 200.093 92.022 200.07 92.0887 200.07H92.5687C92.6353 200.07 92.6887 200.093 92.7287 200.14C92.7753 200.18 92.7987 200.233 92.7987 200.3V200.78C92.7987 200.847 92.7753 200.9 92.7287 200.94C92.6887 200.98 92.6353 201 92.5687 201H92.0887ZM96.3215 201.1C95.8348 201.1 95.4215 201.01 95.0815 200.83C94.7482 200.65 94.4915 200.42 94.3115 200.14C94.1315 199.853 94.0348 199.557 94.0215 199.25C94.0148 199.19 94.0315 199.143 94.0715 199.11C94.1115 199.077 94.1615 199.06 94.2215 199.06H94.4115C94.4648 199.06 94.5115 199.073 94.5515 199.1C94.5982 199.127 94.6348 199.19 94.6615 199.29C94.7348 199.577 94.8548 199.81 95.0215 199.99C95.1948 200.17 95.3948 200.3 95.6215 200.38C95.8482 200.46 96.0815 200.5 96.3215 200.5C96.6482 200.5 96.9448 200.433 97.2115 200.3C97.4848 200.167 97.7015 199.97 97.8615 199.71C98.0215 199.45 98.1015 199.133 98.1015 198.76C98.1015 198.413 98.0215 198.12 97.8615 197.88C97.7015 197.633 97.4848 197.447 97.2115 197.32C96.9448 197.187 96.6482 197.12 96.3215 197.12C96.0748 197.12 95.8715 197.15 95.7115 197.21C95.5515 197.27 95.4182 197.34 95.3115 197.42C95.2048 197.5 95.1082 197.57 95.0215 197.63C94.9348 197.69 94.8382 197.72 94.7315 197.72H94.5515C94.4915 197.72 94.4382 197.7 94.3915 197.66C94.3448 197.613 94.3248 197.56 94.3315 197.5L94.6315 194.23C94.6382 194.157 94.6582 194.1 94.6915 194.06C94.7315 194.02 94.7848 194 94.8515 194H98.1115C98.1782 194 98.2315 194.02 98.2715 194.06C98.3115 194.1 98.3315 194.153 98.3315 194.22V194.38C98.3315 194.447 98.3115 194.5 98.2715 194.54C98.2315 194.58 98.1782 194.6 98.1115 194.6H95.2415L95.0315 196.86C95.1048 196.813 95.2448 196.747 95.4515 196.66C95.6582 196.567 95.9482 196.52 96.3215 196.52C96.6548 196.52 96.9648 196.57 97.2515 196.67C97.5448 196.763 97.8015 196.907 98.0215 197.1C98.2482 197.287 98.4215 197.52 98.5415 197.8C98.6682 198.073 98.7315 198.393 98.7315 198.76C98.7315 199.28 98.6215 199.713 98.4015 200.06C98.1882 200.407 97.8982 200.667 97.5315 200.84C97.1715 201.013 96.7682 201.1 96.3215 201.1ZM100.284 201C100.217 201 100.164 200.98 100.124 200.94C100.084 200.9 100.064 200.847 100.064 200.78V194.12C100.064 194.053 100.084 194 100.124 193.96C100.164 193.92 100.217 193.9 100.284 193.9H100.454C100.521 193.9 100.574 193.92 100.614 193.96C100.654 194 100.674 194.053 100.674 194.12V197.66L102.904 195.97C102.997 195.897 103.064 195.85 103.104 195.83C103.151 195.81 103.224 195.8 103.324 195.8H103.514C103.574 195.8 103.621 195.82 103.654 195.86C103.694 195.893 103.714 195.94 103.714 196C103.714 196.027 103.704 196.06 103.684 196.1C103.671 196.133 103.637 196.167 103.584 196.2L101.054 198.12L103.834 200.6C103.921 200.68 103.964 200.747 103.964 200.8C103.964 200.86 103.944 200.91 103.904 200.95C103.871 200.983 103.824 201 103.764 201H103.604C103.504 201 103.431 200.993 103.384 200.98C103.344 200.96 103.277 200.91 103.184 200.83L100.674 198.6V200.78C100.674 200.847 100.654 200.9 100.614 200.94C100.574 200.98 100.521 201 100.454 201H100.284Z" fill="#9D9D9D"/>
<path d="M100.918 231.1C100.465 231.1 100.085 231.027 99.7779 230.88C99.4779 230.733 99.2346 230.533 99.0479 230.28C98.8679 230.02 98.7379 229.723 98.6579 229.39C98.5779 229.057 98.5312 228.707 98.5179 228.34C98.5179 228.16 98.5146 227.977 98.5079 227.79C98.5079 227.603 98.5079 227.417 98.5079 227.23C98.5146 227.037 98.5179 226.847 98.5179 226.66C98.5246 226.293 98.5679 225.943 98.6479 225.61C98.7346 225.277 98.8679 224.983 99.0479 224.73C99.2346 224.47 99.4779 224.267 99.7779 224.12C100.085 223.973 100.465 223.9 100.918 223.9C101.371 223.9 101.748 223.973 102.048 224.12C102.355 224.267 102.598 224.47 102.778 224.73C102.965 224.983 103.098 225.277 103.178 225.61C103.265 225.943 103.311 226.293 103.318 226.66C103.325 226.847 103.328 227.037 103.328 227.23C103.328 227.417 103.328 227.603 103.328 227.79C103.328 227.977 103.325 228.16 103.318 228.34C103.311 228.707 103.265 229.057 103.178 229.39C103.098 229.723 102.965 230.02 102.778 230.28C102.598 230.533 102.355 230.733 102.048 230.88C101.748 231.027 101.371 231.1 100.918 231.1ZM100.918 230.5C101.511 230.5 101.951 230.303 102.238 229.91C102.525 229.517 102.675 228.977 102.688 228.29C102.695 228.097 102.698 227.917 102.698 227.75C102.698 227.577 102.698 227.407 102.698 227.24C102.698 227.067 102.695 226.89 102.688 226.71C102.675 226.037 102.525 225.5 102.238 225.1C101.951 224.7 101.511 224.5 100.918 224.5C100.331 224.5 99.8912 224.7 99.5979 225.1C99.3112 225.5 99.1612 226.037 99.1479 226.71C99.1479 226.89 99.1446 227.067 99.1379 227.24C99.1379 227.407 99.1379 227.577 99.1379 227.75C99.1446 227.917 99.1479 228.097 99.1479 228.29C99.1612 228.977 99.3112 229.517 99.5979 229.91C99.8912 230.303 100.331 230.5 100.918 230.5Z" fill="#9D9D9D"/>
<path d="M227.041 87.538C226.948 87.538 226.869 87.51 226.803 87.454C226.747 87.3887 226.719 87.3093 226.719 87.216V84.304H223.849C223.756 84.304 223.677 84.276 223.611 84.22C223.555 84.1547 223.527 84.0753 223.527 83.982V83.534C223.527 83.4407 223.555 83.366 223.611 83.31C223.677 83.2447 223.756 83.212 223.849 83.212H226.719V80.384C226.719 80.2907 226.747 80.216 226.803 80.16C226.869 80.0947 226.948 80.062 227.041 80.062H227.531C227.625 80.062 227.699 80.0947 227.755 80.16C227.821 80.216 227.853 80.2907 227.853 80.384V83.212H230.737C230.831 83.212 230.905 83.2447 230.961 83.31C231.027 83.366 231.059 83.4407 231.059 83.534V83.982C231.059 84.0753 231.027 84.1547 230.961 84.22C230.905 84.276 230.831 84.304 230.737 84.304H227.853V87.216C227.853 87.3093 227.821 87.3887 227.755 87.454C227.699 87.51 227.625 87.538 227.531 87.538H227.041ZM235.171 88C235.077 88 234.998 87.972 234.933 87.916C234.877 87.8507 234.849 87.7713 234.849 87.678V79.838L232.525 81.63C232.45 81.686 232.371 81.7093 232.287 81.7C232.203 81.6907 232.133 81.6487 232.077 81.574L231.713 81.112C231.657 81.028 231.633 80.944 231.643 80.86C231.661 80.776 231.708 80.706 231.783 80.65L234.835 78.298C234.9 78.2513 234.961 78.2233 235.017 78.214C235.073 78.2047 235.133 78.2 235.199 78.2H235.913C236.006 78.2 236.081 78.2327 236.137 78.298C236.193 78.354 236.221 78.4287 236.221 78.522V87.678C236.221 87.7713 236.193 87.8507 236.137 87.916C236.081 87.972 236.006 88 235.913 88H235.171ZM241.733 88.14C241.089 88.14 240.543 88.042 240.095 87.846C239.656 87.6407 239.297 87.3607 239.017 87.006C238.737 86.6513 238.532 86.2453 238.401 85.788C238.28 85.3307 238.21 84.8453 238.191 84.332C238.182 84.08 238.172 83.814 238.163 83.534C238.163 83.254 238.163 82.974 238.163 82.694C238.172 82.4047 238.182 82.1293 238.191 81.868C238.2 81.3547 238.27 80.8693 238.401 80.412C238.541 79.9453 238.746 79.5393 239.017 79.194C239.297 78.8393 239.661 78.564 240.109 78.368C240.557 78.1627 241.098 78.06 241.733 78.06C242.377 78.06 242.918 78.1627 243.357 78.368C243.805 78.564 244.169 78.8393 244.449 79.194C244.729 79.5393 244.934 79.9453 245.065 80.412C245.205 80.8693 245.28 81.3547 245.289 81.868C245.298 82.1293 245.303 82.4047 245.303 82.694C245.312 82.974 245.312 83.254 245.303 83.534C245.303 83.814 245.298 84.08 245.289 84.332C245.28 84.8453 245.205 85.3307 245.065 85.788C244.934 86.2453 244.729 86.6513 244.449 87.006C244.178 87.3607 243.819 87.6407 243.371 87.846C242.932 88.042 242.386 88.14 241.733 88.14ZM241.733 86.95C242.461 86.95 242.998 86.712 243.343 86.236C243.698 85.7507 243.88 85.0927 243.889 84.262C243.908 83.9913 243.917 83.73 243.917 83.478C243.917 83.2167 243.917 82.96 243.917 82.708C243.917 82.4467 243.908 82.19 243.889 81.938C243.88 81.126 243.698 80.4773 243.343 79.992C242.998 79.4973 242.461 79.25 241.733 79.25C241.014 79.25 240.478 79.4973 240.123 79.992C239.778 80.4773 239.596 81.126 239.577 81.938C239.577 82.19 239.572 82.4467 239.563 82.708C239.563 82.96 239.563 83.2167 239.563 83.478C239.572 83.73 239.577 83.9913 239.577 84.262C239.596 85.0927 239.782 85.7507 240.137 86.236C240.492 86.712 241.024 86.95 241.733 86.95ZM250.62 88.14C249.976 88.14 249.43 88.042 248.982 87.846C248.543 87.6407 248.184 87.3607 247.904 87.006C247.624 86.6513 247.418 86.2453 247.288 85.788C247.166 85.3307 247.096 84.8453 247.078 84.332C247.068 84.08 247.059 83.814 247.05 83.534C247.05 83.254 247.05 82.974 247.05 82.694C247.059 82.4047 247.068 82.1293 247.078 81.868C247.087 81.3547 247.157 80.8693 247.288 80.412C247.428 79.9453 247.633 79.5393 247.904 79.194C248.184 78.8393 248.548 78.564 248.996 78.368C249.444 78.1627 249.985 78.06 250.62 78.06C251.264 78.06 251.805 78.1627 252.244 78.368C252.692 78.564 253.056 78.8393 253.336 79.194C253.616 79.5393 253.821 79.9453 253.952 80.412C254.092 80.8693 254.166 81.3547 254.176 81.868C254.185 82.1293 254.19 82.4047 254.19 82.694C254.199 82.974 254.199 83.254 254.19 83.534C254.19 83.814 254.185 84.08 254.176 84.332C254.166 84.8453 254.092 85.3307 253.952 85.788C253.821 86.2453 253.616 86.6513 253.336 87.006C253.065 87.3607 252.706 87.6407 252.258 87.846C251.819 88.042 251.273 88.14 250.62 88.14ZM250.62 86.95C251.348 86.95 251.884 86.712 252.23 86.236C252.584 85.7507 252.766 85.0927 252.776 84.262C252.794 83.9913 252.804 83.73 252.804 83.478C252.804 83.2167 252.804 82.96 252.804 82.708C252.804 82.4467 252.794 82.19 252.776 81.938C252.766 81.126 252.584 80.4773 252.23 79.992C251.884 79.4973 251.348 79.25 250.62 79.25C249.901 79.25 249.364 79.4973 249.01 79.992C248.664 80.4773 248.482 81.126 248.464 81.938C248.464 82.19 248.459 82.4467 248.45 82.708C248.45 82.96 248.45 83.2167 248.45 83.478C248.459 83.73 248.464 83.9913 248.464 84.262C248.482 85.0927 248.669 85.7507 249.024 86.236C249.378 86.712 249.91 86.95 250.62 86.95ZM263.414 88.14C262.63 88.14 261.953 88 261.384 87.72C260.824 87.44 260.39 87.0153 260.082 86.446C259.783 85.8673 259.634 85.1253 259.634 84.22V78.536C259.634 78.4333 259.662 78.354 259.718 78.298C259.774 78.2327 259.853 78.2 259.956 78.2H260.67C260.773 78.2 260.852 78.2327 260.908 78.298C260.973 78.354 261.006 78.4333 261.006 78.536V84.248C261.006 85.1627 261.221 85.8393 261.65 86.278C262.079 86.7167 262.667 86.936 263.414 86.936C264.151 86.936 264.735 86.7167 265.164 86.278C265.603 85.8393 265.822 85.1627 265.822 84.248V78.536C265.822 78.4333 265.85 78.354 265.906 78.298C265.971 78.2327 266.051 78.2 266.144 78.2H266.872C266.965 78.2 267.04 78.2327 267.096 78.298C267.161 78.354 267.194 78.4333 267.194 78.536V84.22C267.194 85.1253 267.04 85.8673 266.732 86.446C266.433 87.0153 266.004 87.44 265.444 87.72C264.884 88 264.207 88.14 263.414 88.14ZM272.684 88.14C271.872 88.14 271.191 88.0187 270.64 87.776C270.09 87.524 269.665 87.202 269.366 86.81C269.077 86.4087 268.923 85.984 268.904 85.536C268.904 85.4613 268.932 85.396 268.988 85.34C269.054 85.2747 269.128 85.242 269.212 85.242H269.926C270.038 85.242 270.122 85.27 270.178 85.326C270.234 85.382 270.272 85.4473 270.29 85.522C270.337 85.746 270.449 85.97 270.626 86.194C270.813 86.4087 271.07 86.5907 271.396 86.74C271.732 86.88 272.162 86.95 272.684 86.95C273.487 86.95 274.075 86.81 274.448 86.53C274.831 86.2407 275.022 85.858 275.022 85.382C275.022 85.0553 274.92 84.794 274.714 84.598C274.518 84.3927 274.215 84.2107 273.804 84.052C273.394 83.8933 272.862 83.7207 272.208 83.534C271.527 83.338 270.962 83.1233 270.514 82.89C270.066 82.6567 269.73 82.3673 269.506 82.022C269.292 81.6767 269.184 81.238 269.184 80.706C269.184 80.202 269.32 79.754 269.59 79.362C269.861 78.9607 270.248 78.6433 270.752 78.41C271.266 78.1767 271.886 78.06 272.614 78.06C273.193 78.06 273.697 78.1393 274.126 78.298C274.565 78.4473 274.929 78.6527 275.218 78.914C275.508 79.166 275.727 79.4413 275.876 79.74C276.026 80.0293 276.105 80.314 276.114 80.594C276.114 80.6593 276.091 80.7247 276.044 80.79C275.998 80.846 275.923 80.874 275.82 80.874H275.078C275.013 80.874 274.943 80.8553 274.868 80.818C274.803 80.7807 274.752 80.7107 274.714 80.608C274.658 80.2253 274.444 79.9033 274.07 79.642C273.697 79.3807 273.212 79.25 272.614 79.25C272.008 79.25 271.513 79.3667 271.13 79.6C270.757 79.8333 270.57 80.1973 270.57 80.692C270.57 81.0093 270.659 81.2753 270.836 81.49C271.014 81.6953 271.294 81.8773 271.676 82.036C272.059 82.1947 272.558 82.3627 273.174 82.54C273.921 82.7453 274.532 82.9647 275.008 83.198C275.484 83.422 275.834 83.7067 276.058 84.052C276.292 84.388 276.408 84.822 276.408 85.354C276.408 85.942 276.254 86.446 275.946 86.866C275.638 87.2767 275.204 87.594 274.644 87.818C274.094 88.0327 273.44 88.14 272.684 88.14ZM278.565 88C278.463 88 278.383 87.972 278.327 87.916C278.271 87.8507 278.243 87.7713 278.243 87.678V78.536C278.243 78.4333 278.271 78.354 278.327 78.298C278.383 78.2327 278.463 78.2 278.565 78.2H281.743C282.705 78.2 283.479 78.3447 284.067 78.634C284.655 78.9233 285.085 79.3527 285.355 79.922C285.626 80.482 285.766 81.1727 285.775 81.994C285.785 82.414 285.789 82.7827 285.789 83.1C285.789 83.4173 285.785 83.7813 285.775 84.192C285.757 85.0507 285.612 85.7647 285.341 86.334C285.08 86.894 284.66 87.314 284.081 87.594C283.512 87.8647 282.756 88 281.813 88H278.565ZM279.615 86.81H281.743C282.387 86.81 282.901 86.7213 283.283 86.544C283.666 86.3667 283.941 86.082 284.109 85.69C284.287 85.298 284.38 84.78 284.389 84.136C284.408 83.856 284.417 83.6133 284.417 83.408C284.417 83.1933 284.417 82.9833 284.417 82.778C284.417 82.5633 284.408 82.3207 284.389 82.05C284.371 81.1447 284.156 80.4773 283.745 80.048C283.335 79.6093 282.644 79.39 281.673 79.39H279.615V86.81ZM290.168 88C290.075 88 289.996 87.972 289.93 87.916C289.874 87.8507 289.846 87.7713 289.846 87.678V79.446H287.158C287.065 79.446 286.986 79.418 286.92 79.362C286.864 79.2967 286.836 79.2173 286.836 79.124V78.536C286.836 78.4333 286.864 78.354 286.92 78.298C286.986 78.2327 287.065 78.2 287.158 78.2H293.906C294.009 78.2 294.088 78.2327 294.144 78.298C294.21 78.354 294.242 78.4333 294.242 78.536V79.124C294.242 79.2173 294.21 79.2967 294.144 79.362C294.088 79.418 294.009 79.446 293.906 79.446H291.232V87.678C291.232 87.7713 291.2 87.8507 291.134 87.916C291.078 87.972 290.999 88 290.896 88H290.168ZM294.294 89.176C294.22 89.176 294.154 89.148 294.098 89.092C294.042 89.036 294.014 88.9707 294.014 88.896C294.014 88.8493 294.028 88.7933 294.056 88.728L298.844 77.248C298.872 77.192 298.91 77.136 298.956 77.08C299.012 77.024 299.096 76.996 299.208 76.996H299.754C299.829 76.996 299.894 77.024 299.95 77.08C300.006 77.136 300.034 77.2013 300.034 77.276C300.034 77.3133 300.025 77.3693 300.006 77.444L295.204 88.924C295.186 88.9707 295.144 89.022 295.078 89.078C295.022 89.1433 294.943 89.176 294.84 89.176H294.294ZM301.242 88C301.149 88 301.074 87.972 301.018 87.916C300.962 87.86 300.934 87.7853 300.934 87.692V80.986C300.934 80.9113 300.962 80.8507 301.018 80.804C301.084 80.748 301.149 80.72 301.214 80.72H301.928C302.078 80.72 302.194 80.7947 302.278 80.944L304.658 85.396L307.052 80.944C307.136 80.7947 307.253 80.72 307.402 80.72H308.102C308.177 80.72 308.242 80.748 308.298 80.804C308.354 80.8507 308.382 80.9113 308.382 80.986V87.692C308.382 87.7853 308.354 87.86 308.298 87.916C308.242 87.972 308.172 88 308.088 88H307.402C307.309 88 307.234 87.972 307.178 87.916C307.122 87.86 307.094 87.7853 307.094 87.692V82.106L307.584 82.162L305.302 86.474C305.256 86.5673 305.2 86.6513 305.134 86.726C305.069 86.8007 304.971 86.838 304.84 86.838H304.476C304.355 86.838 304.262 86.8007 304.196 86.726C304.131 86.6513 304.07 86.5673 304.014 86.474L301.802 82.372L302.236 82.33V87.692C302.236 87.7853 302.208 87.86 302.152 87.916C302.096 87.972 302.022 88 301.928 88H301.242ZM313.375 88.14C312.414 88.14 311.649 87.846 311.079 87.258C310.51 86.6607 310.197 85.8487 310.141 84.822C310.132 84.7007 310.127 84.5467 310.127 84.36C310.127 84.164 310.132 84.0053 310.141 83.884C310.179 83.2213 310.333 82.6427 310.603 82.148C310.874 81.644 311.243 81.2567 311.709 80.986C312.185 80.7153 312.741 80.58 313.375 80.58C314.085 80.58 314.677 80.7293 315.153 81.028C315.639 81.3267 316.007 81.7513 316.259 82.302C316.511 82.8527 316.637 83.4967 316.637 84.234V84.472C316.637 84.5747 316.605 84.654 316.539 84.71C316.483 84.766 316.409 84.794 316.315 84.794H311.471C311.471 84.8033 311.471 84.822 311.471 84.85C311.471 84.878 311.471 84.9013 311.471 84.92C311.49 85.3027 311.574 85.662 311.723 85.998C311.873 86.3247 312.087 86.5907 312.367 86.796C312.647 87.0013 312.983 87.104 313.375 87.104C313.711 87.104 313.991 87.0527 314.215 86.95C314.439 86.8473 314.621 86.7353 314.761 86.614C314.901 86.4833 314.995 86.3853 315.041 86.32C315.125 86.1987 315.191 86.1287 315.237 86.11C315.284 86.082 315.359 86.068 315.461 86.068H316.133C316.227 86.068 316.301 86.096 316.357 86.152C316.423 86.1987 316.451 86.2687 316.441 86.362C316.432 86.502 316.357 86.6747 316.217 86.88C316.077 87.076 315.877 87.272 315.615 87.468C315.354 87.664 315.037 87.8273 314.663 87.958C314.29 88.0793 313.861 88.14 313.375 88.14ZM311.471 83.828H315.307V83.786C315.307 83.366 315.228 82.9927 315.069 82.666C314.92 82.3393 314.701 82.0827 314.411 81.896C314.122 81.7 313.777 81.602 313.375 81.602C312.974 81.602 312.629 81.7 312.339 81.896C312.059 82.0827 311.845 82.3393 311.695 82.666C311.546 82.9927 311.471 83.366 311.471 83.786V83.828ZM321.251 88.14C320.589 88.14 320.015 88.014 319.529 87.762C319.053 87.5007 318.685 87.132 318.423 86.656C318.162 86.1707 318.022 85.592 318.003 84.92C317.994 84.78 317.989 84.5933 317.989 84.36C317.989 84.1267 317.994 83.94 318.003 83.8C318.022 83.128 318.162 82.554 318.423 82.078C318.685 81.5927 319.053 81.224 319.529 80.972C320.015 80.7107 320.589 80.58 321.251 80.58C321.793 80.58 322.255 80.6547 322.637 80.804C323.029 80.9533 323.351 81.1447 323.603 81.378C323.855 81.6113 324.042 81.8633 324.163 82.134C324.294 82.4047 324.364 82.6613 324.373 82.904C324.383 82.9973 324.355 83.072 324.289 83.128C324.224 83.184 324.145 83.212 324.051 83.212H323.379C323.286 83.212 323.216 83.1933 323.169 83.156C323.123 83.1093 323.076 83.0347 323.029 82.932C322.861 82.4747 322.633 82.1527 322.343 81.966C322.054 81.7793 321.695 81.686 321.265 81.686C320.705 81.686 320.248 81.8587 319.893 82.204C319.548 82.5493 319.361 83.1047 319.333 83.87C319.324 84.206 319.324 84.5327 319.333 84.85C319.361 85.6247 319.548 86.1847 319.893 86.53C320.248 86.866 320.705 87.034 321.265 87.034C321.695 87.034 322.054 86.9407 322.343 86.754C322.633 86.5673 322.861 86.2453 323.029 85.788C323.076 85.6853 323.123 85.6153 323.169 85.578C323.216 85.5313 323.286 85.508 323.379 85.508H324.051C324.145 85.508 324.224 85.536 324.289 85.592C324.355 85.648 324.383 85.7227 324.373 85.816C324.364 86.012 324.322 86.2127 324.247 86.418C324.173 86.6233 324.051 86.8333 323.883 87.048C323.725 87.2533 323.524 87.44 323.281 87.608C323.039 87.7667 322.745 87.8973 322.399 88C322.063 88.0933 321.681 88.14 321.251 88.14Z" fill="#87D385"/>
<g clip-path="url(#clip0_504_490)">
<path fill-rule="evenodd" clip-rule="evenodd" d="M325 234V205C324.77 204.539 324.21 203.564 323.483 202.296C322.633 200.813 321.553 198.93 320.5 197C319.107 194.445 316.85 193.832 314.733 193.257C312.292 192.594 310.036 191.981 309.5 188.5C308.991 185.188 306.984 183.716 304.791 182.107C302.617 180.513 300.262 178.785 299 175C297.738 171.214 296.348 171.76 294.574 172.457C292.834 173.141 290.724 173.971 288 171C285.671 168.459 284.547 170.429 282.744 173.588C281.141 176.397 279.001 180.146 275 182.5C264.394 193.106 261.738 190.401 258.963 187.574C258.205 186.802 257.439 186.022 256.5 185.5C247.602 180.557 244.569 183.65 240.815 187.479C238.873 189.459 236.738 191.636 233.5 193C232.85 193.274 231.607 192.898 229.536 192.274C228.323 191.908 226.827 191.457 225 191C223.188 190.547 221.581 194.813 219.948 199.151C217.974 204.391 215.962 209.735 213.5 207C213.057 206.508 212.406 204.734 211.563 202.44C208.995 195.443 204.648 183.605 199 188.5C194.89 191.788 193.152 191.142 191.368 190.479C189.896 189.932 188.393 189.373 185.5 191C182.756 192.544 181.905 189.362 180.725 184.948C179.153 179.067 176.997 170.999 169 169C162.74 167.435 158.035 162.881 154.126 159.097C149.36 154.484 145.777 151.015 142 155.5C138.735 159.377 136.472 159.065 134.617 158.809C131.928 158.437 130.098 158.185 127.319 171C126.884 173.004 126.455 175.005 126.03 176.981C122.692 192.516 119.665 206.602 117 210V234H325Z" fill="url(#paint0_linear_504_490)"/>
<path d="M117 210C120.004 206.17 123.468 188.758 127.319 171C132.015 149.347 134 165 142 155.5C148.875 147.336 155.11 165.527 169 169C183 172.5 179.1 194.6 185.5 191C191.9 187.4 191.5 194.5 199 188.5C206.5 182 211.705 205.006 213.5 207C218 212 221 190 225 191C229.947 192.237 232.47 193.434 233.5 193C243 189 243 178 256.5 185.5C260.881 187.934 261.5 196 275 182.5C283.5 177.5 283.6 166.2 288 171C293.5 177 296.5 167.5 299 175C301.535 182.604 308.486 181.906 309.5 188.5C310.5 195 317.5 191.5 320.5 197C322.453 200.581 324.5 204 325 205" stroke="#9043CA" stroke-linecap="round"/>
</g>
<defs>
<filter id="filter0_dd_504_490" x="0" y="0" width="405" height="337" filterUnits="userSpaceOnUse" color-interpolation-filters="sRGB">
<feFlood flood-opacity="0" result="BackgroundImageFix"/>
<feColorMatrix in="SourceAlpha" type="matrix" values="0 0 0 0 0 0 0 0 0 0 0 0 0 0 0 0 0 0 127 0" result="hardAlpha"/>
<feOffset/>
<feGaussianBlur stdDeviation="10"/>
<feComposite in2="hardAlpha" operator="out"/>
<feColorMatrix type="matrix" values="0 0 0 0 0.631373 0 0 0 0 0.462745 0 0 0 0 0.756863 0 0 0 0.03 0"/>
<feBlend mode="normal" in2="BackgroundImageFix" result="effect1_dropShadow_504_490"/>
<feColorMatrix in="SourceAlpha" type="matrix" values="0 0 0 0 0 0 0 0 0 0 0 0 0 0 0 0 0 0 127 0" result="hardAlpha"/>
<feOffset/>
<feGaussianBlur stdDeviation="30"/>
<feComposite in2="hardAlpha" operator="out"/>
<feColorMatrix type="matrix" values="0 0 0 0 0.631373 0 0 0 0 0.462745 0 0 0 0 0.756863 0 0 0 0.03 0"/>
<feBlend mode="normal" in2="effect1_dropShadow_504_490" result="effect2_dropShadow_504_490"/>
<feBlend mode="normal" in="SourceGraphic" in2="effect2_dropShadow_504_490" result="shape"/>
</filter>
<linearGradient id="paint0_linear_504_490" x1="221" y1="153.414" x2="221" y2="234" gradientUnits="userSpaceOnUse">
<stop stop-color="#F1DEFF"/>
<stop offset="1" stop-color="#F9F1FF" stop-opacity="0"/>
</linearGradient>
<clipPath id="clip0_504_490">
<rect width="208" height="136" fill="white" transform="translate(117 104)"/>
</clipPath>
</defs>
</svg>
