<svg width="1920" height="1663" viewBox="0 0 1920 1663" fill="none" xmlns="http://www.w3.org/2000/svg">
<g filter="url(#filter0_f_693_4383)">
<circle cx="1401" cy="293" r="373" fill="#9043CA" fill-opacity="0.08"/>
</g>
<g filter="url(#filter1_f_693_4383)">
<circle cx="1178" cy="577" r="373" fill="#93A4FF" fill-opacity="0.06"/>
</g>
<g filter="url(#filter2_f_693_4383)">
<path d="M1824 916C1824 1122 1562.31 1289 1239.5 1289C916.69 1289 655 1122 655 916C655 709.998 916.69 543 1239.5 543C1562.31 543 1824 709.998 1824 916Z" fill="#3B81E9" fill-opacity="0.08"/>
</g>
<g filter="url(#filter3_f_693_4383)">
<path d="M206.539 635.85C153.222 436.867 362.773 207.829 674.583 124.28C986.394 40.7302 1282.39 134.307 1335.71 333.29C1389.02 532.273 1179.47 761.311 867.662 844.86C555.852 928.41 259.857 834.833 206.539 635.85Z" fill="#D03BE9" fill-opacity="0.08"/>
</g>
<defs>
<filter id="filter0_f_693_4383" x="784" y="-324" width="1234" height="1234" filterUnits="userSpaceOnUse" color-interpolation-filters="sRGB">
<feFlood flood-opacity="0" result="BackgroundImageFix"/>
<feBlend mode="normal" in="SourceGraphic" in2="BackgroundImageFix" result="shape"/>
<feGaussianBlur stdDeviation="122" result="effect1_foregroundBlur_693_4383"/>
</filter>
<filter id="filter1_f_693_4383" x="561" y="-40" width="1234" height="1234" filterUnits="userSpaceOnUse" color-interpolation-filters="sRGB">
<feFlood flood-opacity="0" result="BackgroundImageFix"/>
<feBlend mode="normal" in="SourceGraphic" in2="BackgroundImageFix" result="shape"/>
<feGaussianBlur stdDeviation="122" result="effect1_foregroundBlur_693_4383"/>
</filter>
<filter id="filter2_f_693_4383" x="281" y="169" width="1917" height="1494" filterUnits="userSpaceOnUse" color-interpolation-filters="sRGB">
<feFlood flood-opacity="0" result="BackgroundImageFix"/>
<feBlend mode="normal" in="SourceGraphic" in2="BackgroundImageFix" result="shape"/>
<feGaussianBlur stdDeviation="187" result="effect1_foregroundBlur_693_4383"/>
</filter>
<filter id="filter3_f_693_4383" x="-175.748" y="-280.293" width="1893.74" height="1529.73" filterUnits="userSpaceOnUse" color-interpolation-filters="sRGB">
<feFlood flood-opacity="0" result="BackgroundImageFix"/>
<feBlend mode="normal" in="SourceGraphic" in2="BackgroundImageFix" result="shape"/>
<feGaussianBlur stdDeviation="187" result="effect1_foregroundBlur_693_4383"/>
</filter>
</defs>
</svg>
