<svg width="135" height="30" viewBox="0 0 135 30" fill="none" xmlns="http://www.w3.org/2000/svg">
<path fill-rule="evenodd" clip-rule="evenodd" d="M2.76069 12.6674C1.51215 13.9157 1.51215 15.9397 2.76069 17.1881L7.21823 21.6449L10.9507 17.9131L10.9506 17.913C11.3428 17.521 11.6538 17.0555 11.866 16.5433C12.0783 16.031 12.1875 15.482 12.1875 14.9275C12.1875 14.3731 12.0783 13.824 11.866 13.3118C11.6538 12.7995 11.3428 12.3341 10.9506 11.942L10.951 11.9416L7.21908 8.21023L8.71207 6.71748L12.4446 10.4494L12.4446 10.4494C12.8368 10.8415 13.3023 11.1525 13.8146 11.3647C14.327 11.5768 14.8761 11.6861 15.4306 11.6861C15.9852 11.6861 16.5343 11.5768 17.0466 11.3647C17.5384 11.161 17.9871 10.8663 18.3691 10.4962L22.1483 6.71755L17.6906 2.26053C16.442 1.01218 14.4177 1.01218 13.1692 2.26053L2.76069 12.6674ZM18.408 19.3974C18.0176 19.0093 17.5552 18.7013 17.0466 18.4907C16.5343 18.2785 15.9852 18.1693 15.4306 18.1693C14.8761 18.1693 14.327 18.2785 13.8146 18.4907C13.3023 18.7029 12.8368 19.0139 12.4446 19.406L12.4443 19.4056L11.055 20.7947L11.0548 20.7945L8.71122 23.1377L13.1692 27.5949C14.4177 28.8433 16.442 28.8433 17.6906 27.5949L28.0991 17.1881C29.3476 15.9397 29.3476 13.9157 28.0991 12.6674L23.6413 8.21031L19.9094 11.9416L19.9099 11.9422C19.5177 12.3342 19.2067 12.7997 18.9945 13.3119C18.7823 13.8242 18.673 14.3732 18.673 14.9277C18.673 15.4821 18.7823 16.0312 18.9945 16.5434C19.2067 17.0557 19.5177 17.5211 19.9099 17.9132L19.9097 17.9133L23.3435 21.3466L23.3433 21.3469L23.6414 21.645L22.1484 23.1377L18.4159 19.4059L18.4162 19.4056L18.408 19.3974Z" fill="#9912FF"/>
<path d="M35.3745 24.0942C35.1897 24.0942 35.0384 24.0354 34.9208 23.9178C34.8032 23.8002 34.7444 23.6489 34.7444 23.4641V7.07969C34.7444 6.89484 34.8032 6.7436 34.9208 6.62597C35.0384 6.50834 35.1897 6.44952 35.3745 6.44952H43.0626C44.5078 6.44952 45.6925 6.65118 46.6167 7.05449C47.541 7.45779 48.2216 8.03755 48.6585 8.79375C49.1122 9.53315 49.3391 10.4154 49.3391 11.4405C49.3391 12.0454 49.2214 12.5832 48.9862 13.0537C48.7677 13.5074 48.4904 13.8855 48.1543 14.188C47.835 14.4905 47.5326 14.7089 47.2469 14.8434C47.8855 15.1458 48.4484 15.6416 48.9357 16.3306C49.4399 17.0195 49.6919 17.8262 49.6919 18.7504C49.6919 19.8595 49.4399 20.8174 48.9357 21.624C48.4484 22.4138 47.7258 23.0272 46.768 23.4641C45.8269 23.8842 44.6674 24.0942 43.2894 24.0942H35.3745ZM39.2564 20.8174H42.7853C43.5079 20.8174 44.054 20.6073 44.4237 20.1872C44.7934 19.7671 44.9783 19.2882 44.9783 18.7504C44.9783 18.1623 44.785 17.6665 44.3985 17.2632C44.0288 16.8599 43.4911 16.6583 42.7853 16.6583H39.2564V20.8174ZM39.2564 13.457H42.5584C43.2474 13.457 43.76 13.2805 44.0961 12.9277C44.4489 12.5748 44.6254 12.121 44.6254 11.5665C44.6254 11.0287 44.4489 10.5918 44.0961 10.2557C43.76 9.90285 43.2474 9.7264 42.5584 9.7264H39.2564V13.457ZM53.1226 24.0942C52.9378 24.0942 52.7865 24.0354 52.6689 23.9178C52.5513 23.8002 52.4925 23.6489 52.4925 23.4641V7.07969C52.4925 6.89484 52.5513 6.7436 52.6689 6.62597C52.7865 6.50834 52.9378 6.44952 53.1226 6.44952H55.7945C56.0802 6.44952 56.2819 6.51674 56.3995 6.65118C56.5339 6.76881 56.618 6.86123 56.6516 6.92845L62.802 16.633V7.07969C62.802 6.89484 62.8608 6.7436 62.9785 6.62597C63.0961 6.50834 63.2473 6.44952 63.4322 6.44952H66.457C66.6418 6.44952 66.7931 6.50834 66.9107 6.62597C67.0283 6.7436 67.0871 6.89484 67.0871 7.07969V23.4641C67.0871 23.6321 67.0283 23.7834 66.9107 23.9178C66.7931 24.0354 66.6418 24.0942 66.457 24.0942H63.7599C63.491 24.0942 63.2893 24.027 63.1549 23.8926C63.0373 23.7581 62.9616 23.6657 62.928 23.6153L56.7776 14.2888V23.4641C56.7776 23.6489 56.7188 23.8002 56.6011 23.9178C56.4835 24.0354 56.3323 24.0942 56.1474 24.0942H53.1226ZM71.24 24.0942C71.0551 24.0942 70.9039 24.0354 70.7862 23.9178C70.6686 23.8002 70.6098 23.6489 70.6098 23.4641V7.07969C70.6098 6.89484 70.6686 6.7436 70.7862 6.62597C70.9039 6.50834 71.0551 6.44952 71.24 6.44952H83.0115C83.1964 6.44952 83.3476 6.50834 83.4652 6.62597C83.5829 6.7436 83.6417 6.89484 83.6417 7.07969V9.44913C83.6417 9.63398 83.5829 9.78522 83.4652 9.90285C83.3476 10.0205 83.1964 10.0793 83.0115 10.0793H74.9706V13.4822H82.457C82.6418 13.4822 82.793 13.5494 82.9107 13.6839C83.0283 13.8015 83.0871 13.9527 83.0871 14.1376V16.3306C83.0871 16.4986 83.0283 16.6498 82.9107 16.7843C82.793 16.9019 82.6418 16.9607 82.457 16.9607H74.9706V20.4645H83.2132C83.398 20.4645 83.5492 20.5233 83.6669 20.6409C83.7845 20.7585 83.8433 20.9098 83.8433 21.0946V23.4641C83.8433 23.6489 83.7845 23.8002 83.6669 23.9178C83.5492 24.0354 83.398 24.0942 83.2132 24.0942H71.24ZM91.2206 24.0942C91.0358 24.0942 90.8845 24.0354 90.7669 23.9178C90.6493 23.8002 90.5905 23.6489 90.5905 23.4641V10.407H86.1037C85.9188 10.407 85.7676 10.3482 85.6499 10.2305C85.5323 10.0961 85.4735 9.94486 85.4735 9.77681V7.07969C85.4735 6.89484 85.5323 6.7436 85.6499 6.62597C85.7676 6.50834 85.9188 6.44952 86.1037 6.44952H99.6649C99.8497 6.44952 100.001 6.50834 100.119 6.62597C100.236 6.7436 100.295 6.89484 100.295 7.07969V9.77681C100.295 9.94486 100.236 10.0961 100.119 10.2305C100.001 10.3482 99.8497 10.407 99.6649 10.407H95.1781V23.4641C95.1781 23.6489 95.1193 23.8002 95.0016 23.9178C94.884 24.0354 94.7328 24.0942 94.5479 24.0942H91.2206ZM103.216 24.0942C103.031 24.0942 102.88 24.0354 102.762 23.9178C102.645 23.8002 102.586 23.6489 102.586 23.4641V7.07969C102.586 6.89484 102.645 6.7436 102.762 6.62597C102.88 6.50834 103.031 6.44952 103.216 6.44952H114.988C115.172 6.44952 115.324 6.50834 115.441 6.62597C115.559 6.7436 115.618 6.89484 115.618 7.07969V9.44913C115.618 9.63398 115.559 9.78522 115.441 9.90285C115.324 10.0205 115.172 10.0793 114.988 10.0793H106.947V13.4822H114.433C114.618 13.4822 114.769 13.5494 114.887 13.6839C115.004 13.8015 115.063 13.9527 115.063 14.1376V16.3306C115.063 16.4986 115.004 16.6498 114.887 16.7843C114.769 16.9019 114.618 16.9607 114.433 16.9607H106.947V20.4645H115.189C115.374 20.4645 115.525 20.5233 115.643 20.6409C115.761 20.7585 115.819 20.9098 115.819 21.0946V23.4641C115.819 23.6489 115.761 23.8002 115.643 23.9178C115.525 24.0354 115.374 24.0942 115.189 24.0942H103.216ZM117.752 24.0942C117.601 24.0942 117.466 24.0438 117.349 23.943C117.248 23.8254 117.198 23.6993 117.198 23.5649C117.198 23.5145 117.206 23.4641 117.223 23.4137C117.24 23.3632 117.265 23.3128 117.298 23.2624L122.793 15.0954L117.702 7.28135C117.651 7.18052 117.626 7.07969 117.626 6.97887C117.626 6.84443 117.676 6.7268 117.777 6.62597C117.878 6.50834 118.004 6.44952 118.155 6.44952H121.81C122.062 6.44952 122.256 6.51674 122.39 6.65118C122.525 6.76881 122.617 6.87804 122.667 6.97887L125.692 11.5665L128.742 6.97887C128.809 6.87804 128.91 6.76881 129.045 6.65118C129.179 6.51674 129.372 6.44952 129.624 6.44952H133.078C133.229 6.44952 133.355 6.50834 133.456 6.62597C133.574 6.7268 133.632 6.84443 133.632 6.97887C133.632 7.0965 133.599 7.19732 133.532 7.28135L128.415 15.0702L133.96 23.2624C133.994 23.3128 134.01 23.3632 134.01 23.4137C134.027 23.4641 134.036 23.5145 134.036 23.5649C134.036 23.6993 133.985 23.8254 133.884 23.943C133.784 24.0438 133.658 24.0942 133.506 24.0942H129.75C129.498 24.0942 129.297 24.0354 129.146 23.9178C129.011 23.7834 128.919 23.6741 128.868 23.5901L125.516 18.7504L122.239 23.5901C122.188 23.6741 122.096 23.7834 121.962 23.9178C121.827 24.0354 121.634 24.0942 121.382 24.0942H117.752Z" fill="#9912FF"/>
</svg>
