<svg width="128" height="28" viewBox="0 0 128 28" fill="none" xmlns="http://www.w3.org/2000/svg">
<path d="M1.42 27C1.156 27 0.94 26.916 0.772 26.748C0.604 26.58 0.52 26.364 0.52 26.1V2.7C0.52 2.436 0.604 2.22 0.772 2.052C0.94 1.884 1.156 1.8 1.42 1.8H12.4C14.464 1.8 16.156 2.088 17.476 2.664C18.796 3.24 19.768 4.068 20.392 5.148C21.04 6.204 21.364 7.464 21.364 8.928C21.364 9.792 21.196 10.56 20.86 11.232C20.548 11.88 20.152 12.42 19.672 12.852C19.216 13.284 18.784 13.596 18.376 13.788C19.288 14.22 20.092 14.928 20.788 15.912C21.508 16.896 21.868 18.048 21.868 19.368C21.868 20.952 21.508 22.32 20.788 23.472C20.092 24.6 19.06 25.476 17.692 26.1C16.348 26.7 14.692 27 12.724 27H1.42ZM6.964 22.32H12.004C13.036 22.32 13.816 22.02 14.344 21.42C14.872 20.82 15.136 20.136 15.136 19.368C15.136 18.528 14.86 17.82 14.308 17.244C13.78 16.668 13.012 16.38 12.004 16.38H6.964V22.32ZM6.964 11.808H11.68C12.664 11.808 13.396 11.556 13.876 11.052C14.38 10.548 14.632 9.9 14.632 9.108C14.632 8.34 14.38 7.716 13.876 7.236C13.396 6.732 12.664 6.48 11.68 6.48H6.964V11.808ZM24.9626 27C24.6986 27 24.4826 26.916 24.3146 26.748C24.1466 26.58 24.0626 26.364 24.0626 26.1V9.18C24.0626 8.916 24.1466 8.7 24.3146 8.532C24.4826 8.364 24.6986 8.28 24.9626 8.28H29.2106C29.4506 8.28 29.6546 8.364 29.8226 8.532C30.0146 8.7 30.1106 8.916 30.1106 9.18V26.1C30.1106 26.364 30.0146 26.58 29.8226 26.748C29.6546 26.916 29.4506 27 29.2106 27H24.9626ZM24.9266 5.58C24.6626 5.58 24.4466 5.496 24.2786 5.328C24.1106 5.16 24.0266 4.944 24.0266 4.68V1.476C24.0266 1.212 24.1106 0.995999 24.2786 0.827998C24.4466 0.635999 24.6626 0.539999 24.9266 0.539999H29.2106C29.4746 0.539999 29.6906 0.635999 29.8586 0.827998C30.0506 0.995999 30.1466 1.212 30.1466 1.476V4.68C30.1466 4.944 30.0506 5.16 29.8586 5.328C29.6906 5.496 29.4746 5.58 29.2106 5.58H24.9266ZM34.7332 27C34.4692 27 34.2532 26.916 34.0852 26.748C33.9172 26.58 33.8332 26.364 33.8332 26.1V9.18C33.8332 8.916 33.9172 8.7 34.0852 8.532C34.2532 8.364 34.4692 8.28 34.7332 8.28H38.8732C39.1372 8.28 39.3532 8.364 39.5212 8.532C39.6892 8.7 39.7732 8.916 39.7732 9.18V10.548C40.3972 9.804 41.2132 9.18 42.2212 8.676C43.2292 8.172 44.4172 7.92 45.7852 7.92C47.1772 7.92 48.4012 8.232 49.4572 8.856C50.5372 9.48 51.3772 10.404 51.9772 11.628C52.6012 12.828 52.9132 14.304 52.9132 16.056V26.1C52.9132 26.364 52.8172 26.58 52.6252 26.748C52.4572 26.916 52.2532 27 52.0132 27H47.4772C47.2372 27 47.0212 26.916 46.8292 26.748C46.6612 26.58 46.5772 26.364 46.5772 26.1V16.272C46.5772 15.144 46.3012 14.28 45.7492 13.68C45.2212 13.056 44.4292 12.744 43.3732 12.744C42.3892 12.744 41.5972 13.056 40.9972 13.68C40.4212 14.28 40.1332 15.144 40.1332 16.272V26.1C40.1332 26.364 40.0372 26.58 39.8452 26.748C39.6772 26.916 39.4732 27 39.2332 27H34.7332ZM63.9509 27.36C61.1189 27.36 58.8629 26.592 57.1829 25.056C55.5029 23.52 54.6269 21.24 54.5549 18.216C54.5549 18.048 54.5549 17.832 54.5549 17.568C54.5549 17.304 54.5549 17.1 54.5549 16.956C54.6269 15.06 55.0469 13.44 55.8149 12.096C56.6069 10.728 57.6869 9.696 59.0549 9C60.4469 8.28 62.0669 7.92 63.9149 7.92C66.0269 7.92 67.7669 8.34 69.1349 9.18C70.5269 10.02 71.5709 11.16 72.2669 12.6C72.9629 14.04 73.3109 15.684 73.3109 17.532V18.396C73.3109 18.66 73.2149 18.876 73.0229 19.044C72.8549 19.212 72.6509 19.296 72.4109 19.296H60.8909C60.8909 19.32 60.8909 19.356 60.8909 19.404C60.8909 19.452 60.8909 19.5 60.8909 19.548C60.9149 20.244 61.0349 20.88 61.2509 21.456C61.4669 22.032 61.8029 22.488 62.2589 22.824C62.7149 23.16 63.2669 23.328 63.9149 23.328C64.3949 23.328 64.7909 23.256 65.1029 23.112C65.4389 22.944 65.7149 22.764 65.9309 22.572C66.1469 22.356 66.3149 22.176 66.4349 22.032C66.6509 21.792 66.8189 21.648 66.9389 21.6C67.0829 21.528 67.2989 21.492 67.5869 21.492H72.0509C72.2909 21.492 72.4829 21.564 72.6269 21.708C72.7949 21.828 72.8669 22.008 72.8429 22.248C72.8189 22.656 72.6149 23.148 72.2309 23.724C71.8469 24.3 71.2829 24.876 70.5389 25.452C69.8189 26.004 68.9069 26.46 67.8029 26.82C66.6989 27.18 65.4149 27.36 63.9509 27.36ZM60.8909 15.732H66.9749V15.66C66.9749 14.892 66.8549 14.22 66.6149 13.644C66.3989 13.068 66.0509 12.624 65.5709 12.312C65.1149 12 64.5629 11.844 63.9149 11.844C63.2669 11.844 62.7149 12 62.2589 12.312C61.8269 12.624 61.4909 13.068 61.2509 13.644C61.0109 14.22 60.8909 14.892 60.8909 15.66V15.732ZM84.6067 27C83.0707 27 81.7387 26.76 80.6107 26.28C79.5067 25.776 78.6547 25.008 78.0547 23.976C77.4547 22.92 77.1547 21.564 77.1547 19.908V12.996H74.3467C74.0827 12.996 73.8547 12.912 73.6627 12.744C73.4947 12.576 73.4107 12.36 73.4107 12.096V9.18C73.4107 8.916 73.4947 8.7 73.6627 8.532C73.8547 8.364 74.0827 8.28 74.3467 8.28H77.1547V2.34C77.1547 2.076 77.2387 1.86 77.4067 1.692C77.5987 1.524 77.8147 1.44 78.0547 1.44H82.2307C82.4947 1.44 82.7107 1.524 82.8787 1.692C83.0467 1.86 83.1307 2.076 83.1307 2.34V8.28H87.6307C87.8947 8.28 88.1107 8.364 88.2787 8.532C88.4467 8.7 88.5307 8.916 88.5307 9.18V12.096C88.5307 12.36 88.4467 12.576 88.2787 12.744C88.1107 12.912 87.8947 12.996 87.6307 12.996H83.1307V19.404C83.1307 20.22 83.2867 20.868 83.5987 21.348C83.9107 21.828 84.4387 22.068 85.1827 22.068H87.9547C88.2187 22.068 88.4347 22.152 88.6027 22.32C88.7707 22.488 88.8547 22.704 88.8547 22.968V26.1C88.8547 26.364 88.7707 26.58 88.6027 26.748C88.4347 26.916 88.2187 27 87.9547 27H84.6067ZM98.8554 27.36C96.0234 27.36 93.7674 26.592 92.0874 25.056C90.4074 23.52 89.5314 21.24 89.4594 18.216C89.4594 18.048 89.4594 17.832 89.4594 17.568C89.4594 17.304 89.4594 17.1 89.4594 16.956C89.5314 15.06 89.9514 13.44 90.7194 12.096C91.5114 10.728 92.5914 9.696 93.9594 9C95.3514 8.28 96.9714 7.92 98.8194 7.92C100.931 7.92 102.671 8.34 104.039 9.18C105.431 10.02 106.475 11.16 107.171 12.6C107.867 14.04 108.215 15.684 108.215 17.532V18.396C108.215 18.66 108.119 18.876 107.927 19.044C107.759 19.212 107.555 19.296 107.315 19.296H95.7954C95.7954 19.32 95.7954 19.356 95.7954 19.404C95.7954 19.452 95.7954 19.5 95.7954 19.548C95.8194 20.244 95.9394 20.88 96.1554 21.456C96.3714 22.032 96.7074 22.488 97.1634 22.824C97.6194 23.16 98.1714 23.328 98.8194 23.328C99.2994 23.328 99.6954 23.256 100.007 23.112C100.343 22.944 100.619 22.764 100.835 22.572C101.051 22.356 101.219 22.176 101.339 22.032C101.555 21.792 101.723 21.648 101.843 21.6C101.987 21.528 102.203 21.492 102.491 21.492H106.955C107.195 21.492 107.387 21.564 107.531 21.708C107.699 21.828 107.771 22.008 107.747 22.248C107.723 22.656 107.519 23.148 107.135 23.724C106.751 24.3 106.187 24.876 105.443 25.452C104.723 26.004 103.811 26.46 102.707 26.82C101.603 27.18 100.319 27.36 98.8554 27.36ZM95.7954 15.732H101.879V15.66C101.879 14.892 101.759 14.22 101.519 13.644C101.303 13.068 100.955 12.624 100.475 12.312C100.019 12 99.4674 11.844 98.8194 11.844C98.1714 11.844 97.6194 12 97.1634 12.312C96.7314 12.624 96.3954 13.068 96.1554 13.644C95.9154 14.22 95.7954 14.892 95.7954 15.66V15.732ZM108.582 27C108.366 27 108.174 26.928 108.006 26.784C107.862 26.616 107.79 26.424 107.79 26.208C107.79 26.136 107.802 26.052 107.826 25.956C107.85 25.836 107.898 25.728 107.97 25.632L113.982 17.388L108.51 9.648C108.438 9.552 108.378 9.456 108.33 9.36C108.306 9.264 108.294 9.168 108.294 9.072C108.294 8.856 108.378 8.676 108.546 8.532C108.714 8.364 108.906 8.28 109.122 8.28H113.514C113.826 8.28 114.054 8.352 114.198 8.496C114.366 8.64 114.486 8.772 114.558 8.892L117.906 13.536L121.218 8.928C121.314 8.808 121.434 8.676 121.578 8.532C121.746 8.364 121.986 8.28 122.298 8.28H126.51C126.726 8.28 126.906 8.364 127.05 8.532C127.218 8.676 127.302 8.856 127.302 9.072C127.302 9.168 127.29 9.264 127.266 9.36C127.242 9.456 127.194 9.552 127.122 9.648L121.506 17.388L127.59 25.632C127.686 25.728 127.746 25.824 127.77 25.92C127.794 26.016 127.806 26.112 127.806 26.208C127.806 26.424 127.722 26.616 127.554 26.784C127.41 26.928 127.218 27 126.978 27H122.406C122.118 27 121.902 26.94 121.758 26.82C121.614 26.676 121.494 26.544 121.398 26.424L117.762 21.492L114.09 26.424C113.994 26.52 113.874 26.64 113.73 26.784C113.586 26.928 113.358 27 113.046 27H108.582Z" fill="black"/>
</svg>
