<svg width="207" height="51" viewBox="0 0 207 51" fill="none" xmlns="http://www.w3.org/2000/svg">
<path opacity="0.4" d="M0 5.83819C0 3.07889 2.23685 0.842041 4.99615 0.842041H160V10.8343H4.99616C2.23686 10.8343 0 8.59749 0 5.83819Z" fill="url(#paint0_linear_729_5134)"/>
<rect opacity="0.4" x="79" y="20.8267" width="81" height="9.9923" fill="url(#paint1_linear_729_5134)"/>
<path opacity="0.4" d="M79 40.8113H202.004C204.763 40.8113 207 43.0481 207 45.8074C207 48.5667 204.763 50.8036 202.004 50.8036H79V40.8113Z" fill="url(#paint2_linear_729_5134)"/>
<path fill-rule="evenodd" clip-rule="evenodd" d="M165 15.8305C165 18.5783 162.769 20.8189 160 20.8189V30.8189C168.284 30.8189 175 24.1084 175 15.8305C175 7.5526 168.284 0.842041 160 0.842041V10.842C162.769 10.842 165 13.0827 165 15.8305Z" fill="#EA018D" fill-opacity="0.4"/>
<path fill-rule="evenodd" clip-rule="evenodd" d="M74 35.815C74 33.0672 76.2313 30.8266 79 30.8266L79 20.8266C70.7157 20.8266 64 27.5371 64 35.815C64 44.0929 70.7157 50.8035 79 50.8035L79 40.8035C76.2313 40.8035 74 38.5628 74 35.815Z" fill="#4361CA" fill-opacity="0.4"/>
<defs>
<linearGradient id="paint0_linear_729_5134" x1="0" y1="10.8345" x2="160" y2="10.8345" gradientUnits="userSpaceOnUse">
<stop stop-color="#4361CA"/>
<stop offset="0.434247" stop-color="#9043CA"/>
<stop offset="1" stop-color="#EA018D"/>
</linearGradient>
<linearGradient id="paint1_linear_729_5134" x1="79" y1="30.8191" x2="160" y2="30.8191" gradientUnits="userSpaceOnUse">
<stop stop-color="#4361CA"/>
<stop offset="0.434247" stop-color="#9043CA"/>
<stop offset="1" stop-color="#EA018D"/>
</linearGradient>
<linearGradient id="paint2_linear_729_5134" x1="79" y1="50.8037" x2="207" y2="50.8037" gradientUnits="userSpaceOnUse">
<stop stop-color="#4361CA"/>
<stop offset="0.434247" stop-color="#9043CA"/>
<stop offset="1" stop-color="#FF7A00"/>
</linearGradient>
</defs>
</svg>
