<svg width="50" height="51" viewBox="0 0 50 51" fill="black" xmlns="http://www.w3.org/2000/svg">
<path d="M0 48.2736C0 49.7793 1.22066 51 2.72642 51L31.5944 51C32.8791 51 34.1512 50.747 35.3382 50.2553C36.5251 49.7637 37.6036 49.0431 38.512 48.1346C39.4204 47.2262 40.141 46.1477 40.6327 44.9608C41.1243 43.7738 41.3774 42.5017 41.3774 41.217V13.7132L44.9024 19.8079C45.6573 21.1131 47.3283 21.5608 48.6346 20.8079C49.941 20.055 50.388 18.3867 49.6331 17.0815L41.1204 2.36325C40.6002 1.46373 39.6448 0.97148 38.6735 0.998839C37.7023 0.97148 36.7469 1.46373 36.2266 2.36325L27.7139 17.0815C26.959 18.3867 27.4061 20.055 28.7124 20.8079C30.0188 21.5608 31.6897 21.1131 32.4446 19.8079L35.9265 13.7878V41.217C35.9265 41.7859 35.8145 42.3492 35.5967 42.8748C35.379 43.4004 35.0599 43.878 34.6576 44.2803C34.2554 44.6826 33.7778 45.0017 33.2522 45.2194C32.7266 45.4371 32.1633 45.5491 31.5944 45.5491L2.72642 45.5472C1.22066 45.5472 0 46.7678 0 48.2736Z"/>
</svg>
