<svg width="51" height="51" viewBox="0 0 51 51" fill="black" xmlns="http://www.w3.org/2000/svg">
<path d="M13.7094 28.4637C12.8263 29.3468 12.8263 30.7787 13.7094 31.6618L20.952 38.9044C21.3488 39.3013 21.8565 39.5198 22.3755 39.5599C23.236 39.6375 24.1023 39.2157 24.5523 38.4132L37.825 14.7433C38.4359 13.6539 38.048 12.2756 36.9586 11.6648C35.8692 11.0539 34.4909 11.4418 33.88 12.5312L22.0535 33.622C20.3461 31.9147 18.9725 30.5286 16.9076 28.4637C16.0245 27.5805 14.5926 27.5805 13.7094 28.4637Z" />
<path d="M51 25.5C51 39.5833 39.5833 51 25.5 51C11.4167 51 0 39.5833 0 25.5C0 11.4167 11.4167 0 25.5 0C39.5833 0 51 11.4167 51 25.5ZM4.5334 25.5C4.5334 37.0795 13.9205 46.4666 25.5 46.4666C37.0795 46.4666 46.4666 37.0795 46.4666 25.5C46.4666 13.9205 37.0795 4.5334 25.5 4.5334C13.9205 4.5334 4.5334 13.9205 4.5334 25.5Z" />
</svg>
