<svg width="51" height="51" viewBox="0 0 51 51" fill="black" xmlns="http://www.w3.org/2000/svg">
<path d="M33.4952 36.6935C34.3784 37.5767 35.8103 37.5767 36.6934 36.6935C37.5766 35.8104 37.5766 34.3785 36.6934 33.4954L28.6981 25.5L36.6935 17.5046C37.5767 16.6214 37.5767 15.1896 36.6935 14.3064C35.8104 13.4233 34.3785 13.4233 33.4954 14.3064L25.4999 22.3019L17.5044 14.3064C16.6213 13.4233 15.1894 13.4233 14.3063 14.3064C13.4231 15.1896 13.4231 16.6214 14.3063 17.5046L22.3017 25.5L14.3064 33.4954C13.4233 34.3785 13.4233 35.8104 14.3064 36.6935C15.1895 37.5767 16.6214 37.5767 17.5046 36.6935L25.4999 28.6982L33.4952 36.6935Z"/>
<path d="M51 25.5C51 39.5833 39.5833 51 25.5 51C11.4167 51 0 39.5833 0 25.5C0 11.4167 11.4167 0 25.5 0C39.5833 0 51 11.4167 51 25.5ZM4.5334 25.5C4.5334 37.0795 13.9205 46.4666 25.5 46.4666C37.0795 46.4666 46.4666 37.0795 46.4666 25.5C46.4666 13.9205 37.0795 4.5334 25.5 4.5334C13.9205 4.5334 4.5334 13.9205 4.5334 25.5Z"/>
</svg>
