<svg width="51" height="51" viewBox="0 0 51 51" fill="black" xmlns="http://www.w3.org/2000/svg">
<path fill-rule="evenodd" clip-rule="evenodd" d="M25.5 51C39.5833 51 51 39.5833 51 25.5C51 11.4167 39.5833 0 25.5 0C11.4167 0 0 11.4167 0 25.5C0 39.5833 11.4167 51 25.5 51ZM21.3922 37.7229C21.5939 37.9246 21.8334 38.0254 22.1107 38.0254H28.8801C29.1574 38.0254 29.397 37.9246 29.5987 37.7229C29.8003 37.5212 29.9012 37.2817 29.9012 37.0043V19.3813C29.9012 19.1039 29.8003 18.8644 29.5987 18.6627C29.397 18.461 29.1574 18.3602 28.8801 18.3602H22.1107C21.8334 18.3602 21.5939 18.461 21.3922 18.6627C21.1905 18.8644 21.0896 19.1039 21.0896 19.3813V37.0043C21.0896 37.2817 21.1905 37.5212 21.3922 37.7229ZM21.5813 15.9777C21.783 16.1793 22.0225 16.2802 22.2998 16.2802H28.691C28.9684 16.2802 29.2079 16.1793 29.4096 15.9777C29.6113 15.776 29.7121 15.5364 29.7121 15.2591V10.6832C29.7121 10.4058 29.6113 10.1663 29.4096 9.96462C29.2079 9.76293 28.9684 9.66208 28.691 9.66208H22.2998C22.0225 9.66208 21.783 9.76293 21.5813 9.96462C21.3796 10.1663 21.2787 10.4058 21.2787 10.6832V15.2591C21.2787 15.5364 21.3796 15.776 21.5813 15.9777Z"/>
</svg>
