<svg width="133" height="28" viewBox="0 0 133 28" fill="#9043CA" xmlns="http://www.w3.org/2000/svg">
<path d="M1.26063 11.6672C0.0120815 12.9155 0.0120839 14.9395 1.26063 16.1878L5.71817 20.6447L9.4506 16.9128C9.84273 16.5208 10.1538 16.0553 10.366 15.543C10.5782 15.0308 10.6874 14.4818 10.6874 13.9273C10.6874 13.3728 10.5782 12.8238 10.366 12.3116C10.1538 11.7993 9.84271 11.3339 9.45058 10.9418L5.71901 7.21L7.212 5.71725L10.9446 9.44921C11.3367 9.84128 11.8022 10.1523 12.3146 10.3644C12.8269 10.5766 13.376 10.6858 13.9306 10.6858C14.4851 10.6858 15.0342 10.5766 15.5466 10.3644C16.0383 10.1608 16.487 9.86603 16.869 9.49596L20.6482 5.71732L16.1905 1.2603C14.942 0.0119475 12.9177 0.0119497 11.6691 1.2603L1.26063 11.6672Z"/>
<path d="M16.9079 18.3971C16.5176 18.0091 16.0551 17.7011 15.5466 17.4905C15.0342 17.2783 14.4851 17.1691 13.9306 17.1691C13.376 17.1691 12.8269 17.2783 12.3146 17.4905C11.8022 17.7027 11.3367 18.0137 10.9446 18.4057L7.21116 22.1374L11.6691 26.5947C12.9177 27.8431 14.942 27.8431 16.1905 26.5947L26.599 16.1878C27.8476 14.9395 27.8476 12.9155 26.599 11.6672L22.1412 7.21008L18.4093 10.9414C18.0172 11.3335 17.7066 11.7994 17.4944 12.3117C17.2822 12.8239 17.173 13.373 17.173 13.9274C17.173 14.4819 17.2822 15.0309 17.4944 15.5432C17.7066 16.0554 18.0177 16.5209 18.4098 16.9129L22.1413 20.6448L20.6483 22.1375L16.9159 18.4056L16.9079 18.3971Z"/>
<path d="M33.8745 23.094C33.6896 23.094 33.5384 23.0352 33.4207 22.9175C33.3031 22.7999 33.2443 22.6487 33.2443 22.4638V6.07945C33.2443 5.8946 33.3031 5.74336 33.4207 5.62573C33.5384 5.50809 33.6896 5.44928 33.8745 5.44928H41.5625C43.0077 5.44928 44.1924 5.65093 45.1167 6.05424C46.0409 6.45755 46.7215 7.0373 47.1584 7.7935C47.6121 8.5329 47.839 9.41514 47.839 10.4402C47.839 11.0452 47.7214 11.5829 47.4861 12.0534C47.2676 12.5072 46.9904 12.8853 46.6543 13.1877C46.335 13.4902 46.0325 13.7087 45.7468 13.8431C46.3854 14.1456 46.9484 14.6413 47.4357 15.3303C47.9398 16.0193 48.1919 16.8259 48.1919 17.7502C48.1919 18.8593 47.9398 19.8171 47.4357 20.6237C46.9484 21.4135 46.2258 22.0269 45.2679 22.4638C44.3269 22.8839 43.1673 23.094 41.7894 23.094H33.8745ZM37.7563 19.8171H41.2852C42.0078 19.8171 42.554 19.6071 42.9237 19.1869C43.2934 18.7668 43.4782 18.2879 43.4782 17.7502C43.4782 17.162 43.285 16.6663 42.8985 16.263C42.5288 15.8597 41.991 15.658 41.2852 15.658H37.7563V19.8171ZM37.7563 12.4567H41.0584C41.7474 12.4567 42.2599 12.2803 42.596 11.9274C42.9489 11.5745 43.1253 11.1208 43.1253 10.5662C43.1253 10.0285 42.9489 9.59158 42.596 9.2555C42.2599 8.9026 41.7474 8.72615 41.0584 8.72615H37.7563V12.4567Z" />
<path d="M51.6226 23.094C51.4377 23.094 51.2865 23.0352 51.1688 22.9175C51.0512 22.7999 50.9924 22.6487 50.9924 22.4638V6.07945C50.9924 5.8946 51.0512 5.74336 51.1688 5.62573C51.2865 5.50809 51.4377 5.44928 51.6226 5.44928H54.2945C54.5801 5.44928 54.7818 5.5165 54.8994 5.65093C55.0339 5.76856 55.1179 5.86099 55.1515 5.92821L61.3019 15.6328V6.07945C61.3019 5.8946 61.3608 5.74336 61.4784 5.62573C61.596 5.50809 61.7473 5.44928 61.9321 5.44928H64.9569C65.1418 5.44928 65.293 5.50809 65.4106 5.62573C65.5283 5.74336 65.5871 5.8946 65.5871 6.07945V22.4638C65.5871 22.6319 65.5283 22.7831 65.4106 22.9175C65.293 23.0352 65.1418 23.094 64.9569 23.094H62.2598C61.9909 23.094 61.7893 23.0268 61.6548 22.8923C61.5372 22.7579 61.4616 22.6655 61.428 22.6151L55.2775 13.2886V22.4638C55.2775 22.6487 55.2187 22.7999 55.1011 22.9175C54.9835 23.0352 54.8322 23.094 54.6474 23.094H51.6226Z" />
<path d="M69.7399 23.094C69.555 23.094 69.4038 23.0352 69.2862 22.9175C69.1685 22.7999 69.1097 22.6487 69.1097 22.4638V6.07945C69.1097 5.8946 69.1685 5.74336 69.2862 5.62573C69.4038 5.50809 69.555 5.44928 69.7399 5.44928H81.5114C81.6963 5.44928 81.8475 5.50809 81.9652 5.62573C82.0828 5.74336 82.1416 5.8946 82.1416 6.07945V8.44888C82.1416 8.63373 82.0828 8.78497 81.9652 8.9026C81.8475 9.02023 81.6963 9.07905 81.5114 9.07905H73.4705V12.482H80.9569C81.1417 12.482 81.293 12.5492 81.4106 12.6836C81.5282 12.8012 81.5871 12.9525 81.5871 13.1373V15.3303C81.5871 15.4984 81.5282 15.6496 81.4106 15.784C81.293 15.9017 81.1417 15.9605 80.9569 15.9605H73.4705V19.4642H81.7131C81.8979 19.4642 82.0492 19.523 82.1668 19.6407C82.2844 19.7583 82.3433 19.9095 82.3433 20.0944V22.4638C82.3433 22.6487 82.2844 22.7999 82.1668 22.9175C82.0492 23.0352 81.8979 23.094 81.7131 23.094H69.7399Z" />
<path d="M89.7206 23.094C89.5357 23.094 89.3845 23.0352 89.2668 22.9175C89.1492 22.7999 89.0904 22.6487 89.0904 22.4638V9.40674H84.6036C84.4187 9.40674 84.2675 9.34792 84.1499 9.23029C84.0322 9.09585 83.9734 8.94461 83.9734 8.77657V6.07945C83.9734 5.8946 84.0322 5.74336 84.1499 5.62573C84.2675 5.50809 84.4187 5.44928 84.6036 5.44928H98.1648C98.3497 5.44928 98.5009 5.50809 98.6185 5.62573C98.7362 5.74336 98.795 5.8946 98.795 6.07945V8.77657C98.795 8.94461 98.7362 9.09585 98.6185 9.23029C98.5009 9.34792 98.3497 9.40674 98.1648 9.40674H93.678V22.4638C93.678 22.6487 93.6192 22.7999 93.5016 22.9175C93.3839 23.0352 93.2327 23.094 93.0479 23.094H89.7206Z" />
<path d="M101.716 23.094C101.531 23.094 101.38 23.0352 101.262 22.9175C101.145 22.7999 101.086 22.6487 101.086 22.4638V6.07945C101.086 5.8946 101.145 5.74336 101.262 5.62573C101.38 5.50809 101.531 5.44928 101.716 5.44928H113.488C113.672 5.44928 113.824 5.50809 113.941 5.62573C114.059 5.74336 114.118 5.8946 114.118 6.07945V8.44888C114.118 8.63373 114.059 8.78497 113.941 8.9026C113.824 9.02023 113.672 9.07905 113.488 9.07905H105.447V12.482H112.933C113.118 12.482 113.269 12.5492 113.387 12.6836C113.504 12.8012 113.563 12.9525 113.563 13.1373V15.3303C113.563 15.4984 113.504 15.6496 113.387 15.784C113.269 15.9017 113.118 15.9605 112.933 15.9605H105.447V19.4642H113.689C113.874 19.4642 114.025 19.523 114.143 19.6407C114.261 19.7583 114.319 19.9095 114.319 20.0944V22.4638C114.319 22.6487 114.261 22.7999 114.143 22.9175C114.025 23.0352 113.874 23.094 113.689 23.094H101.716Z" />
<path d="M116.252 23.094C116.101 23.094 115.966 23.0436 115.849 22.9428C115.748 22.8251 115.697 22.6991 115.697 22.5646C115.697 22.5142 115.706 22.4638 115.723 22.4134C115.739 22.363 115.765 22.3126 115.798 22.2622L121.293 14.0952L116.202 6.2811C116.151 6.18027 116.126 6.07945 116.126 5.97862C116.126 5.84418 116.176 5.72655 116.277 5.62573C116.378 5.50809 116.504 5.44928 116.655 5.44928H120.31C120.562 5.44928 120.756 5.5165 120.89 5.65093C121.024 5.76856 121.117 5.87779 121.167 5.97862L124.192 10.5662L127.242 5.97862C127.309 5.87779 127.41 5.76856 127.545 5.65093C127.679 5.5165 127.872 5.44928 128.124 5.44928H131.578C131.729 5.44928 131.855 5.50809 131.956 5.62573C132.073 5.72655 132.132 5.84418 132.132 5.97862C132.132 6.09625 132.099 6.19708 132.031 6.2811L126.914 14.07L132.46 22.2622C132.494 22.3126 132.51 22.363 132.51 22.4134C132.527 22.4638 132.536 22.5142 132.536 22.5646C132.536 22.6991 132.485 22.8251 132.384 22.9428C132.284 23.0436 132.157 23.094 132.006 23.094H128.25C127.998 23.094 127.797 23.0352 127.645 22.9175C127.511 22.7831 127.419 22.6739 127.368 22.5899L124.016 17.7502L120.739 22.5899C120.688 22.6739 120.596 22.7831 120.462 22.9175C120.327 23.0352 120.134 23.094 119.882 23.094H116.252Z" />
</svg>
