<svg width="134" height="30" viewBox="0 0 134 30" fill="none" xmlns="http://www.w3.org/2000/svg">
<path fill-rule="evenodd" clip-rule="evenodd" d="M2.26069 12.6672C1.01215 13.9156 1.01215 15.9395 2.26069 17.1879L6.71823 21.6447L10.4507 17.9129L10.4506 17.9129C10.8428 17.5208 11.1538 17.0553 11.366 16.5431C11.5783 16.0308 11.6875 15.4818 11.6875 14.9273C11.6875 14.3729 11.5783 13.8239 11.366 13.3116C11.1538 12.7993 10.8428 12.3339 10.4506 11.9418L10.451 11.9414L6.71908 8.21005L8.21207 6.7173L11.9446 10.4493L11.9446 10.4492C12.3368 10.8413 12.8023 11.1523 13.3146 11.3645C13.827 11.5767 14.3761 11.6859 14.9306 11.6859C15.4852 11.6859 16.0343 11.5767 16.5466 11.3645C17.0384 11.1608 17.4871 10.8661 17.8691 10.496L21.6483 6.71737L17.1906 2.26034C15.942 1.01199 13.9177 1.012 12.6692 2.26035L2.26069 12.6672ZM17.908 19.3972C17.5176 19.0092 17.0552 18.7012 16.5466 18.4905C16.0343 18.2784 15.4852 18.1691 14.9306 18.1691C14.3761 18.1691 13.827 18.2784 13.3146 18.4905C12.8023 18.7027 12.3368 19.0137 11.9446 19.4058L11.9443 19.4054L10.555 20.7945L10.5548 20.7943L8.21122 23.1375L12.6692 27.5948C13.9177 28.8431 15.942 28.8431 17.1906 27.5948L27.5991 17.1879C28.8476 15.9395 28.8476 13.9156 27.5991 12.6672L23.1413 8.21012L19.4094 11.9415L19.4099 11.942C19.0177 12.334 18.7067 12.7995 18.4945 13.3117C18.2823 13.824 18.173 14.373 18.173 14.9275C18.173 15.4819 18.2823 16.031 18.4945 16.5432C18.7067 17.0555 19.0177 17.5209 19.4099 17.913L19.4097 17.9132L22.8435 21.3465L22.8433 21.3467L23.1414 21.6448L21.6484 23.1376L17.9159 19.4057L17.9162 19.4054L17.908 19.3972Z" fill="#9043CA"/>
<path d="M34.8745 24.094C34.6897 24.094 34.5384 24.0352 34.4208 23.9175C34.3032 23.7999 34.2444 23.6487 34.2444 23.4638V7.07945C34.2444 6.8946 34.3032 6.74336 34.4208 6.62573C34.5384 6.5081 34.6897 6.44928 34.8745 6.44928H42.5626C44.0078 6.44928 45.1925 6.65093 46.1167 7.05424C47.041 7.45755 47.7216 8.03731 48.1585 8.79351C48.6122 9.5329 48.8391 10.4151 48.8391 11.4402C48.8391 12.0452 48.7214 12.5829 48.4862 13.0534C48.2677 13.5072 47.9904 13.8853 47.6543 14.1877C47.335 14.4902 47.0326 14.7087 46.7469 14.8431C47.3855 15.1456 47.9484 15.6413 48.4357 16.3303C48.9399 17.0193 49.1919 17.8259 49.1919 18.7502C49.1919 19.8593 48.9399 20.8171 48.4357 21.6237C47.9484 22.4135 47.2258 23.0269 46.268 23.4638C45.3269 23.8839 44.1674 24.094 42.7894 24.094H34.8745ZM38.7564 20.8171H42.2853C43.0079 20.8171 43.554 20.6071 43.9237 20.187C44.2934 19.7668 44.4783 19.2879 44.4783 18.7502C44.4783 18.162 44.285 17.6663 43.8985 17.263C43.5288 16.8597 42.9911 16.658 42.2853 16.658H38.7564V20.8171ZM38.7564 13.4568H42.0584C42.7474 13.4568 43.26 13.2803 43.5961 12.9274C43.9489 12.5745 44.1254 12.1208 44.1254 11.5662C44.1254 11.0285 43.9489 10.5916 43.5961 10.2555C43.26 9.9026 42.7474 9.72616 42.0584 9.72616H38.7564V13.4568ZM52.6226 24.094C52.4378 24.094 52.2865 24.0352 52.1689 23.9175C52.0513 23.7999 51.9925 23.6487 51.9925 23.4638V7.07945C51.9925 6.8946 52.0513 6.74336 52.1689 6.62573C52.2865 6.5081 52.4378 6.44928 52.6226 6.44928H55.2945C55.5802 6.44928 55.7819 6.5165 55.8995 6.65093C56.0339 6.76857 56.118 6.86099 56.1516 6.92821L62.302 16.6328V7.07945C62.302 6.8946 62.3608 6.74336 62.4785 6.62573C62.5961 6.5081 62.7473 6.44928 62.9322 6.44928H65.957C66.1418 6.44928 66.2931 6.5081 66.4107 6.62573C66.5283 6.74336 66.5871 6.8946 66.5871 7.07945V23.4638C66.5871 23.6319 66.5283 23.7831 66.4107 23.9175C66.2931 24.0352 66.1418 24.094 65.957 24.094H63.2599C62.991 24.094 62.7893 24.0268 62.6549 23.8923C62.5373 23.7579 62.4616 23.6655 62.428 23.6151L56.2776 14.2886V23.4638C56.2776 23.6487 56.2188 23.7999 56.1011 23.9175C55.9835 24.0352 55.8323 24.094 55.6474 24.094H52.6226ZM70.74 24.094C70.5551 24.094 70.4039 24.0352 70.2862 23.9175C70.1686 23.7999 70.1098 23.6487 70.1098 23.4638V7.07945C70.1098 6.8946 70.1686 6.74336 70.2862 6.62573C70.4039 6.5081 70.5551 6.44928 70.74 6.44928H82.5115C82.6964 6.44928 82.8476 6.5081 82.9652 6.62573C83.0829 6.74336 83.1417 6.8946 83.1417 7.07945V9.44888C83.1417 9.63373 83.0829 9.78497 82.9652 9.9026C82.8476 10.0202 82.6964 10.079 82.5115 10.079H74.4706V13.482H81.957C82.1418 13.482 82.293 13.5492 82.4107 13.6836C82.5283 13.8012 82.5871 13.9525 82.5871 14.1373V16.3303C82.5871 16.4984 82.5283 16.6496 82.4107 16.784C82.293 16.9017 82.1418 16.9605 81.957 16.9605H74.4706V20.4642H82.7132C82.898 20.4642 83.0492 20.523 83.1669 20.6407C83.2845 20.7583 83.3433 20.9095 83.3433 21.0944V23.4638C83.3433 23.6487 83.2845 23.7999 83.1669 23.9175C83.0492 24.0352 82.898 24.094 82.7132 24.094H70.74ZM90.7206 24.094C90.5358 24.094 90.3845 24.0352 90.2669 23.9175C90.1493 23.7999 90.0905 23.6487 90.0905 23.4638V10.4067H85.6037C85.4188 10.4067 85.2676 10.3479 85.1499 10.2303C85.0323 10.0959 84.9735 9.94461 84.9735 9.77657V7.07945C84.9735 6.8946 85.0323 6.74336 85.1499 6.62573C85.2676 6.5081 85.4188 6.44928 85.6037 6.44928H99.1649C99.3497 6.44928 99.501 6.5081 99.6186 6.62573C99.7362 6.74336 99.795 6.8946 99.795 7.07945V9.77657C99.795 9.94461 99.7362 10.0959 99.6186 10.2303C99.501 10.3479 99.3497 10.4067 99.1649 10.4067H94.6781V23.4638C94.6781 23.6487 94.6193 23.7999 94.5016 23.9175C94.384 24.0352 94.2328 24.094 94.0479 24.094H90.7206ZM102.716 24.094C102.531 24.094 102.38 24.0352 102.262 23.9175C102.145 23.7999 102.086 23.6487 102.086 23.4638V7.07945C102.086 6.8946 102.145 6.74336 102.262 6.62573C102.38 6.5081 102.531 6.44928 102.716 6.44928H114.488C114.672 6.44928 114.824 6.5081 114.941 6.62573C115.059 6.74336 115.118 6.8946 115.118 7.07945V9.44888C115.118 9.63373 115.059 9.78497 114.941 9.9026C114.824 10.0202 114.672 10.079 114.488 10.079H106.447V13.482H113.933C114.118 13.482 114.269 13.5492 114.387 13.6836C114.504 13.8012 114.563 13.9525 114.563 14.1373V16.3303C114.563 16.4984 114.504 16.6496 114.387 16.784C114.269 16.9017 114.118 16.9605 113.933 16.9605H106.447V20.4642H114.689C114.874 20.4642 115.025 20.523 115.143 20.6407C115.261 20.7583 115.319 20.9095 115.319 21.0944V23.4638C115.319 23.6487 115.261 23.7999 115.143 23.9175C115.025 24.0352 114.874 24.094 114.689 24.094H102.716ZM117.252 24.094C117.101 24.094 116.966 24.0436 116.849 23.9428C116.748 23.8251 116.698 23.6991 116.698 23.5647C116.698 23.5142 116.706 23.4638 116.723 23.4134C116.74 23.363 116.765 23.3126 116.798 23.2622L122.293 15.0952L117.202 7.2811C117.151 7.18028 117.126 7.07945 117.126 6.97862C117.126 6.84419 117.176 6.72656 117.277 6.62573C117.378 6.5081 117.504 6.44928 117.655 6.44928H121.31C121.562 6.44928 121.756 6.5165 121.89 6.65093C122.025 6.76857 122.117 6.8778 122.167 6.97862L125.192 11.5662L128.242 6.97862C128.309 6.8778 128.41 6.76857 128.545 6.65093C128.679 6.5165 128.872 6.44928 129.124 6.44928H132.578C132.729 6.44928 132.855 6.5081 132.956 6.62573C133.074 6.72656 133.132 6.84419 133.132 6.97862C133.132 7.09625 133.099 7.19708 133.032 7.2811L127.915 15.07L133.46 23.2622C133.494 23.3126 133.51 23.363 133.51 23.4134C133.527 23.4638 133.536 23.5142 133.536 23.5647C133.536 23.6991 133.485 23.8251 133.384 23.9428C133.284 24.0436 133.158 24.094 133.006 24.094H129.25C128.998 24.094 128.797 24.0352 128.646 23.9175C128.511 23.7831 128.419 23.6739 128.368 23.5899L125.016 18.7502L121.739 23.5899C121.688 23.6739 121.596 23.7831 121.462 23.9175C121.327 24.0352 121.134 24.094 120.882 24.094H117.252Z" fill="#9043CA"/>
</svg>
