<svg width="51" height="51" viewBox="0 0 51 51" fill="none" xmlns="http://www.w3.org/2000/svg">
<mask id="path-1-inside-1_15_43" fill="white">
<path d="M45.6913 38.6214C41.4169 44.3903 34.4108 48.1942 26.4889 48.1942C13.4692 48.1942 2.91464 38.0336 2.91464 25.5C2.91464 13.1311 13.277 3.06802 26.0603 2.80583C27.8729 1.77467 29.9527 1.05068 32.061 0.57767C30.3189 0.230604 28.3379 0 26.4889 0C11.8595 0 0 11.4167 0 25.5C0 39.5833 11.8595 51 26.4889 51C37.5393 51 46.9483 44.3295 50.9205 35.0728C49.358 36.4597 47.635 37.7365 45.6913 38.6214Z"/>
<path d="M50.5796 33.6719C51.1442 34.2154 51.1473 35.1005 50.5454 35.6055C48.421 37.3878 45.9431 38.7454 43.256 39.5929C40.1101 40.5851 36.7657 40.8504 33.4935 40.3673C30.2213 39.8843 27.1132 38.6664 24.4207 36.8122C21.7283 34.958 19.5271 32.5197 17.9953 29.6945C16.4635 26.8693 15.6441 23.7367 15.6035 20.5501C15.5629 17.3634 16.3021 14.2124 17.7615 11.3518C19.2208 8.49133 21.3592 6.00173 24.0036 4.08453C26.2623 2.44691 28.8361 1.26621 31.5697 0.607535C32.3442 0.420917 33.0968 0.929497 33.2371 1.6861C33.3775 2.44271 32.852 3.16011 32.0797 3.35484C29.7924 3.93154 27.639 4.9331 25.7429 6.3078C23.461 7.96216 21.6158 10.1104 20.3566 12.5788C19.0973 15.0471 18.4594 17.7662 18.4945 20.5159C18.5295 23.2656 19.2365 25.9688 20.5583 28.4067C21.8801 30.8445 23.7795 32.9486 26.1029 34.5485C28.4262 36.1485 31.1082 37.1994 33.9318 37.6162C36.7553 38.0331 39.6412 37.8042 42.3558 36.948C44.6115 36.2365 46.6964 35.1085 48.4957 33.6318C49.1033 33.1332 50.0151 33.1284 50.5796 33.6719Z"/>
</mask>
<path d="M45.6913 38.6214L44.4939 35.9911L43.8139 36.3006L43.3692 36.9009L45.6913 38.6214ZM26.0603 2.80583L26.1196 5.69522L26.8523 5.68019L27.4893 5.3178L26.0603 2.80583ZM32.061 0.57767L32.6937 3.39757L32.6257 -2.25663L32.061 0.57767ZM50.9205 35.0728L53.5763 36.2125L49.002 32.9114L50.9205 35.0728ZM43.256 39.5929L42.3867 36.8367L43.256 39.5929ZM24.0036 4.08453L22.3072 1.74476V1.74476L24.0036 4.08453ZM25.7429 6.3078L27.4392 8.64757L25.7429 6.3078ZM42.3558 36.948L41.4865 34.1918L42.3558 36.948ZM48.4957 33.6318L46.6623 31.3978L48.4957 33.6318ZM32.0797 3.35484L32.7863 6.15714L32.0797 3.35484ZM31.5697 0.607535L32.2467 3.41712L31.5697 0.607535ZM50.5454 35.6055L48.6879 33.3915L50.5454 35.6055ZM26.4889 51.0842C35.3494 51.0842 43.2077 46.8278 48.0133 40.3419L43.3692 36.9009C39.626 41.9529 33.4722 45.3042 26.4889 45.3042V51.0842ZM0.0246393 25.5C0.0246393 39.7324 11.9777 51.0842 26.4889 51.0842V45.3042C14.9607 45.3042 5.80464 36.3349 5.80464 25.5H0.0246393ZM26.001 -0.0835672C11.7627 0.208472 0.0246393 11.4429 0.0246393 25.5H5.80464C5.80464 14.8192 14.7912 5.92757 26.1196 5.69522L26.001 -0.0835672ZM27.4893 5.3178C28.9939 4.46189 30.7891 3.82487 32.6937 3.39757L31.4284 -2.24223C29.1163 -1.7235 26.752 -0.91256 24.6313 0.293849L27.4893 5.3178ZM32.6257 -2.25663C30.7304 -2.63421 28.5582 -2.89 26.4889 -2.89V2.89C28.1176 2.89 29.9074 3.09542 31.4964 3.41197L32.6257 -2.25663ZM26.4889 -2.89C10.368 -2.89 -2.89 9.71798 -2.89 25.5H2.89C2.89 13.1155 13.351 2.89 26.4889 2.89V-2.89ZM-2.89 25.5C-2.89 41.282 10.368 53.89 26.4889 53.89V48.11C13.351 48.11 2.89 37.8845 2.89 25.5H-2.89ZM26.4889 53.89C38.7227 53.89 49.1594 46.5054 53.5763 36.2125L48.2647 33.9332C44.7371 42.1537 36.3559 48.11 26.4889 48.11V53.89ZM49.002 32.9114C47.5584 34.1928 46.079 35.2695 44.4939 35.9911L46.8886 41.2516C49.1911 40.2035 51.1576 38.7266 52.839 37.2342L49.002 32.9114ZM48.6879 33.3915C46.8574 34.9272 44.7161 36.102 42.3867 36.8367L44.1253 42.349C47.1702 41.3887 49.9846 39.8483 52.4029 37.8195L48.6879 33.3915ZM42.3867 36.8367C39.6591 37.697 36.7563 37.9277 33.9156 37.5083L33.0714 43.2264C36.7751 43.7731 40.5611 43.4732 44.1253 42.349L42.3867 36.8367ZM33.9156 37.5083C31.075 37.089 28.3841 36.0326 26.0598 34.432L22.7816 39.1924C25.8423 41.3001 29.3676 42.6796 33.0714 43.2264L33.9156 37.5083ZM26.0598 34.432C23.736 32.8317 21.8466 30.7345 20.5359 28.317L15.4547 31.072C17.2075 34.305 19.7205 37.0844 22.7816 39.1924L26.0598 34.432ZM20.5359 28.317C19.2255 25.9002 18.5278 23.2272 18.4932 20.5132L12.7137 20.5869C12.7604 24.2462 13.7015 27.8385 15.4547 31.072L20.5359 28.317ZM18.4932 20.5132C18.4587 17.7993 19.0879 15.1112 20.3358 12.6652L15.1871 10.0385C13.5163 13.3135 12.6671 16.9276 12.7137 20.5869L18.4932 20.5132ZM20.3358 12.6652C21.584 10.2185 23.4186 8.07828 25.6999 6.4243L22.3072 1.74476C19.2998 3.92519 16.8576 6.76413 15.1871 10.0385L20.3358 12.6652ZM25.6999 6.4243C27.6488 5.01135 29.8754 3.9885 32.2467 3.41712L30.8927 -2.20205C27.7968 -1.45608 24.8759 -0.117522 22.3072 1.74476L25.6999 6.4243ZM31.3732 0.552535C28.7343 1.21788 26.2442 2.37476 24.0466 3.96804L27.4392 8.64757C29.0339 7.49145 30.8505 6.6452 32.7863 6.15714L31.3732 0.552535ZM24.0466 3.96804C21.4016 5.88561 19.2526 8.38323 17.7822 11.2654L22.9309 13.8921C23.979 11.8376 25.5205 10.0387 27.4392 8.64757L24.0466 3.96804ZM17.7822 11.2654C16.3115 14.1482 15.5636 17.3303 15.6047 20.5527L21.3842 20.4791C21.3552 18.202 21.8831 15.946 22.9309 13.8921L17.7822 11.2654ZM15.6047 20.5527C15.6458 23.7752 16.4745 26.938 18.0177 29.7842L23.0989 27.0292C21.9985 24.9997 21.4133 22.7561 21.3842 20.4791L15.6047 20.5527ZM18.0177 29.7842C19.5606 32.6298 21.7718 35.0749 24.4637 36.9287L27.742 32.1683C25.7873 30.8222 24.1996 29.0593 23.0989 27.0292L18.0177 29.7842ZM24.4637 36.9287C27.1553 38.7822 30.2545 39.9947 33.5097 40.4753L34.3538 34.7572C31.9619 34.4041 29.6971 33.5147 27.742 32.1683L24.4637 36.9287ZM33.5097 40.4753C36.7647 40.9558 40.0922 40.6923 43.2251 39.7041L41.4865 34.1918C39.1902 34.9161 36.746 35.1104 34.3538 34.7572L33.5097 40.4753ZM43.2251 39.7041C45.8289 38.8829 48.2417 37.5789 50.3291 35.8658L46.6623 31.3978C45.151 32.6381 43.3942 33.5901 41.4865 34.1918L43.2251 39.7041ZM50.3291 35.8658C49.9164 36.2045 49.1681 36.3246 48.5753 35.7539L52.5839 31.5899C50.8621 29.9323 48.2902 30.0619 46.6623 31.3978L50.3291 35.8658ZM30.3956 2.21321C30.2164 1.24718 30.8978 0.672378 31.3732 0.552535L32.7863 6.15714C34.8062 5.64784 36.5385 3.63825 36.0786 1.159L30.3956 2.21321ZM32.2467 3.41712C31.3838 3.62504 30.5522 3.05748 30.3956 2.21321L36.0786 1.159C35.6413 -1.19849 33.3046 -2.78321 30.8927 -2.20205L32.2467 3.41712ZM52.4029 37.8195C54.4215 36.1259 54.2889 33.2311 52.5839 31.5899L48.5753 35.7539C47.9995 35.1996 47.873 34.0751 48.6879 33.3915L52.4029 37.8195Z" fill="black" mask="url(#path-1-inside-1_15_43)"/>
</svg>
