<svg width="22" height="22" viewBox="0 0 22 22" fill="none" xmlns="http://www.w3.org/2000/svg">
<path d="M20.0001 3.40994L20.7101 2.70994C20.8984 2.52164 21.0042 2.26624 21.0042 1.99994C21.0042 1.73364 20.8984 1.47824 20.7101 1.28994C20.5218 1.10164 20.2664 0.99585 20.0001 0.99585C19.7338 0.99585 19.4784 1.10164 19.2901 1.28994L17.8901 2.69994L15.0601 5.52994L8.7501 11.8299C7.71614 11.1478 6.46577 10.8737 5.24126 11.0608C4.01676 11.248 2.90532 11.883 2.12228 12.8428C1.33925 13.8026 0.940385 15.0189 1.00297 16.2561C1.06556 17.4932 1.58515 18.6631 2.46105 19.539C3.33696 20.4149 4.50682 20.9345 5.74395 20.9971C6.98109 21.0597 8.19741 20.6608 9.15725 19.8778C10.1171 19.0947 10.7521 17.9833 10.9392 16.7588C11.1263 15.5343 10.8523 14.2839 10.1701 13.2499L15.7601 7.64994L17.8801 9.77994C17.9733 9.87252 18.0839 9.94583 18.2055 9.99569C18.327 10.0455 18.4572 10.071 18.5886 10.0705C18.72 10.07 18.85 10.0437 18.9713 9.99298C19.0925 9.94227 19.2025 9.86818 19.2951 9.77494C19.3877 9.6817 19.461 9.57114 19.5108 9.44957C19.5607 9.328 19.5861 9.1978 19.5857 9.06641C19.5852 8.93501 19.5588 8.80499 19.5081 8.68378C19.4574 8.56256 19.3833 8.45252 19.2901 8.35994L17.1701 6.23994L18.5901 4.82994L19.2901 5.52994C19.3827 5.62318 19.4927 5.69727 19.6139 5.74798C19.7352 5.79869 19.8652 5.82503 19.9966 5.8255C20.128 5.82596 20.2582 5.80054 20.3797 5.75069C20.5013 5.70083 20.6119 5.62752 20.7051 5.53494C20.7983 5.44236 20.8724 5.33232 20.9231 5.2111C20.9738 5.08989 21.0002 4.95987 21.0007 4.82848C21.0011 4.69708 20.9757 4.56688 20.9258 4.44531C20.876 4.32374 20.8027 4.21318 20.7101 4.11994L20.0001 3.40994ZM6.0001 18.9999C5.40675 18.9999 4.82673 18.824 4.33339 18.4944C3.84004 18.1647 3.45552 17.6962 3.22846 17.148C3.00139 16.5998 2.94199 15.9966 3.05774 15.4147C3.1735 14.8327 3.45922 14.2982 3.87878 13.8786C4.29833 13.4591 4.83288 13.1733 5.41483 13.0576C5.99677 12.9418 6.59997 13.0012 7.14815 13.2283C7.69632 13.4554 8.16486 13.8399 8.4945 14.3332C8.82415 14.8266 9.0001 15.4066 9.0001 15.9999C9.0001 16.7956 8.68403 17.5587 8.12142 18.1213C7.55881 18.6839 6.79575 18.9999 6.0001 18.9999Z" fill="black"/>
</svg>
