<svg width="24" height="24" viewBox="0 0 24 24" fill="black" xmlns="http://www.w3.org/2000/svg">
<path d="M4.87868 2.87868C5.44129 2.31607 6.20435 2 7 2H8C8.55228 2 9 2.44772 9 3C9 3.55228 8.55228 4 8 4H7C6.73478 4 6.48043 4.10536 6.29289 4.29289C6.10536 4.48043 6 4.73478 6 5V19C6 19.2652 6.10536 19.5196 6.29289 19.7071C6.48043 19.8946 6.73478 20 7 20H15C15.2652 20 15.5196 19.8946 15.7071 19.7071C15.8946 19.5196 16 19.2652 16 19V15C16 14.4477 16.4477 14 17 14C17.5523 14 18 14.4477 18 15V19C18 19.7956 17.6839 20.5587 17.1213 21.1213C16.5587 21.6839 15.7956 22 15 22H7C6.20435 22 5.44129 21.6839 4.87868 21.1213C4.31607 20.5587 4 19.7956 4 19V5C4 4.20435 4.31607 3.44129 4.87868 2.87868Z" />
<path d="M12 17C12 17.5523 11.5523 18 11 18C10.4477 18 10 17.5523 10 17C10 16.4477 10.4477 16 11 16C11.5523 16 12 16.4477 12 17Z"/>
<path d="M19.6942 10.2669L17.9652 8.54965C18.384 7.87093 18.6087 7.09053 18.6148 6.29321C18.6128 5.44297 18.3588 4.61237 17.8847 3.90624C17.4107 3.20012 16.7378 2.65012 15.9512 2.32565C15.1645 2.00119 14.2992 1.91682 13.4646 2.08318C12.63 2.24953 11.8634 2.65917 11.2616 3.26038C10.6598 3.86159 10.2498 4.62743 10.0833 5.46124C9.91674 6.29505 10.0012 7.15946 10.326 7.94535C10.6508 8.73125 11.2013 9.40342 11.9081 9.87702C12.6149 10.3506 13.4463 10.6044 14.2974 10.6064C15.0936 10.6063 15.8746 10.3888 16.556 9.97739L18.275 11.7047C18.3679 11.7982 18.4785 11.8725 18.6002 11.9232C18.722 11.9739 18.8527 12 18.9846 12C19.1165 12 19.2471 11.9739 19.3689 11.9232C19.4907 11.8725 19.6013 11.7982 19.6942 11.7047C19.7909 11.6115 19.8678 11.4999 19.9204 11.3764C19.9729 11.2528 20 11.12 20 10.9858C20 10.8516 19.9729 10.7188 19.9204 10.5953C19.8678 10.4717 19.7909 10.3601 19.6942 10.2669ZM15.9364 7.98055C15.496 8.39989 14.9108 8.6338 14.3024 8.6338C13.694 8.6338 13.1089 8.39989 12.6684 7.98055C12.4522 7.76621 12.2807 7.51109 12.1641 7.22999C12.0474 6.94889 11.9878 6.64743 11.9888 6.34313C11.9835 6.03644 12.0392 5.73175 12.1527 5.44675C12.2663 5.16175 12.4353 4.90211 12.6501 4.6829C12.8649 4.4637 13.1211 4.28929 13.4039 4.1698C13.6866 4.05032 13.9904 3.98813 14.2974 3.98685C14.602 3.98588 14.9038 4.04541 15.1851 4.16196C15.4665 4.27851 15.7219 4.44977 15.9364 4.66578C16.1523 4.87826 16.3237 5.13164 16.4404 5.41109C16.557 5.69053 16.6168 5.99043 16.616 6.29321C16.6237 6.60587 16.5674 6.91681 16.4506 7.20696C16.3337 7.49711 16.1587 7.76035 15.9364 7.98055Z" />
</svg>
