<svg width="24" height="24" viewBox="0 0 24 24" fill="black" xmlns="http://www.w3.org/2000/svg">
<path d="M2.02277 18.6671C2.02277 18.4019 2.12813 18.1476 2.31567 17.96C2.5032 17.7725 2.75756 17.6671 3.02277 17.6671L13.3928 17.6671C13.9232 17.6671 14.4319 17.4564 14.807 17.0813C15.1821 16.7063 15.3928 16.1976 15.3928 15.6671L15.3928 7.66713L12.4728 10.5871C12.2864 10.7579 12.0423 10.8518 11.7895 10.8499C11.5367 10.848 11.294 10.7505 11.1103 10.5768C10.9265 10.4032 10.8154 10.1665 10.7991 9.91419C10.7829 9.66192 10.8628 9.41286 11.0228 9.21713L15.6828 4.58713C15.7797 4.49585 15.8912 4.42149 16.0128 4.36713C16.2562 4.26711 16.5293 4.26711 16.7728 4.36713C16.8964 4.41769 17.0086 4.4925 17.1028 4.58713L21.7328 9.21713C21.9175 9.40339 22.0217 9.65479 22.0228 9.91713C22.0235 10.0487 21.9983 10.1792 21.9485 10.301C21.8988 10.4229 21.8255 10.5337 21.7328 10.6271C21.6398 10.7209 21.5292 10.7953 21.4074 10.846C21.2855 10.8968 21.1548 10.9229 21.0228 10.9229C20.8908 10.9229 20.7601 10.8968 20.6382 10.846C20.5163 10.7953 20.4057 10.7209 20.3128 10.6271L17.3928 7.70713L17.3928 15.7071C17.3928 16.768 16.9713 17.7854 16.2212 18.5356C15.4711 19.2857 14.4536 19.7071 13.3928 19.7071L3.02277 19.7071C2.88802 19.7072 2.75463 19.6801 2.63062 19.6274C2.50661 19.5746 2.39454 19.4974 2.30114 19.4002C2.20774 19.3031 2.13493 19.1881 2.0871 19.0621C2.03926 18.9361 2.01738 18.8018 2.02277 18.6671V18.6671Z" />
</svg>
