<svg width="51" height="51" viewBox="0 0 51 51" fill="none" xmlns="http://www.w3.org/2000/svg">
<rect x="1.445" y="14.424" width="48.1101" height="35.131" rx="4.84501" stroke="black" stroke-width="2.89"/>
<path d="M31.365 29.8438C31.365 27.9191 32.9253 26.3588 34.85 26.3588H49.5551V37.7906H34.8501C32.9253 37.7906 31.365 36.2303 31.365 34.3056V29.8438Z" stroke="black" stroke-width="2.89"/>
<ellipse cx="40.5451" cy="31.9896" rx="1.445" ry="1.44928" fill="black"/>
<path fill-rule="evenodd" clip-rule="evenodd" d="M44.629 14.343L42.215 7.1923C41.7045 5.68004 40.0655 4.87015 38.5541 5.38335L14.9366 13.403C14.3901 13.5886 13.9351 13.9218 13.6011 14.343H21.1566L39.4785 8.12154L41.5788 14.343H44.629Z" fill="black"/>
<path fill-rule="evenodd" clip-rule="evenodd" d="M36.1868 7.28698L31.2778 1.09268C30.2864 -0.158232 28.471 -0.365759 27.2229 0.629153L11.0401 13.5294C10.3689 14.0645 9.99844 14.8383 9.95361 15.634L15.0841 14.0015L29.018 2.89412L33.2419 8.22401L36.1868 7.28698Z" fill="black"/>
</svg>
