<svg xmlns="http://www.w3.org/2000/svg" width="605.201" height="115.173" viewBox="0 0 16002.11 3045.29" shape-rendering="geometricPrecision" text-rendering="geometricPrecision" image-rendering="optimizeQuality" fill-rule="evenodd" clip-rule="evenodd"><g fill-rule="nonzero"><path d="M10313.32 1981.21h870.53v-507.19l-831.45-207.37c-23-5.74-39.07-26.3-39.07-50 0-28.42 23.12-51.55 51.55-51.55h877.63V907.79h-877.63c-170.3 0-308.86 138.56-308.86 308.86 0 142.06 96.26 265.27 234.1 299.65l636.43 158.74v48.86h-870.53v1248.89h1296.42v-257.31h-1039.11v-734.27zM1105.58 858.02C495.95 858.02 0 1348.62 0 1951.65c0 603.04 495.95 1093.64 1105.58 1093.64 609.64 0 1105.59-490.6 1105.59-1093.64 0-603.03-495.95-1093.63-1105.59-1093.63zm0 1929.96c-467.75 0-848.27-375.16-848.27-836.33 0-461.14 380.52-836.32 848.27-836.32 467.76 0 848.28 375.18 848.28 836.32 0 461.17-380.52 836.33-848.28 836.33zM13479.33 907.69V1165h909.42v576.2c-121.47-101.48-276.9-162.5-446.1-162.5-383.98 0-696.37 323.76-696.37 721.69 0 393.93 315.54 714.44 703.41 714.44 166.33 0 319.17-60.82 439.06-162.04v119.98h257.31V907.69h-1166.73zm470.36 1849.83c-245.97 0-446.1-205.08-446.1-457.13 0-256.06 196.96-464.38 439.06-464.38 245.99 0 446.1 205.08 446.1 457.13 0 256.06-196.96 464.38-439.06 464.38zM7136.96 907.69l-175.47 694.11h-482.51l-147.7-694.11h-263.07l202.43 951.42h625.82l-173.84 687.71c-28.09 110.33-122.55 191.67-229.79 197.83-5.74.34-11.49.5-17.28.5-143.21 0-259.71-116.5-259.71-259.71V2036.8h-257.31v448.64c0 285.08 231.94 517.02 517.02 517.02 10.77 0 21.48-.29 32.09-.91 221.42-12.73 408.01-169.97 464.38-391.45l430.61-1702.41h-265.67zm1734.9 1668.34c0 93.27-75.87 169.13-169.13 169.13-93.27 0-169.14-75.86-169.14-169.13V1327.27c0-243.11-183.34-426.44-426.44-426.44-145.78 0-337.36 68.35-422.39 394.55l-432.11 1677.4h268.71l412.51-1613.04c52.58-201.6 134.1-201.6 173.28-201.6 124.84 0 169.13 91.11 169.13 169.13v1248.76c0 235.15 191.3 426.44 426.45 426.44 235.14 0 426.44-191.29 426.44-426.44V1164.81h338.27v1807.97h257.31V907.5h-852.89v1668.53zm-5774.22 0c0 93.24-75.87 169.13-169.13 169.13-93.27 0-169.14-75.89-169.14-169.13V907.68h-257.31v1668.35c0 235.15 191.3 426.44 426.45 426.44 235.14 0 426.44-191.29 426.44-426.44V1164.81h338.26v1807.97h257.32V907.5h-852.89v1668.53zM5429.31 907.79l-636.1 815.81h-188.63V907.7h-257.31v2065.08h257.31v-991.87h770.3v991.87h257.31V1723.6H5119.5l636.18-815.9zm7330.76 815.81h-914.04V907.69h-257.31v2065.09h257.31v-991.87h914.04v991.87h257.31V907.69h-257.31zM3226.3 647.79c223.82 0 405.92-182.07 405.92-405.89h-257.31c0 81.93-66.67 148.58-148.61 148.58-81.95 0-148.6-66.66-148.6-148.58h-257.31c0 223.82 182.11 405.89 405.91 405.89z"/><path d="M15378.39 508.28c-8.49-20.45-16.49-41.13-25.53-61.32-26.04-58.17-54.17-115.49-78.32-174.43-23.83-58.14-26.43-117.88 1.5-176.15 32.13-67.1 110.07-105.78 183.7-94.4 91.31 14.1 164.11 93.27 147.87 209.51-7.6 54.43-31.8 102.88-54.52 151.86-20.83 44.93-42.02 89.65-62.96 134.53-1.65 3.52-2.5 7.43-1.69 13.28 3.37-2.22 7.07-4.06 10.02-6.69 41.48-37.14 82.56-74.74 124.44-111.45 26.85-23.52 53.35-48 82.78-68.03 49.94-34.05 105.45-48.36 165.82-33.12 70.74 17.86 124.05 81.91 130 155.22 6.14 75.38-35.14 144.1-104.49 174.01-37.29 16.09-76.6 23.21-116.75 19.92-53.84-4.42-107.44-11.93-161.18-17.88-29.07-3.23-58.21-6-87.34-8.82-3.05-.3-6.2.23-10.49 2.81 4.9 3.65 9.48 7.85 14.74 10.86 44.46 25.41 89.31 50.16 133.53 75.99 31.91 18.65 64.55 36.58 94.14 58.47 46.33 34.3 77.77 79.63 84.75 138.45 9.99 84.02-44.91 164.7-126.74 187.65-83.9 23.51-163.49-12.02-209.49-93.41-24.01-42.5-33.51-89.54-42.99-136.53-10.88-54.1-21.1-108.33-31.75-162.46-1.05-5.39-3.13-10.57-4.73-15.86-1.31-.08-2.6-.15-3.9-.26-4.14 15.8-8.91 31.46-12.28 47.39-13.61 64.35-26.18 128.92-40.33 193.12-11.4 51.68-35.37 96.83-76.5 131.38-69.23 58.18-169.89 54.27-235.77-8.66-65.46-62.51-72.11-159.55-16.25-233.61 21.87-28.95 48.46-52.87 79.71-70.85 51.09-29.37 103.06-57.16 154.52-85.88 17.05-9.48 33.67-19.7 50.4-29.73 3.19-1.94 5.92-4.59 8.87-6.91-.36-1.07-.74-2.16-1.09-3.25-15.21.71-30.51.59-45.61 2.3-52.95 5.92-105.77 12.71-158.73 18.66-49.89 5.63-99.79 9.01-148.42-8.48-59.5-21.44-102.51-59.4-118.91-122.12-31.99-122.29 69.72-239.66 196.95-218.78 52.5 8.6 96.36 34.2 135.09 68.81 46.64 41.72 91.82 85.07 137.87 127.46 11.53 10.62 23.98 20.27 36 30.36 1.37-.99 2.71-1.99 4.08-2.97z" fill="#769261"/></g></svg>
