<svg width="350" height="84" viewBox="0 0 350 84" fill="red" xmlns="http://www.w3.org/2000/svg">
<path d="M1.5 83C6.51129 77.45 12.2903 52.2175 18.715 26.4847C26.5488 -4.89246 29.8606 17.79 43.2067 4.02345C54.6762 -7.80733 65.0772 18.5543 88.25 23.5865C111.606 28.6584 105.1 60.6837 115.776 55.4669C126.453 50.2501 125.786 60.5385 138.298 51.8438C150.81 42.4245 159.493 75.7626 162.488 78.6528C169.995 85.8983 175 54.0177 181.673 55.4669C189.926 57.2592 194.134 58.9939 195.853 58.3652C211.702 52.5686 211.702 36.6283 234.224 47.4968C241.533 51.024 242.565 62.7126 265.087 43.1495C279.267 35.904 279.434 19.529 286.774 26.4847C295.95 35.1794 300.954 21.4129 305.125 32.281C309.354 43.3004 320.95 42.2895 322.642 51.8438C324.31 61.2631 335.988 56.1909 340.993 64.1613C344.251 69.3507 347.666 74.3055 348.5 75.7546" stroke-width="2" stroke-linecap="round"/>
</svg>
