<svg width="347" height="117" viewBox="0 0 347 117" fill="red" xmlns="http://www.w3.org/2000/svg">
<path d="M347 116.618V74.6513C346.615 73.9842 345.683 72.5731 344.469 70.7381C343.051 68.5925 341.249 65.8673 339.493 63.0741C337.168 59.3771 333.404 58.49 329.872 57.6576C325.799 56.6979 322.035 55.8109 321.142 50.7736C320.292 45.9815 316.944 43.8509 313.285 41.523C309.66 39.2159 305.73 36.715 303.625 31.2377C301.52 25.7589 299.202 26.5492 296.242 27.5585C293.338 28.5484 289.818 29.7489 285.274 25.4494C281.389 21.7729 279.513 24.6234 276.506 29.1945C273.831 33.2596 270.261 38.6854 263.587 42.0912C245.893 57.4395 241.463 53.5251 236.832 49.4335C235.569 48.3172 234.29 47.1876 232.724 46.4325C217.879 39.2788 212.819 43.7556 206.556 49.2966C203.317 52.1623 199.756 55.3126 194.353 57.2859C193.269 57.6819 191.195 57.1391 187.74 56.2352C185.717 55.7058 183.221 55.0527 180.173 54.3917C177.15 53.7361 174.47 59.9098 171.744 66.1878C168.452 73.7696 165.095 81.5036 160.988 77.5456C160.249 76.8329 159.162 74.2665 157.757 70.9468C153.472 60.8219 146.221 43.6898 136.798 50.7736C129.942 55.5316 127.043 54.597 124.066 53.6372C121.611 52.8456 119.102 52.0369 114.276 54.3917C109.698 56.6255 108.279 52.0212 106.311 45.6331C103.689 37.1234 100.091 25.4483 86.75 22.5552C76.3071 20.2905 68.458 13.7001 61.936 8.22392C53.9857 1.54851 48.0074 -3.47111 41.7067 3.01912C36.2597 8.63004 32.4841 8.17776 29.3904 7.80716C24.904 7.26973 21.8515 6.90407 17.215 25.4494C16.4897 28.3501 15.7728 31.2445 15.0642 34.1049C9.49542 56.5849 4.44562 76.97 0 81.8868V116.618H347Z" />
</svg>